<svg width="89" height="85" viewBox="0 0 89 85" fill="none" xmlns="http://www.w3.org/2000/svg">
<g opacity="0.78">
<path d="M43.344 12.2153C47.5332 10.2074 52.3479 9.94386 56.7312 11.4825C61.1144 13.0212 64.708 16.2363 66.723 20.4221L68.4289 23.9734C68.5215 24.1661 68.5337 24.3876 68.4629 24.5893C68.3921 24.791 68.2441 24.9563 68.0515 25.0488L15.6954 50.198C15.5027 50.2905 15.2812 50.3028 15.0795 50.232C14.8779 50.1612 14.7126 50.0132 14.62 49.8205L12.9141 46.2691C10.9063 42.08 10.6427 37.2653 12.1814 32.882C13.7201 28.4987 16.9352 24.9051 21.1209 22.8901L43.344 12.2153ZM42.0517 9.52482L19.8286 20.1997C14.9265 22.5544 11.1606 26.76 9.35931 31.8913C7.55804 37.0227 7.86897 42.6594 10.2237 47.5615L11.9296 51.1129C12.3649 52.0191 13.1423 52.7153 14.0909 53.0482C15.0395 53.3812 16.0815 53.3237 16.9877 52.8885L69.3438 27.7393C70.25 27.304 70.9462 26.5265 71.2792 25.5779C71.6122 24.6293 71.5547 23.5873 71.1194 22.6811L69.4135 19.1297C67.0588 14.2276 62.8531 10.4617 57.7218 8.66044C52.5905 6.85918 46.9537 7.1701 42.0517 9.52482Z" fill="#D5AE4C"/>
<path d="M78.5501 46.181C78.6084 46.153 78.6716 46.1367 78.7362 46.1332C78.8008 46.1296 78.8654 46.1388 78.9264 46.1602C78.9875 46.1816 79.0437 46.2149 79.0919 46.258C79.14 46.3012 79.1792 46.3534 79.2072 46.4117L81.0101 50.1648C81.2798 50.7172 81.4378 51.3174 81.4751 51.9309C81.5124 52.5445 81.4282 53.1593 81.2274 53.7403C81.0265 54.3213 80.713 54.8569 80.3048 55.3164C79.8966 55.776 79.4017 56.1504 78.8484 56.4184L33.4472 78.2268C32.8931 78.493 32.2919 78.6471 31.6782 78.6805C31.0644 78.7139 30.4501 78.6258 29.8704 78.4213C29.2908 78.2167 28.7572 77.8998 28.3002 77.4887C27.8433 77.0776 27.472 76.5803 27.2076 76.0254L25.4048 72.2722C25.3768 72.2139 25.3605 72.1506 25.357 72.0861C25.3534 72.0215 25.3626 71.9569 25.384 71.8958C25.4055 71.8348 25.4387 71.7786 25.4818 71.7304C25.525 71.6822 25.5772 71.643 25.6355 71.615L78.5565 46.1944M77.2642 43.504L24.3431 68.9246C23.5118 69.3239 22.8732 70.0371 22.5678 70.9072C22.2623 71.7774 22.315 72.7333 22.7143 73.5645L24.5172 77.3177C24.9513 78.2259 25.5602 79.0397 26.3092 79.7123C27.0581 80.3849 27.9323 80.9032 28.8818 81.2375C29.8313 81.5719 30.8374 81.7157 31.8426 81.6607C32.8477 81.6058 33.8321 81.3531 34.7395 80.9173L80.1408 59.1088C81.0462 58.6717 81.8567 58.0606 82.5259 57.3103C83.1951 56.56 83.71 55.6852 84.0411 54.7359C84.3723 53.7867 84.5132 52.7815 84.4559 51.7777C84.3985 50.774 84.1441 49.7913 83.707 48.8859L81.9042 45.1328C81.5049 44.3015 80.7917 43.6629 79.9215 43.3574C79.0513 43.0519 78.0955 43.1047 77.2642 43.504Z" fill="#D5AE4C"/>
<path d="M73.7081 36.2387C74.1975 36.0079 74.758 35.979 75.2685 36.1582C75.779 36.3375 76.1985 36.7104 76.4363 37.1964L78.1551 40.7746C78.3905 41.2647 78.4226 41.8279 78.2444 42.3415C78.0662 42.8551 77.6922 43.2774 77.2039 43.5163L24.4039 68.8788C24.1601 68.9959 23.8956 69.0638 23.6256 69.0787C23.3556 69.0936 23.0852 69.0552 22.83 68.9656C22.5749 68.876 22.3398 68.737 22.1383 68.5566C21.9368 68.3762 21.7729 68.1579 21.6558 67.9141L19.9369 64.3358C19.7051 63.8441 19.6771 63.2806 19.859 62.7683C20.041 62.2561 20.418 61.8365 20.9081 61.6011L73.7081 36.2387ZM72.4157 33.5482L19.6157 58.9107C19.0184 59.1954 18.4832 59.5952 18.0406 60.0872C17.5981 60.5792 17.257 61.1536 17.037 61.7777C16.8169 62.4017 16.7221 63.0631 16.758 63.7238C16.794 64.3845 16.96 65.0317 17.2465 65.6281L18.9653 69.2064C19.2506 69.8049 19.6514 70.341 20.1446 70.784C20.6379 71.227 21.2138 71.5681 21.8394 71.7877C22.4649 72.0073 23.1277 72.101 23.7896 72.0635C24.4515 72.026 25.0995 71.858 25.6963 71.5692L78.4962 46.2068C79.0927 45.9203 79.6268 45.5189 80.0678 45.0256C80.5089 44.5323 80.8483 43.9568 81.0665 43.3321C81.2848 42.7074 81.3776 42.0458 81.3397 41.3852C81.3018 40.7246 81.1338 40.0779 80.8456 39.4823L79.1267 35.904C78.5492 34.7017 77.5177 33.778 76.2591 33.3362C75.0006 32.8944 73.6181 32.9707 72.4157 33.5482Z" fill="#D5AE4C"/>
<path d="M68.7251 28.036L71.5166 33.8474L20.3981 58.4021L17.6066 52.5908L68.7251 28.036ZM70.1232 24.0532L13.6238 51.1927L19 62.3849L75.4994 35.2455L70.1232 24.0532ZM28.9356 28.4736L26.2452 29.7659C25.8884 29.9373 25.4782 29.9599 25.1047 29.8288C24.7313 29.6977 24.4252 29.4236 24.2538 29.0669C24.0824 28.7101 24.0598 28.2998 24.1909 27.9264C24.322 27.5529 24.5961 27.2468 24.9528 27.0755L27.6433 25.7831C28.0001 25.6117 28.4103 25.5891 28.7838 25.7202C29.1572 25.8513 29.4633 26.1254 29.6347 26.4822C29.8061 26.8389 29.8287 27.2492 29.6976 27.6226C29.5665 27.9961 29.2924 28.3022 28.9356 28.4736ZM46.5043 20.0345L43.8138 21.3268C43.457 21.4982 43.0468 21.5208 42.6733 21.3898C42.2999 21.2587 41.9938 20.9846 41.8224 20.6278C41.651 20.271 41.6284 19.8608 41.7595 19.4873C41.8906 19.1139 42.1647 18.8078 42.5215 18.6364L45.2119 17.344C45.5687 17.1727 45.9789 17.15 46.3524 17.2811C46.7258 17.4122 47.0319 17.6863 47.2033 18.0431C47.3747 18.3999 47.3973 18.8101 47.2662 19.1836C47.1351 19.557 46.861 19.8631 46.5043 20.0345ZM41.703 32.3738L39.0126 33.6661C38.6558 33.8375 38.2456 33.8601 37.8721 33.729C37.4987 33.5979 37.1926 33.3239 37.0212 32.9671C36.8498 32.6103 36.8272 32.2001 36.9583 31.8266C37.0894 31.4531 37.3635 31.147 37.7202 30.9757L40.4107 29.6833C40.7675 29.5119 41.1777 29.4893 41.5512 29.6204C41.9246 29.7515 42.2307 30.0256 42.4021 30.3824C42.5735 30.7391 42.5961 31.1494 42.465 31.5228C42.3339 31.8963 42.0598 32.2024 41.703 32.3738ZM24.0806 40.8387L21.3902 42.131C21.0334 42.3024 20.6232 42.325 20.2497 42.1939C19.8762 42.0628 19.5702 41.7888 19.3988 41.432C19.2274 41.0752 19.2048 40.665 19.3359 40.2915C19.467 39.9181 19.741 39.612 20.0978 39.4406L22.7883 38.1482C23.145 37.9769 23.5553 37.9542 23.9287 38.0853C24.3022 38.2164 24.6083 38.4905 24.7797 38.8473C24.951 39.2041 24.9737 39.6143 24.8426 39.9878C24.7115 40.3612 24.4374 40.6673 24.0806 40.8387ZM58.3384 25.5419L55.648 26.8343C55.2912 27.0055 54.881 27.0281 54.5076 26.897C54.1342 26.7659 53.8282 26.4918 53.6568 26.1351C53.4855 25.7784 53.4628 25.3682 53.5939 24.9948C53.7249 24.6213 53.9989 24.3152 54.3556 24.1438L57.046 22.8515C57.4028 22.6802 57.813 22.6576 58.1864 22.7887C58.5598 22.9199 58.8658 23.1939 59.0372 23.5506C59.2085 23.9074 59.2312 24.3176 59.1001 24.691C58.9691 25.0644 58.6951 25.3705 58.3384 25.5419Z" fill="#D5AE4C"/>
</g>
</svg>
