<svg width="175" height="176" viewBox="0 0 175 176" fill="none" xmlns="http://www.w3.org/2000/svg">
<g opacity="0.78" clip-path="url(#clip0_174_967)">
<path d="M148.941 108.068L148.886 108.034C148.864 108.02 148.85 107.996 148.828 107.984L138.236 101.648L147.744 79.6643C147.75 79.6496 147.764 79.6334 147.764 79.6334C147.781 79.5955 147.784 79.5718 147.794 79.5465L147.817 79.494C147.843 79.4279 147.855 79.3605 147.879 79.2935C147.964 79.0559 148.046 78.8164 148.098 78.5693C148.109 78.5143 148.112 78.4556 148.123 78.4006C148.175 78.1258 148.213 77.8476 148.224 77.5607C148.224 77.5381 148.222 77.5147 148.224 77.493C148.539 67.3091 124.91 50.3088 100.413 39.7085C74.12 28.3333 43.1298 22.7244 38.897 32.5062C38.8833 32.5377 38.8781 32.5729 38.8653 32.6024L22.316 70.8238C18.3843 79.9095 39.9727 98.7129 68.5148 111.064L69.6329 111.538C70.7906 112.024 72.1217 111.486 72.6203 110.334L78.742 96.1869C80.6842 97.9236 83.5155 100.467 85.9336 102.644L78.3988 120.057C78.1859 120.549 78.1517 121.101 78.3012 121.615L83.3554 138.78C83.3655 138.815 83.3955 138.838 83.4056 138.872C83.4178 138.907 83.4129 138.947 83.4251 138.983C83.494 139.152 83.6133 139.286 83.7168 139.433C83.7758 139.516 83.8119 139.612 83.8817 139.687C84.0945 139.916 84.3483 140.109 84.6427 140.236C84.6469 140.238 84.649 140.239 84.6532 140.241C101.747 147.543 118.615 152.475 129.772 153.434C130.751 153.518 131.68 152.964 132.071 152.062L149.864 110.941C150.325 109.887 149.929 108.657 148.941 108.068ZM105.313 95.3525L102.462 86.295L124.665 98.8836L124.679 98.8921L129.116 101.544L135.964 105.64C126.948 103.521 116.23 99.9443 105.313 95.3525ZM134.268 99.2741L128.763 95.9807L132.246 87.9295C134.914 88.0005 137.53 87.3797 139.86 86.3436L134.268 99.2741ZM84.0175 67.5364C55.2706 54.4703 41.501 38.2864 43.095 34.3603L43.1169 34.3098C45.0634 30.0943 69.2501 31.2164 98.5891 43.9121C122.181 54.1211 138.031 67.0211 142.443 73.8957C142.495 73.978 142.555 74.064 142.605 74.1454C142.655 74.2268 142.695 74.3015 142.74 74.3811C143.443 75.5891 143.77 76.5941 143.68 77.3369C143.669 77.4145 143.647 77.4824 143.629 77.5542C143.612 77.6218 143.599 77.6913 143.576 77.7511L143.541 77.831C142.83 79.3829 137.928 83.5679 132.375 83.4041L85.4016 50.2958L85.0001 50.0122C84.9521 49.9789 84.8938 49.9637 84.8439 49.9346C84.2018 49.5494 83.4393 49.5115 82.765 49.8064C82.6607 49.8512 82.5505 49.8809 82.4513 49.9428C82.0596 50.1902 81.76 50.5423 81.5793 50.9484C81.3994 51.3524 81.3356 51.8116 81.4131 52.2671L84.0175 67.5364ZM69.325 106.417C39.2908 93.1928 24.8417 76.5251 26.5214 72.6435L40.3599 40.681C45.9505 50.3648 63.2172 63.3711 83.9862 72.5357L75.7935 91.4684L69.325 106.417ZM80.6222 91.8478L89.0978 72.2611C89.1078 72.238 89.1085 72.2134 89.1173 72.1872C89.148 72.1106 89.1579 72.03 89.1822 71.9507C89.2145 71.8299 89.2562 71.7106 89.2708 71.5846C89.2826 71.4823 89.2664 71.3755 89.2637 71.272C89.2611 71.1685 89.2729 71.0662 89.257 70.9645L86.8678 56.9516L128.029 86.137L124.796 93.6079L99.3687 78.3982C99.3411 78.3813 99.308 78.3769 99.2795 78.3621L99.2678 78.3545C99.2062 78.3179 99.1368 78.3053 99.0734 78.2729C98.9743 78.225 98.8734 78.1814 98.7688 78.1461C98.6477 78.1087 98.5274 78.0866 98.4023 78.0699C98.3362 78.0613 98.2782 78.0337 98.2103 78.0292C98.166 78.0276 98.1248 78.0422 98.0817 78.0435C97.9617 78.044 97.8467 78.0616 97.7266 78.0796C97.6137 78.0981 97.506 78.1164 97.3991 78.15C97.2921 78.1837 97.1912 78.2323 97.0893 78.2831C96.9845 78.3351 96.8847 78.3868 96.7888 78.4526C96.7523 78.4793 96.7077 78.49 96.6733 78.5175C96.6154 78.5649 96.5788 78.6264 96.5251 78.6756C96.4412 78.7541 96.3636 78.8353 96.2917 78.9265C96.217 79.024 96.1589 79.1237 96.1011 79.2285C96.0668 79.2961 96.0173 79.3471 95.9891 79.4122L95.6888 80.1061L87.8565 98.2062C84.3741 95.0791 82.1323 93.083 80.6222 91.8478ZM90.7953 102.953L97.7524 86.8757L100.906 96.8954L85.9672 131.418L82.9357 121.116L90.7953 102.953ZM88.5794 136.919L104.556 99.9979C119.441 106.179 133.953 110.494 144.464 111.895L128.536 148.702C118.326 147.52 103.682 143.205 88.5794 136.919Z" fill="#C5A042" stroke="#C5A042" stroke-width="0.00199993"/>
</g>
<defs>
<clipPath id="clip0_174_967">
<rect width="133" height="133" fill="white" transform="translate(52.8193 0.33252) rotate(23.3994)"/>
</clipPath>
</defs>
</svg>
