<svg width="94" height="94" viewBox="0 0 94 94" fill="none" xmlns="http://www.w3.org/2000/svg">
<g clip-path="url(#clip0_174_896)">
<path d="M22.5973 57.0379C19.9378 54.9209 18.513 51.4364 18.9697 48.161C19.0595 47.5192 18.6121 46.9272 17.9687 46.8354C17.327 46.7455 16.7334 47.1935 16.6431 47.8363C16.0661 51.9802 17.7872 56.2091 21.1342 58.8754C21.2031 58.9298 21.2772 58.9762 21.3532 59.0131C21.837 59.2481 22.4353 59.1263 22.7842 58.6874C23.1886 58.1802 23.1045 57.4422 22.5973 57.0379Z" fill="#D5AE4C" stroke="#D5AE4C" stroke-width="0.002"/>
<path d="M46.142 78.0623C43.4824 75.9453 42.0577 72.4609 42.5143 69.1854C42.6042 68.5437 42.1557 67.9511 41.5134 67.8598C40.8717 67.77 40.2781 68.2179 40.1878 68.8607C39.6108 73.0046 41.3319 77.2335 44.6789 79.8998C44.7478 79.9542 44.8218 80.0006 44.8979 80.0375C45.3816 80.2725 45.98 80.1507 46.3289 79.7118C46.7328 79.2057 46.6492 78.4667 46.142 78.0623Z" fill="#D5AE4C" stroke="#D5AE4C" stroke-width="0.002"/>
<path d="M19.4634 43.4818C19.5275 43.5299 19.5936 43.5711 19.6633 43.605C20.1555 43.8441 20.7653 43.7121 21.1088 43.2602C21.9258 42.1884 22.9017 41.284 24.0101 40.5717C24.5564 40.221 24.7146 39.4949 24.3638 38.9486C24.0136 38.4038 23.2881 38.2446 22.7407 38.5948C21.3998 39.4552 20.2228 40.5453 19.2397 41.8353C18.8481 42.3513 18.9484 43.088 19.4634 43.4818Z" fill="#D5AE4C" stroke="#D5AE4C" stroke-width="0.002"/>
<path d="M66.5527 59.9412C72.6185 53.3476 73.4945 45.0866 72.2875 34.1128C72.932 34.6269 73.6212 35.0974 74.3922 35.472C75.197 35.863 76.0666 36.1744 76.9893 36.3981C80.1501 37.1633 83.5502 36.7641 86.3164 35.3024L87.3546 34.7532L86.8055 33.715C84.2009 28.7866 77.6981 26.6186 72.0604 28.4504C72.1249 26.2833 71.5276 24.0676 70.2709 22.0081C68.5764 19.232 65.8906 17.1101 62.9012 16.188L61.7797 15.8416L61.4333 16.9631C60.5152 19.9361 60.9957 23.1904 62.7881 26.125C64.1438 28.3462 66.1349 30.1489 68.4079 31.253C68.6519 31.3715 68.8994 31.4774 69.149 31.5791C64.1532 40.6324 53.1793 45.5455 44.9596 44.8346C44.0506 40.2991 41.3886 36.4055 37.2788 34.4091L35.1664 33.383C27.5954 29.7052 17.9831 33.8202 13.7394 42.5562C9.77846 50.7102 13.1894 60.5653 21.3434 64.5263C26.7311 67.1435 32.8533 66.5262 37.5353 63.4639C33.7047 71.5833 37.1165 81.3266 45.2134 85.2598C53.3674 89.2208 63.2226 85.8099 67.1835 77.6559C70.163 71.5224 69.7039 64.7252 66.5527 59.9412ZM84.0477 33.7513C79.8382 35.3303 74.7953 34.0725 72.312 30.8402C76.5205 29.2632 81.5655 30.5194 84.0477 33.7513ZM63.4043 18.8879C65.375 19.7812 67.0983 21.3181 68.2662 23.2326C69.4517 25.1753 69.9278 27.2695 69.6543 29.2462C67.7012 28.3758 65.9613 26.8165 64.7919 24.9026C63.6064 22.9599 63.1302 20.8657 63.4043 18.8879ZM69.9914 34.7036C71.1761 46.0243 69.823 52.8381 65.1057 58.0934C63.9923 56.8946 62.6756 55.883 61.1494 55.1416L59.037 54.1154C54.115 51.7245 48.3376 52.6425 43.7263 55.9676C44.9577 53.0672 45.4547 50.0554 45.275 47.1979C53.7006 47.7295 64.2156 43.2371 69.9914 34.7036ZM22.3695 62.4139C15.3805 59.0188 12.4568 50.5713 15.8518 43.5823C19.5296 36.0114 27.7343 32.3836 34.1402 35.4954L36.2527 36.5215C39.4224 38.0613 41.5626 40.9678 42.4746 44.4276C41.6339 44.2151 40.8367 43.9349 40.0994 43.5768C39.5164 43.2935 38.8134 43.5369 38.5301 44.1199C38.2469 44.7029 38.4903 45.406 39.0733 45.6892C40.2425 46.2572 41.5348 46.6552 42.9022 46.9147C43.1633 49.8143 42.6382 52.9404 41.2016 55.8978C37.806 62.8852 29.3574 65.8084 22.3695 62.4139ZM46.2396 83.1474C39.2506 79.7524 36.3269 71.3049 39.7219 64.3159C43.3997 56.7449 51.6044 53.1171 58.0103 56.2289L60.1227 57.2551C61.4113 57.881 62.5219 58.7417 63.4574 59.764C62.5831 60.556 61.6208 61.3169 60.5653 62.0574C60.0334 62.4295 59.9057 63.1626 60.2773 63.6929C60.3964 63.8617 60.5517 63.9907 60.7249 64.0749C61.0967 64.2555 61.5513 64.2335 61.9129 63.9809C62.9981 63.2196 63.96 62.4271 64.8577 61.6165C67.3413 65.7028 67.597 71.43 65.0711 76.6297C61.6761 83.6187 53.2275 86.5419 46.2396 83.1474Z" fill="#D5AE4C" stroke="#D5AE4C" stroke-width="0.002"/>
<path d="M40.0546 47.5065C37.7246 46.3747 36.7502 43.5594 37.8821 41.2293C38.1653 40.6463 37.922 39.9433 37.3389 39.6601C36.7559 39.3768 36.0529 39.6202 35.7696 40.2032C34.0719 43.6982 35.5335 47.9212 39.0285 49.6189C39.6115 49.9022 40.3145 49.6588 40.5978 49.0758C40.881 48.4928 40.6377 47.7897 40.0546 47.5065Z" fill="#D5AE4C" stroke="#D5AE4C" stroke-width="0.002"/>
<path d="M61.8123 67.214C59.4822 66.0822 58.5078 63.2669 59.6397 60.9369C59.9229 60.3538 59.6796 59.6508 59.0966 59.3676C58.5135 59.0844 57.8105 59.3277 57.5273 59.9107C55.8295 63.4057 57.2911 67.6287 60.7861 69.3265C61.3691 69.6097 62.0722 69.3664 62.3554 68.7833C62.6386 68.2003 62.3953 67.4973 61.8123 67.214Z" fill="#D5AE4C" stroke="#D5AE4C" stroke-width="0.002"/>
</g>
<defs>
<clipPath id="clip0_174_896">
<rect width="70" height="70" fill="white" transform="translate(30.5861 0.33252) rotate(25.9091)"/>
</clipPath>
</defs>
</svg>
