<svg width="141" height="142" viewBox="0 0 141 142" fill="none" xmlns="http://www.w3.org/2000/svg">
<g opacity="0.78" clip-path="url(#clip0_174_987)">
<path fill-rule="evenodd" clip-rule="evenodd" d="M128.39 67.7432C130.442 66.5514 127.942 65.7573 127.942 65.7573C127.942 65.7573 104.953 70.7361 103.99 67.8001C103.028 64.864 127.369 61.5122 126.986 57.8509C126.642 54.4461 102.27 62.2436 101.808 59.1747C101.359 56.1198 124.11 50.1694 124.11 50.1694C124.11 50.1694 125.977 48.3147 123.623 48.1822C94.6507 46.4921 85.1616 55.699 85.1616 55.699C85.1616 55.699 83.1042 57.3634 83.7197 60.0072C83.7909 60.2479 19.5165 75.3575 10.8847 77.4253C6.69045 78.4216 10.452 93.6606 14.63 92.6543C23.2631 90.5873 87.4117 75.0028 87.4632 75.2389C88.0962 77.8877 90.6791 78.4404 90.6791 78.4404C90.6791 78.4404 103.286 82.3647 128.39 67.7432Z" fill="#C5A042" stroke="#C5A042"/>
<path fill-rule="evenodd" clip-rule="evenodd" d="M63.2171 82.8755C67.284 100.04 74.1442 128.972 74.1442 128.972C74.1442 128.972 83.5255 131.223 88.6847 125.304L77.801 79.3894C72.9386 80.547 68.0774 81.709 63.2171 82.8755Z" fill="#C5A042" stroke="#C5A042"/>
<path fill-rule="evenodd" clip-rule="evenodd" d="M54.926 65.0645C61.073 63.6036 67.2182 62.1355 73.3617 60.6602L61.5315 10.76C61.5315 10.76 61.3338 9.83213 59.3467 10.3099C55.4128 11.2395 41.1662 23.8203 48.8398 56.1591C50.0548 61.2867 52.5415 63.4246 54.926 65.0645Z" fill="#C5A042" stroke="#C5A042"/>
</g>
<defs>
<clipPath id="clip0_174_987">
<rect width="102.196" height="102.196" fill="white" transform="translate(53.5621 0.984375) rotate(31.6084)"/>
</clipPath>
</defs>
</svg>
