<svg width="99" height="99" viewBox="0 0 99 99" fill="none" xmlns="http://www.w3.org/2000/svg">
<g opacity="0.78" clip-path="url(#clip0_174_940)">
<path d="M78.6982 23.1389C82.8135 17.6854 85.3448 10.4805 85.3448 2.56055H81.931C81.931 17.2416 72.4629 29.2206 60.6495 29.8146C59.3112 29.0277 57.8109 28.4968 56.2081 28.2818C55.4281 22.4442 50.4286 17.9226 44.3793 17.9226C40.6566 17.9226 37.2308 19.6688 34.9982 22.5142C32.81 19.7251 29.4167 17.9226 25.6034 17.9226C19.0148 17.9226 13.6552 23.2823 13.6552 29.8709C13.6552 32.5012 14.5189 34.9899 16.0482 37.0245C10.7722 38.2637 6.82759 42.9986 6.82759 48.6468C6.82759 52.3883 8.55838 55.7304 11.2587 57.922C6.68933 59.6016 3.41379 63.9849 3.41379 69.1295C3.41379 71.1641 3.92757 73.1134 4.89709 74.8681C1.93391 77.0444 0 80.5418 0 84.4916C0 91.0802 5.35966 96.4399 11.9483 96.4399C16.2241 96.4399 19.9707 94.1748 22.0838 90.79C24.098 92.2272 26.5252 93.0261 29.0189 93.0261C33.8034 93.0261 37.9272 90.1926 39.8338 86.1234C41.7012 87.2789 43.8502 87.9054 46.0862 87.9054C51.3998 87.9054 55.9111 84.4165 57.4575 79.6099C59.1969 80.5606 61.1462 81.0778 63.1552 81.0778C69.7438 81.0778 75.1034 75.7181 75.1034 69.1295C75.1034 66.535 74.2619 64.1368 72.8521 62.1756C76.3034 60.0232 78.5172 56.2168 78.5172 52.0605C78.5172 45.4719 73.2139 40.073 66.569 40.1259C66.569 40.1208 66.569 40.1174 66.569 40.1123C66.569 37.3625 65.6268 34.8345 64.0598 32.8136C68.2042 31.9635 72.0037 29.9204 75.2178 26.9811C76.3392 38.1732 85.8091 46.9399 97.2931 46.9399H99V45.233C99 33.6346 90.0524 24.1016 78.6982 23.1389ZM63.0084 41.6707C63.0067 41.6758 63.0033 41.6809 63.0033 41.686C62.9725 41.8533 62.9128 42.0103 62.8718 42.1742C62.7984 42.4661 62.725 42.758 62.6243 43.0362C62.5424 43.2615 62.4366 43.4749 62.3359 43.6899C62.2403 43.8948 62.1447 44.0979 62.0337 44.2942C61.9074 44.5161 61.7692 44.7311 61.6241 44.9411C61.508 45.1084 61.3851 45.2705 61.2571 45.4293C61.0932 45.6324 60.9277 45.8338 60.745 46.0215C60.5982 46.1735 60.4395 46.31 60.2825 46.45C60.0981 46.6155 59.9189 46.7862 59.7209 46.9347C59.3659 47.1993 58.9955 47.4417 58.6012 47.6499C58.4936 47.708 58.3742 47.7455 58.2649 47.7984C57.9321 47.9555 57.5924 48.1005 57.2374 48.2149C57.1059 48.2576 56.9694 48.2866 56.8362 48.3224C56.4146 48.4351 55.9896 48.5358 55.5441 48.5836C55.5014 48.5597 55.4571 48.5426 55.4144 48.5187C54.5934 48.0493 53.7126 47.6755 52.7841 47.4093C52.6595 47.3734 52.5332 47.3444 52.4068 47.312C52.0586 47.2249 51.7036 47.1532 51.3434 47.0969C51.212 47.0764 51.0806 47.0525 50.9474 47.0354C50.4832 46.9791 50.0121 46.9416 49.5341 46.9399C49.5256 46.9399 49.5171 46.9382 49.5085 46.9382C48.7268 46.3527 48.0662 45.646 47.5354 44.8574L47.4261 44.6868C46.7519 43.6319 46.3286 42.4661 46.1681 41.2218L46.1391 41.022C46.1067 40.7233 46.0862 40.4195 46.0862 40.1123C46.0862 35.4064 49.9148 31.5778 54.6207 31.5778C59.3266 31.5778 63.1552 35.4064 63.1552 40.1123C63.1552 40.6448 63.1023 41.1654 63.0084 41.6707ZM56.9472 62.9966C56.7936 63.2783 56.6178 63.5463 56.4334 63.8074C56.3754 63.8893 56.3191 63.973 56.2576 64.0549C56.0937 64.2717 55.9128 64.4765 55.7268 64.6762C55.6312 64.7786 55.539 64.8845 55.4383 64.9818C55.2659 65.1507 55.0816 65.3044 54.8955 65.4597C54.7692 65.5638 54.6446 65.6713 54.5114 65.7686C54.3288 65.9035 54.1325 66.0213 53.9379 66.1424C53.7877 66.2346 53.6409 66.3319 53.4856 66.4138C53.4395 66.4377 53.3883 66.4565 53.3422 66.4787C53.3166 66.4599 53.2876 66.4463 53.262 66.4275C52.2993 65.7004 51.2274 65.1183 50.0701 64.7069C49.995 64.6796 49.9233 64.6506 49.8482 64.625C49.3071 64.4458 48.7507 64.3058 48.1789 64.2034C48.0713 64.1846 47.9638 64.1693 47.8546 64.1539C47.2776 64.0686 46.6887 64.0088 46.0862 64.0088C45.4615 64.0088 44.8385 64.0583 44.224 64.1556C44.2325 64.0993 44.2291 64.043 44.2376 63.9866C44.3213 63.4285 44.3793 62.8669 44.3793 62.3019C44.3793 61.8359 44.3452 61.3785 44.294 60.9262C44.2769 60.7725 44.2479 60.6206 44.224 60.467C44.1779 60.1683 44.1233 59.873 44.055 59.5811C44.0157 59.4104 43.9714 59.2398 43.9236 59.0708C43.8433 58.7823 43.7495 58.5024 43.6471 58.2224C43.5941 58.0791 43.5463 57.9323 43.4883 57.7906C43.3176 57.3724 43.1282 56.9662 42.9131 56.5736C42.9114 56.5702 42.9097 56.5668 42.908 56.5633C42.9967 56.4985 43.0718 56.4148 43.1589 56.3466C43.531 56.0581 43.8877 55.7577 44.2189 55.4317C44.3008 55.3497 44.3759 55.2627 44.4561 55.179C44.7992 54.8206 45.1218 54.4468 45.4154 54.0508C45.4666 53.9808 45.5144 53.9108 45.5639 53.8408C45.8746 53.4056 46.1528 52.9515 46.402 52.477C46.4259 52.4309 46.4515 52.3832 46.4754 52.3371C46.7399 51.8148 46.9687 51.2771 47.1547 50.7172C47.1564 50.7104 47.1598 50.7053 47.1633 50.6984C47.945 50.4697 48.7268 50.3537 49.5 50.3537C50.024 50.3537 50.531 50.4168 51.0294 50.509C51.1779 50.5363 51.3247 50.5721 51.4715 50.6063C51.8384 50.6933 52.1969 50.806 52.5434 50.9391C52.6731 50.9886 52.8063 51.0313 52.9343 51.0876C53.3968 51.2924 53.8441 51.528 54.2588 51.8079L54.2708 51.8165C54.6463 52.0708 54.986 52.3712 55.3171 52.6802C55.6363 52.9806 55.9179 53.31 56.1859 53.6497C56.273 53.7606 56.372 53.8579 56.4522 53.974C56.7355 54.3751 56.9728 54.8035 57.1844 55.2439C57.2203 55.3207 57.2715 55.389 57.3056 55.4658C57.5258 55.9642 57.6897 56.4831 57.8109 57.0157C57.8194 57.0532 57.8365 57.0874 57.845 57.1249C57.9611 57.6711 58.0174 58.2327 58.0225 58.7977L57.9867 59.3968C57.9133 60.6309 57.5702 61.8052 57.0172 62.8584C56.9967 62.9045 56.9728 62.9505 56.9472 62.9966ZM33.1718 69.8891C32.8117 69.7542 32.4447 69.6382 32.0692 69.5392C31.9685 69.5119 31.8695 69.4863 31.7671 69.4624C31.4188 69.3804 31.0655 69.3156 30.7071 69.2644C30.5995 69.249 30.4954 69.2285 30.3879 69.2149C29.9373 69.1636 29.4815 69.1295 29.0172 69.1295C28.5308 69.1295 28.0255 69.1654 27.4896 69.2405C27.4298 69.1978 27.3701 69.1551 27.3103 69.1107C27.3103 68.7233 27.2899 68.3375 27.2506 67.9552C27.225 67.6974 27.1806 67.4448 27.1379 67.1905C27.1175 67.071 27.1072 66.9498 27.0833 66.832C27.0219 66.518 26.9417 66.2107 26.8563 65.9052C26.8409 65.8506 26.8307 65.7942 26.8136 65.7396C26.7181 65.4153 26.6037 65.0995 26.4825 64.7872C26.4688 64.7513 26.4569 64.7138 26.4432 64.6779C26.3169 64.3656 26.1753 64.0617 26.0233 63.763C26.0046 63.7255 25.9875 63.6879 25.9687 63.6504C25.8202 63.3619 25.6564 63.0837 25.484 62.8106C25.4532 62.7611 25.4259 62.7099 25.3935 62.6621C25.2262 62.4026 25.0453 62.1551 24.8592 61.9093C24.8132 61.8496 24.7705 61.7882 24.7244 61.7284C24.5401 61.4963 24.3455 61.2744 24.1441 61.0559C24.1014 61.0098 24.0638 60.9586 24.0194 60.9125C24.1202 60.298 24.2891 59.6972 24.523 59.1169C24.9975 58.8557 25.4464 58.5536 25.88 58.231C25.9192 58.202 25.9585 58.1729 25.9977 58.1439C26.8563 57.4902 27.621 56.7255 28.2747 55.8669C28.3055 55.8277 28.3345 55.7884 28.3635 55.7474C28.681 55.3207 28.978 54.8769 29.2374 54.4092C29.2784 54.3922 29.3177 54.3751 29.3586 54.358C29.8041 54.1839 30.2582 54.0457 30.719 53.9501C30.7958 53.9347 30.8743 53.9245 30.9529 53.9108C31.4393 53.8238 31.9309 53.7674 32.431 53.7674C32.9738 53.7674 33.5013 53.8306 34.0167 53.9279C34.0833 53.9398 34.1516 53.9484 34.2164 53.962C34.7046 54.0662 35.1774 54.2181 35.6315 54.4024C35.7083 54.4331 35.7834 54.4656 35.8585 54.498C36.304 54.6943 36.7324 54.9247 37.1352 55.191C37.1967 55.232 37.2564 55.2798 37.3179 55.3224C37.678 55.575 38.016 55.8567 38.3318 56.1605C38.3881 56.2151 38.4478 56.2612 38.5025 56.3175C38.8012 56.6214 39.064 56.9576 39.3149 57.3024C39.4532 57.4919 39.5761 57.6899 39.6973 57.8879C39.8526 58.1422 39.996 58.4034 40.124 58.6748C40.2111 58.8574 40.2947 59.0418 40.3681 59.2312C40.4944 59.5572 40.5951 59.8935 40.6805 60.2366C40.7214 60.397 40.7709 60.5541 40.8017 60.7162C40.9024 61.2317 40.9655 61.7591 40.9655 62.3019C40.9655 62.8157 40.9058 63.3295 40.8051 63.8398C40.759 64.072 40.6736 64.3024 40.6071 64.5328C40.5149 64.852 40.4381 65.1712 40.3067 65.487C38.3608 66.5572 36.77 68.1788 35.6776 70.1554C35.314 70.3124 34.9658 70.4387 34.6312 70.536C34.2216 70.3175 33.7948 70.128 33.3596 69.9574C33.2981 69.9335 33.235 69.913 33.1718 69.8891ZM30.7241 48.6468C30.7241 48.1159 30.6781 47.597 30.6098 47.0849C30.5944 46.9723 30.5773 46.8613 30.5586 46.7504C30.4801 46.2605 30.3776 45.7809 30.2411 45.3115C30.2343 45.2876 30.2291 45.2637 30.2223 45.2398C30.0687 44.7226 29.8758 44.2225 29.6556 43.736C29.6232 43.666 29.5873 43.5978 29.5549 43.5261C29.3501 43.0959 29.1214 42.6794 28.8687 42.2783C28.8431 42.2374 28.8244 42.1896 28.7971 42.1486C29.0463 41.7919 29.3296 41.4454 29.6437 41.1142C29.7376 41.0801 29.8263 41.0357 29.9202 40.9981C30.1182 40.9213 30.3145 40.8394 30.5091 40.7524C30.6661 40.6807 30.8214 40.6056 30.9768 40.527C31.1713 40.4298 31.3608 40.3273 31.5486 40.2181C31.6988 40.1328 31.8456 40.0423 31.9907 39.9484C32.1682 39.8358 32.344 39.718 32.5147 39.5968C32.6649 39.4893 32.8117 39.3783 32.9585 39.2656C33.1121 39.1445 33.2623 39.0216 33.4091 38.8953C33.4842 38.8304 33.5661 38.7724 33.6395 38.7058C34.7558 38.402 35.8756 38.361 36.9543 38.501C37.3093 38.547 37.6627 38.6102 38.0058 38.7007C38.1372 38.7348 38.2669 38.7741 38.3949 38.8133C38.7756 38.9328 39.1477 39.0762 39.5078 39.2486C39.5744 39.2793 39.6427 39.3083 39.7075 39.3408C40.6088 39.8016 41.4332 40.4212 42.1347 41.1876L42.2423 41.3054C42.4488 41.5426 42.6571 41.7799 42.8363 42.0428C42.8619 42.2015 42.9028 42.3551 42.9353 42.5105C43.0018 42.8382 43.0804 43.1608 43.1742 43.4783C43.2511 43.7411 43.3296 44.004 43.4252 44.2617C43.5003 44.4631 43.5873 44.6577 43.6727 44.854C43.758 45.0503 43.8468 45.2432 43.9423 45.4361C44.0448 45.6409 44.1506 45.8423 44.2632 46.0403C44.2888 46.0847 44.3093 46.1325 44.3366 46.1769C44.3622 46.4295 44.3793 46.6838 44.3793 46.9399C44.3793 47.5134 44.3093 48.0749 44.2001 48.6229L44.1147 48.9711C43.6795 50.7445 42.6895 52.3063 41.3257 53.4585C41.2813 53.496 41.2352 53.5319 41.1908 53.5694C41.0782 53.6599 40.9433 53.7248 40.8256 53.8101C40.5661 53.5541 40.2964 53.3066 40.0148 53.0744C39.7297 52.8389 39.4327 52.6187 39.1289 52.4122C39.1221 52.407 39.1152 52.4019 39.1084 52.3968C38.1474 51.7448 37.0994 51.2412 35.9933 50.8964C35.9899 50.8947 35.9848 50.893 35.9814 50.8913C35.6502 50.7889 35.314 50.7053 34.9726 50.6319C34.9231 50.6216 34.877 50.6063 34.8275 50.596C34.5152 50.5329 34.1977 50.4902 33.8802 50.4509C33.8 50.4407 33.7214 50.4236 33.6412 50.4151C33.2418 50.3741 32.8373 50.3537 32.431 50.3537C31.8729 50.3537 31.3216 50.4066 30.7771 50.4817C30.7122 50.4902 30.6439 50.4868 30.5791 50.497C30.5876 50.4407 30.5842 50.3844 30.5927 50.328C30.6695 49.7784 30.7241 49.2186 30.7241 48.6468ZM36.8536 25.8512C38.3301 23.0877 41.2147 21.3364 44.3793 21.3364C48.551 21.3364 52.033 24.3457 52.7704 28.3074C52.709 28.3176 52.6509 28.3398 52.5895 28.35C52.0603 28.4405 51.538 28.5566 51.0362 28.7153C51.0038 28.7256 50.9713 28.7409 50.9389 28.7512C50.4627 28.9065 50.0035 29.096 49.5546 29.3076C49.4437 29.3588 49.3344 29.4117 49.2252 29.4664C48.7626 29.7019 48.3137 29.9597 47.887 30.2498C47.8392 30.2823 47.7965 30.3198 47.7487 30.3522C47.363 30.6236 46.9977 30.9206 46.6478 31.2364C46.559 31.3149 46.472 31.3934 46.3849 31.4754C46.0145 31.8287 45.6629 32.2025 45.3386 32.6002C45.2908 32.6583 45.2498 32.7214 45.2037 32.7812C44.9221 33.143 44.6627 33.5202 44.4237 33.9128C44.3639 34.0101 44.3025 34.1057 44.2462 34.2064C43.9901 34.6536 43.7614 35.1162 43.5634 35.5958C43.5293 35.6812 43.502 35.7682 43.4678 35.8536C43.304 36.2803 43.1674 36.7173 43.0531 37.1645C43.0343 37.2362 43.0036 37.301 42.9865 37.3727C42.0938 36.7036 41.1106 36.1813 40.0745 35.787C39.9772 35.7494 39.8782 35.717 39.7775 35.6829C39.2928 35.5122 38.7978 35.3739 38.2908 35.2681C38.1935 35.2476 38.0996 35.222 38.0023 35.2049C37.8965 35.1862 37.7941 35.152 37.6866 35.135C37.364 34.7321 37.084 34.3139 36.8502 33.8855C36.8638 33.8463 36.869 33.8036 36.8826 33.7643C37.0772 33.201 37.2342 32.6207 37.3435 32.0216C37.3623 31.9226 37.3725 31.8236 37.3896 31.7246C37.4886 31.1203 37.5517 30.5042 37.5517 29.8709C37.5517 29.2376 37.4886 28.6214 37.393 28.0155C37.3776 27.9148 37.3657 27.8158 37.3469 27.7168C37.2377 27.1177 37.0806 26.5373 36.8843 25.9723C36.8707 25.9314 36.8673 25.8904 36.8536 25.8512ZM25.6034 21.3364C29.1111 21.3364 32.1289 23.4683 33.4381 26.5015C33.6429 26.9794 33.7914 27.471 33.9075 27.9694C33.9212 28.0274 33.9485 28.0804 33.9604 28.1401C34.0782 28.7068 34.1379 29.2854 34.1379 29.8709C34.1379 30.4564 34.0782 31.035 33.9604 31.6017C33.9485 31.6614 33.9212 31.7126 33.9075 31.7724C33.7931 32.2708 33.6446 32.7624 33.4381 33.2403C32.81 34.6929 31.7858 35.9304 30.5074 36.8333C30.4186 36.8965 30.3281 36.9596 30.2377 37.0177C29.8451 37.2737 29.432 37.5024 28.9985 37.6919C28.9217 37.7243 28.8431 37.7499 28.7663 37.7824C27.7849 38.1749 26.7215 38.4054 25.6034 38.4054C25.3474 38.4054 25.0965 38.39 24.8473 38.3644C24.8063 38.3405 24.7619 38.32 24.7193 38.2961C24.5076 38.1732 24.2908 38.0606 24.0707 37.9513C23.9546 37.8933 23.8385 37.837 23.7224 37.7824C23.4971 37.6799 23.2701 37.5861 23.038 37.4973C22.9253 37.4546 22.811 37.412 22.6966 37.3727C22.4474 37.2857 22.1965 37.2071 21.9404 37.1372C21.8466 37.1115 21.7544 37.0877 21.6605 37.0655C21.3789 36.9955 21.0955 36.934 20.8054 36.8845C20.7798 36.8794 20.7559 36.8726 20.7303 36.8692C18.4311 35.2681 17.069 32.677 17.069 29.8709C17.069 25.165 20.8975 21.3364 25.6034 21.3364ZM10.2414 48.6468C10.2414 43.9408 14.0699 40.1123 18.7759 40.1123C19.2794 40.1123 19.7659 40.1771 20.2455 40.2608C20.3838 40.2847 20.522 40.3069 20.6586 40.3376C21.0938 40.4366 21.5154 40.568 21.9217 40.7302C22.0377 40.7763 22.1521 40.8258 22.2665 40.877C22.7 41.0733 23.1216 41.2917 23.5125 41.5546L23.5603 41.5853C24.3711 42.1367 25.0641 42.8382 25.6444 43.6268C25.7724 43.8009 25.8919 43.9801 26.0063 44.161C26.177 44.4358 26.3323 44.7226 26.4706 45.0162C26.5508 45.1852 26.6327 45.3542 26.7027 45.5283C26.8375 45.8713 26.9417 46.2281 27.0321 46.5899C27.0697 46.7402 27.1192 46.8869 27.1482 47.0389C27.2472 47.5612 27.3103 48.0971 27.3103 48.6468C27.3103 49.1742 27.2472 49.6863 27.155 50.1881C27.1379 50.2768 27.1294 50.3656 27.1089 50.4527C27.0168 50.8777 26.8785 51.2856 26.7249 51.685C26.66 51.854 26.5934 52.0213 26.5166 52.1869C26.4125 52.4139 26.2845 52.6255 26.1616 52.8423C26.0285 53.0744 25.9073 53.3134 25.7537 53.5319C25.6137 53.7316 25.4464 53.9074 25.2894 54.0935C24.9651 54.4809 24.6083 54.8377 24.2209 55.162C24.0348 55.3173 23.8607 55.4846 23.661 55.6228C23.4408 55.7782 23.2001 55.9011 22.9646 56.0342C21.7237 56.7443 20.3052 57.1812 18.7759 57.1812C14.0699 57.1812 10.2414 53.3527 10.2414 48.6468ZM7.8961 73.2534C7.19457 71.9954 6.82759 70.5906 6.82759 69.1295C6.82759 64.4236 10.6562 60.595 15.3621 60.595C17.6152 60.595 19.6549 61.4894 21.1809 62.9232C21.5001 63.2219 21.7817 63.5514 22.048 63.891C22.135 64.002 22.2357 64.101 22.3177 64.2171C22.5993 64.6148 22.8349 65.0415 23.0448 65.4802C23.0824 65.5587 23.1353 65.6304 23.1694 65.7106C23.3879 66.2056 23.5518 66.7245 23.6729 67.2519C23.6815 67.2912 23.7003 67.3287 23.7088 67.368C23.8317 67.9432 23.8966 68.5338 23.8966 69.1295C23.8966 69.5238 23.8624 69.9266 23.7958 70.3482C22.9322 70.7715 22.1402 71.3195 21.4011 71.9357C21.2577 72.0534 21.1058 72.161 20.9692 72.2873C20.7371 72.4989 20.5288 72.7345 20.3138 72.9649C20.1277 73.1629 19.9366 73.3558 19.7642 73.5657C19.5901 73.7808 19.4347 74.0095 19.276 74.2365C19.1497 74.4158 19.0046 74.5813 18.8885 74.7674C18.851 74.7401 18.8083 74.7213 18.769 74.6957C18.3526 74.4055 17.9173 74.141 17.465 73.9037C17.3318 73.8337 17.1953 73.7723 17.0604 73.7074C16.6627 73.5179 16.2548 73.349 15.8349 73.2039C15.7376 73.1697 15.6454 73.1288 15.5464 73.098C15.0497 72.941 14.5359 72.8249 14.0136 72.7328C13.8788 72.7089 13.7422 72.6901 13.6074 72.6713C13.0612 72.5962 12.5116 72.5433 11.9483 72.5433C11.3099 72.5433 10.6869 72.6082 10.0758 72.7055C9.9751 72.7208 9.8744 72.7328 9.7754 72.7515C9.17286 72.8625 8.5891 73.0229 8.02071 73.2209C7.97974 73.2346 7.93707 73.238 7.8961 73.2534ZM11.9483 93.0261C7.24236 93.0261 3.41379 89.1975 3.41379 84.4916C3.41379 81.0812 5.43817 78.1522 8.33819 76.7884C8.55838 76.6859 8.78198 76.5938 9.00729 76.5118C9.24114 76.4248 9.4801 76.3548 9.72248 76.2882C9.99559 76.2165 10.2687 76.1432 10.5452 76.0988C10.7091 76.0715 10.8815 76.0663 11.0487 76.0476C12.1958 75.9332 13.3513 76.0407 14.4455 76.3736C14.5496 76.406 14.6537 76.435 14.7561 76.4709C15.0736 76.5801 15.3843 76.7115 15.6881 76.8583C15.8639 76.9454 16.0346 77.0393 16.2019 77.1383C16.4374 77.2731 16.673 77.408 16.8949 77.565C17.1526 77.7493 17.3899 77.9559 17.6237 78.1675C17.7551 78.2853 17.9002 78.3877 18.0248 78.5157C18.1938 78.6864 18.3304 78.8861 18.484 79.0722C18.7008 79.3333 18.9209 79.5911 19.1036 79.8727C19.2299 80.069 19.3272 80.2824 19.4381 80.4889C19.5815 80.7535 19.7334 81.0146 19.8478 81.2929C19.9587 81.566 20.0304 81.8578 20.1141 82.1463C20.1806 82.3784 20.2694 82.6055 20.3172 82.8427C20.4213 83.3753 20.4828 83.9266 20.4828 84.4916C20.4828 85.0327 20.4196 85.5584 20.3223 86.0722C20.2677 86.3521 20.1755 86.6269 20.0919 86.9034C20.0048 87.1987 19.9366 87.5008 19.8188 87.7825L19.8051 87.8217C18.5062 90.8771 15.473 93.0261 11.9483 93.0261ZM29.0172 89.6123C26.9604 89.6123 25.0299 88.892 23.4869 87.5657C23.4954 87.5333 23.4988 87.4991 23.5074 87.465C23.6115 87.0588 23.6951 86.6457 23.7566 86.2258C23.7719 86.1285 23.789 86.0312 23.801 85.9339C23.8573 85.4611 23.8966 84.9815 23.8966 84.4916C23.8966 83.889 23.8368 83.3002 23.7498 82.7215C23.7327 82.6123 23.719 82.5048 23.7003 82.3955C23.5996 81.8254 23.4596 81.269 23.2804 80.7296C23.2548 80.6528 23.224 80.5777 23.1967 80.5026C22.7854 79.347 22.2033 78.2768 21.4779 77.3141C21.4659 77.2987 21.4574 77.2799 21.4454 77.2646C21.5427 77.0734 21.623 76.8703 21.7339 76.6877C21.7885 76.5972 21.838 76.505 21.8961 76.418C22.1948 75.9656 22.5293 75.5389 22.9083 75.1514C22.9356 75.1224 22.9663 75.0985 22.9936 75.0712C23.3947 74.6735 23.83 74.3082 24.3062 73.9942L24.3113 73.989C24.8097 73.6596 25.3457 73.3797 25.9124 73.1578L26.0387 73.1083C26.5064 72.9308 26.9894 72.7942 27.4862 72.702C27.7046 72.6611 27.9078 72.6338 28.1041 72.6099C28.4079 72.5757 28.71 72.5433 29.0172 72.5433C29.531 72.5433 30.0277 72.6082 30.5159 72.6952C30.6695 72.7225 30.8231 72.755 30.9751 72.7925C31.3403 72.8796 31.6954 72.9922 32.0402 73.1237C32.1631 73.1714 32.2911 73.2039 32.4123 73.2585C33.3664 73.675 34.2284 74.2604 34.9641 74.9773C35.2662 75.2709 35.5205 75.5969 35.7714 75.9247C35.8653 76.0476 35.978 76.1517 36.065 76.2797C36.2596 76.563 36.403 76.8737 36.5617 77.1758C37.1728 78.3502 37.5517 79.6645 37.5517 81.0778C37.5517 81.595 37.4869 82.0951 37.3998 82.5867C37.381 82.6908 37.3691 82.7932 37.3469 82.8973C36.5088 86.731 33.0967 89.6123 29.0172 89.6123ZM46.0862 84.4916C44.1745 84.4916 42.3481 83.8566 40.8529 82.6891C40.858 82.655 40.8563 82.6208 40.8597 82.5867C40.9228 82.0917 40.9655 81.5899 40.9655 81.0778C40.9655 80.6852 40.9433 80.296 40.9058 79.9103C40.8955 79.8079 40.8768 79.7089 40.8648 79.6064C40.8307 79.3214 40.7897 79.038 40.7351 78.7581C40.7146 78.6557 40.689 78.555 40.6651 78.4526C40.6037 78.1761 40.5354 77.903 40.4534 77.6333C40.4244 77.5394 40.3937 77.4472 40.363 77.355C40.2742 77.0837 40.1769 76.8174 40.0694 76.5528C40.0336 76.464 39.9943 76.3753 39.955 76.2865C39.8441 76.0322 39.7229 75.783 39.5932 75.5355C39.5437 75.4399 39.4925 75.346 39.4396 75.2539C39.3132 75.0303 39.1801 74.8118 39.0401 74.5967C38.9684 74.4875 38.8985 74.3765 38.8234 74.269C38.6971 74.088 38.5622 73.9122 38.4257 73.7364C38.3232 73.6067 38.2225 73.4753 38.115 73.349C38.0774 73.3046 38.045 73.2585 38.0075 73.2158C38.0792 73.0025 38.1816 72.8062 38.2686 72.6013L38.4615 72.2088C39.2893 70.5258 40.6702 69.1432 42.3515 68.317L42.7987 68.0968C42.9233 68.0456 43.0445 67.9876 43.1725 67.9432C43.4422 67.8442 43.717 67.7725 43.9918 67.7043C44.1335 67.6684 44.2735 67.6309 44.4186 67.6018C44.6678 67.5523 44.9187 67.5199 45.1696 67.4943C45.3352 67.4772 45.5007 67.4636 45.668 67.455C45.907 67.4448 46.1442 67.4431 46.3832 67.4516C46.7109 67.4636 47.0318 67.5011 47.3493 67.5489C47.6856 67.6001 48.015 67.6718 48.3427 67.7623C48.5885 67.8306 48.8343 67.9005 49.0716 67.9893C49.2969 68.0729 49.5171 68.1685 49.7338 68.2709C49.9848 68.3904 50.2271 68.5253 50.4644 68.6686C50.6266 68.7659 50.7955 68.853 50.9526 68.9605C51.2974 69.2012 51.6148 69.4726 51.9204 69.7594C52.243 70.0632 52.5229 70.396 52.7909 70.7357C52.8831 70.8535 52.9889 70.9576 53.0759 71.0805C53.2978 71.3963 53.4719 71.7359 53.6478 72.0756C53.7365 72.2497 53.8492 72.4085 53.9277 72.5894C54.0677 72.9103 54.153 73.2534 54.2503 73.5913C54.3117 73.803 54.4005 74.0027 54.4466 74.2212C54.5575 74.7862 54.6207 75.3665 54.6207 75.9571C54.6207 80.663 50.7921 84.4916 46.0862 84.4916ZM63.1552 77.664C61.3032 77.664 59.5127 77.058 58.0345 75.9434C58.0345 75.9349 58.0328 75.9281 58.0328 75.9213C58.0311 75.3563 57.9782 74.8032 57.8996 74.2587C57.8843 74.1597 57.8706 74.0607 57.8536 73.9617C57.6538 72.7874 57.2852 71.6711 56.7697 70.6384C56.7611 70.6213 56.7526 70.6043 56.7441 70.5872C56.4693 70.0461 56.1569 69.5289 55.807 69.0373C55.8053 69.0339 55.8036 69.0305 55.8019 69.0271C56.6178 68.5184 57.3534 67.9074 58.0157 67.2263C58.1301 67.1085 58.2393 66.9874 58.3485 66.8662C58.6046 66.5811 58.8435 66.2841 59.0706 65.9769C59.1713 65.8403 59.2788 65.7106 59.3727 65.5706C59.6338 65.1832 59.8711 64.7803 60.0845 64.3656C60.2108 64.1232 60.3166 63.8706 60.4258 63.6196C60.5095 63.4251 60.5914 63.2288 60.6648 63.0291C60.7792 62.7218 60.8867 62.4146 60.9772 62.0971C60.9908 62.0476 60.9994 61.9981 61.013 61.9486C61.1035 61.6106 61.1939 61.2727 61.2554 60.9262C61.8938 60.7623 62.6909 60.595 63.1552 60.595C63.7202 60.595 64.2715 60.6565 64.8057 60.7623C65.0413 60.8084 65.2649 60.8954 65.4936 60.962C65.7838 61.0457 66.0791 61.1173 66.3556 61.23C66.627 61.3409 66.883 61.4911 67.1425 61.6311C67.3558 61.7455 67.576 61.8445 67.7774 61.9759C68.0523 62.1551 68.3049 62.3702 68.5609 62.5819C70.4556 64.1471 71.6897 66.4855 71.6897 69.1295C71.6897 73.8354 67.8611 77.664 63.1552 77.664ZM75.1034 52.0605C75.1034 55.2763 73.2583 58.2207 70.4283 59.6614C70.3975 59.6375 70.3634 59.6221 70.3327 59.5999C69.37 58.8728 68.298 58.2907 67.1408 57.8794C67.0657 57.852 66.994 57.823 66.9189 57.7974C66.3778 57.6182 65.8213 57.4782 65.2495 57.3758C65.142 57.357 65.0345 57.3417 64.9252 57.3263C64.3466 57.241 63.7577 57.1812 63.1552 57.1812C63.1142 57.1812 62.9606 57.1949 62.7643 57.2154C62.2881 57.2307 61.8136 57.2666 61.3424 57.34C61.3373 57.3041 61.3254 57.2683 61.3203 57.2324C61.2571 56.7818 61.1683 56.3414 61.0574 55.9096C61.0369 55.8328 61.0198 55.756 60.9977 55.6792C60.7092 54.6465 60.2859 53.6736 59.7465 52.774C59.7175 52.7245 59.6885 52.6767 59.6577 52.6289C59.3761 52.1749 59.0757 51.7328 58.7377 51.3215C58.7855 51.3044 58.8282 51.2788 58.8743 51.2617C59.2396 51.1235 59.5946 50.9664 59.9411 50.7957C59.994 50.7684 60.0452 50.7411 60.0981 50.7138C60.4736 50.5192 60.8372 50.3076 61.1888 50.0771C61.1957 50.072 61.2025 50.0686 61.2093 50.0635C63.517 48.5375 65.2615 46.2451 66.0688 43.5448C70.9557 43.2376 75.1034 47.1891 75.1034 52.0605ZM78.6026 26.5424C87.5279 27.3908 94.6525 34.5154 95.5009 43.4407C86.5755 42.5924 79.4509 35.4678 78.6026 26.5424Z" fill="#C5A042"/>
</g>
<defs>
<clipPath id="clip0_174_940">
<rect width="99" height="99" fill="white"/>
</clipPath>
</defs>
</svg>
