<svg width="94" height="86" viewBox="0 0 94 86" fill="none" xmlns="http://www.w3.org/2000/svg">
<g opacity="0.78">
<path fill-rule="evenodd" clip-rule="evenodd" d="M94 35.3512C94 38.6631 92.977 41.8899 91.0374 44.6823C90.1429 45.9699 90.0849 47.6069 90.8855 48.9543C92.684 51.9781 93.353 55.4505 92.8203 58.9953C91.78 65.9149 85.9301 72.0789 78.2597 74.3345C74.9478 75.3104 71.6139 75.5607 68.3427 75.0917C66.4549 74.8146 64.296 75.6473 62.9565 77.1411C58.6059 81.9939 51.7204 85.0492 44.5325 85.3136C44.2098 85.3262 43.8902 85.3325 43.5721 85.3325C34.1016 85.3325 26.3153 80.1161 24.8755 72.6818L24.8364 72.463C24.1596 68.6852 21.114 65.5796 16.4813 63.9709C8.9629 61.3564 0 56.9348 0 50.7235C0 46.0423 2.5051 41.627 7.05 38.2916C10.5954 35.6912 11.8706 32.211 10.4669 28.9825C9.27937 26.2578 8.95037 23.4529 9.48617 20.6447C11.0262 12.5698 19.9578 6.75832 30.774 6.75832C30.8179 6.75832 30.861 6.75871 30.9041 6.75911C30.9471 6.7595 30.9902 6.7599 31.0341 6.7599C33.4718 6.78036 35.8814 7.081 38.1969 7.64767C41.1219 8.36544 44.0782 7.68387 45.3707 5.98703C48.6419 1.69613 54.6485 -0.384788 61.0452 0.554929C68.7344 1.68511 73.4876 5.47074 75.5776 12.129C76.3985 14.7404 78.5746 16.9976 81.3993 18.1656C89.054 21.3294 94 28.0759 94 35.3512ZM77.3792 71.3123C83.9013 69.3951 88.8613 64.2574 89.7214 58.5246C90.1444 55.7086 89.6165 52.9571 88.1955 50.5709C86.7542 48.1484 86.8591 45.2033 88.4681 42.8831C90.0379 40.6228 90.8667 38.0193 90.8667 35.3544C90.8667 29.3603 86.6821 23.7567 80.2071 21.0807C76.5348 19.5618 73.685 16.5726 72.5884 13.0798C70.8744 7.61304 67.0627 4.62389 60.5924 3.67315C55.3096 2.90344 50.4373 4.52157 47.8585 7.90582C45.7984 10.6022 41.6154 11.7292 37.4543 10.7092C35.3722 10.1992 33.2024 9.93006 31.0059 9.9096C30.9669 9.9096 30.928 9.90921 30.8888 9.90882C30.8492 9.90842 30.8095 9.90803 30.7693 9.90803C21.4571 9.90803 13.8196 14.6475 12.5647 21.2397C12.1479 23.4119 12.408 25.592 13.337 27.7217C15.3424 32.329 13.6425 37.3534 8.89867 40.8353C5.18097 43.5615 3.13333 47.0749 3.13333 50.7235C3.13333 54.0259 8.507 57.8666 17.5075 60.9943C23.2415 62.9871 27.0391 66.9742 27.9258 71.9309C29.1447 78.2335 36.1195 82.4945 44.4181 82.1687C50.7772 81.9341 56.8371 79.2661 60.63 75.035C62.6729 72.7573 65.8799 71.5547 68.7908 71.975C71.6092 72.3843 74.5044 72.1592 77.3792 71.3123ZM37.6 43.6197C37.6 31.9008 47.0877 22.3699 58.75 22.3699C70.4123 22.3699 79.9 31.9024 79.9 43.6197C79.9 55.3371 70.4123 64.8696 58.75 64.8696C47.0877 64.8696 37.6 55.3387 37.6 43.6197ZM40.7333 43.6197C40.7333 53.6009 48.8158 61.7215 58.75 61.7215C68.6842 61.7215 76.7667 53.6009 76.7667 43.6197C76.7667 33.6386 68.6842 25.518 58.75 25.518C48.8158 25.518 40.7333 33.6386 40.7333 43.6197ZM58.75 28.6662C57.2585 28.6662 55.7843 28.8881 54.3727 29.3241C53.5455 29.5807 53.0818 30.4622 53.3356 31.2917C53.544 31.9686 54.1628 32.403 54.8333 32.403C54.9853 32.403 55.1404 32.381 55.2939 32.3337C56.4078 31.989 57.5703 31.8143 58.75 31.8143C59.6164 31.8143 60.3167 31.1107 60.3167 30.2402C60.3167 29.3698 59.6164 28.6662 58.75 28.6662ZM43.8667 43.6197C43.8667 39.2013 45.7952 35.0348 49.1604 32.1842C49.8231 31.6238 50.8101 31.7088 51.3679 32.3746C51.9256 33.0389 51.841 34.0321 51.1799 34.5925C48.5244 36.8418 47 40.1316 47 43.6197C47 44.4902 46.2997 45.1938 45.4333 45.1938C44.567 45.1938 43.8667 44.4902 43.8667 43.6197ZM25.9926 15.433C25.6401 14.6397 24.7173 14.284 23.9246 14.6334C20.6205 16.1114 17.9274 18.4237 15.9236 21.5089C15.4489 22.2377 15.6541 23.2121 16.3779 23.6874C16.6411 23.8606 16.9388 23.944 17.2318 23.944C17.7425 23.944 18.2438 23.6937 18.5446 23.2309C20.2131 20.6621 22.4519 18.7386 25.1967 17.5108C25.9879 17.1566 26.3419 16.2248 25.9926 15.433ZM34.2386 16.0566C34.0946 16.0399 32.7199 15.8804 30.7866 16.0658C29.9155 16.1476 29.1588 15.5164 29.0758 14.6523C28.9912 13.7865 29.621 13.0168 30.4826 12.9334C32.8794 12.702 34.5659 12.9255 34.6806 12.9407L34.6844 12.9413C35.5414 13.0625 36.1383 13.8589 36.0177 14.7199C35.908 15.507 35.2359 16.0736 34.4682 16.0736C34.3962 16.0736 34.3241 16.0689 34.2505 16.0579L34.2386 16.0566ZM40.5391 74.1929L40.3056 74.2196C36.6553 74.621 33.3261 72.1198 32.7057 68.5136C32.5585 67.6558 31.7469 67.0891 30.8962 67.2308C30.0424 67.3787 29.4721 68.1925 29.6194 69.0488C30.456 73.919 34.6938 77.4103 39.5427 77.4103C39.9155 77.4103 40.2931 77.3898 40.6738 77.3473L40.9292 77.3174C41.7877 77.2104 42.3971 76.4233 42.289 75.5607C42.1809 74.6981 41.407 74.0843 40.5391 74.1929ZM31.0372 64.0464C31.49 64.7894 31.2581 65.7574 30.5202 66.2108C30.2649 66.3682 29.9829 66.4437 29.704 66.4437C29.176 66.4437 28.6622 66.1761 28.3661 65.6913C27.2522 63.8638 25.8725 62.9659 25.8171 62.9299L25.8155 62.9288C25.0761 62.4755 24.8442 61.5075 25.297 60.7661C25.7482 60.0247 26.7148 59.7854 27.4496 60.2451C27.5342 60.2954 29.5003 61.5216 31.0372 64.0464Z" fill="#C5A042"/>
</g>
</svg>
