<svg width="79" height="70" viewBox="0 0 79 70" fill="none" xmlns="http://www.w3.org/2000/svg">
<g opacity="0.78">
<path d="M70.5151 3.63529C71.3002 3.63529 71.6764 4.67309 71.7418 5.15081C71.8418 6.00293 72.2155 6.7988 72.806 7.41731C73.3965 8.03583 74.1714 8.44311 75.0129 8.5772C75.2197 8.64244 75.3992 8.77478 75.5235 8.95358C75.6477 9.13237 75.7097 9.34756 75.6998 9.56558C75.7838 9.93417 75.7838 10.3171 75.6998 10.6857C75.4811 10.8181 75.2346 10.8971 74.9802 10.9164C74.6862 10.9394 74.3909 10.9394 74.097 10.9164H73.5736C73.0377 10.8129 72.4846 10.8461 71.9647 11.013C71.4448 11.1799 70.9746 11.4751 70.5969 11.8718L59.5078 23.65L56.5475 20.3554L67.6856 10.0598C68.1982 9.58609 68.5475 8.96017 68.6828 8.27291C68.8181 7.58565 68.7323 6.87285 68.4379 6.23803C68.3699 5.82352 68.3699 5.40058 68.4379 4.98608C68.6833 3.63529 70.3352 3.63529 70.5151 3.63529ZM70.5151 0.34069C69.2847 0.270636 68.0708 0.652891 67.0992 1.41641C66.1275 2.17994 65.4641 3.2728 65.2323 4.49189C64.9652 5.5377 65.0457 6.64281 65.4612 7.63823L51.9352 20.1083L59.4424 28.4436L72.9684 14.1615C73.3222 14.1919 73.6778 14.1919 74.0315 14.1615C74.4972 14.1595 74.962 14.1209 75.4218 14.0462C78.6929 13.5356 79.1345 11.2623 78.9709 9.10433C78.8924 8.17396 78.5119 7.29552 77.8881 6.60476C77.2643 5.91399 76.4321 5.44934 75.5199 5.28259C75.38 5.25846 75.2517 5.18916 75.1544 5.08516C75.057 4.98116 74.9959 4.8481 74.9802 4.70604C74.8833 3.55855 74.3782 2.48492 73.5578 1.6828C72.7373 0.880681 71.6568 0.404062 70.5151 0.34069Z" fill="#C5A042"/>
<path d="M52.486 19.663C53.553 20.6585 56.8195 23.7753 58.6415 25.5378L60.004 26.8433C60.0078 27.4129 59.8666 27.9743 59.5936 28.4751C56.3106 35.2637 47.9391 51.8762 40.3719 59.4807L40.0436 59.8071L39.2064 60.5904L38.8782 60.8678C36.6019 62.7972 33.9463 64.234 31.0806 65.0867C28.2148 65.9393 25.2019 66.1891 22.2337 65.8202C19.2655 65.4512 16.4072 64.4716 13.8409 62.9437C11.2746 61.4159 9.05655 59.3733 7.3282 56.9461C5.59984 54.5189 4.39904 51.7604 3.80232 48.8464C3.2056 45.9324 3.22606 42.9267 3.86237 40.021C4.49869 37.1152 5.73692 34.3731 7.49815 31.9694C9.25938 29.5657 11.505 27.5532 14.0918 26.06L14.3545 25.9131C16.6823 24.5719 19.2442 23.6805 21.9053 23.2858H22.0366C24.2033 22.8998 26.4013 22.7141 28.6025 22.7309C30.3917 22.7309 32.1153 22.8288 33.7896 22.9104C35.4639 22.992 36.8099 23.0736 38.238 23.0736H39.5183C43.5955 22.8084 47.5844 21.7727 51.2713 20.022C51.651 19.833 52.063 19.7167 52.486 19.6793M52.486 16.4156C51.5701 16.4421 50.6698 16.6589 49.8432 17.052C46.5595 18.6249 43.0062 19.5662 39.3706 19.8262H38.2216C35.3982 19.8262 32.1645 19.4672 28.5861 19.4672C26.2158 19.4374 23.8476 19.6231 21.5113 20.022C18.3725 20.4762 15.3516 21.529 12.6145 23.1226L12.4175 23.2858C9.42771 25.0004 6.83049 27.3161 4.79181 30.085C2.75312 32.854 1.3178 36.0152 0.577529 39.3668C-0.162741 42.7183 -0.191679 46.1866 0.492563 49.5499C1.17681 52.9132 2.55918 56.0977 4.55138 58.8999C6.54358 61.702 9.1018 64.0603 12.0626 65.824C15.0234 67.5876 18.3217 68.718 21.7468 69.1427C25.1719 69.5675 28.6484 69.2774 31.9543 68.2909C35.2602 67.3044 38.3228 65.6433 40.9464 63.4135C41.3896 63.0382 41.8328 62.6302 42.2924 62.1896L42.7356 61.749C50.5983 53.8344 59.1504 36.9935 62.5483 29.8133C63.5331 27.7571 63.5331 25.652 62.4333 24.6076C61.3336 23.5632 55.4242 17.8843 54.3409 17.0031C53.8123 16.5813 53.1466 16.3665 52.4696 16.3993L52.486 16.4156Z" fill="#C5A042"/>
</g>
</svg>
