<?xml version="1.0" encoding="UTF-8" standalone="no"?>
<svg
   width="108"
   height="109"
   viewBox="0 0 108 109"
   fill="none"
   version="1.1"
   id="svg20"
   sodipodi:docname="pizza.svg"
   inkscape:version="1.1.2 (b8e25be833, 2022-02-05)"
   xmlns:inkscape="http://www.inkscape.org/namespaces/inkscape"
   xmlns:sodipodi="http://sodipodi.sourceforge.net/DTD/sodipodi-0.dtd"
   xmlns="http://www.w3.org/2000/svg"
   xmlns:svg="http://www.w3.org/2000/svg">
  <defs
     id="defs24" />
  <sodipodi:namedview
     id="namedview22"
     pagecolor="#ffffff"
     bordercolor="#666666"
     borderopacity="1.0"
     inkscape:pageshadow="2"
     inkscape:pageopacity="0.0"
     inkscape:pagecheckerboard="0"
     showgrid="false"
     inkscape:zoom="3.8119266"
     inkscape:cx="39.087846"
     inkscape:cy="58.500602"
     inkscape:window-width="1920"
     inkscape:window-height="1017"
     inkscape:window-x="-8"
     inkscape:window-y="-8"
     inkscape:window-maximized="1"
     inkscape:current-layer="svg20" />
  <g
     opacity="0.78"
     id="g18"
     transform="rotate(15,51.751766,56.396812)">
    <path
       d="M 104,52.3325 H 86 v 4 h 6 C 91.6093,63.6884 89.0891,70.7721 84.7461,76.7217 80.403,82.6714 74.4243,87.2305 67.5375,89.8444 60.6506,92.4582 53.1525,93.014 45.9555,91.4443 38.7585,89.8745 32.1729,86.2468 27,81.0025 c 1.9113,-1.0985 3.406,-2.7977 4.2518,-4.8335 0.8457,-2.0358 0.995,-4.294 0.4248,-6.4234 -0.5703,-2.1295 -1.8283,-4.0108 -3.5782,-5.3514 -1.75,-1.3406 -3.8939,-2.0654 -6.0984,-2.0617 -1.7,0.0015 -3.3707,0.4424 -4.85,1.28 -1.3794,-5.4451 -1.5345,-11.1283 -0.4542,-16.6406 1.0804,-5.5122 3.3693,-10.7164 6.7022,-15.238 3.3328,-4.5215 7.6266,-8.248 12.5723,-10.9111 C 40.916,18.1597 46.3906,16.6261 52,16.3325 v 7.16 c -0.6591,-0.1243 -1.3295,-0.1779 -2,-0.16 -2.6521,0 -5.1957,1.0536 -7.071,2.929 -1.8754,1.8753 -2.929,4.4189 -2.929,7.071 0,2.6522 1.0536,5.1957 2.929,7.0711 1.8753,1.8753 4.4189,2.9289 7.071,2.9289 0.6723,0.0015 1.3427,-0.0689 2,-0.21 v 11.21 c 0,0.5305 0.2107,1.0392 0.5858,1.4142 0.3751,0.3751 0.8838,0.5858 1.4142,0.5858 h 20 v -4 H 56 V 4.33252 C 56,3.80209 55.7893,3.29338 55.4142,2.91831 55.0392,2.54323 54.5305,2.33252 54,2.33252 43.7154,2.33252 33.6617,5.38227 25.1104,11.0961 16.559,16.8099 9.89404,24.9312 5.95829,34.433 2.02253,43.9347 0.992757,54.3902 2.99919,64.4772 c 2.00643,10.087 6.95895,19.3525 14.23131,26.6249 7.2723,7.2723 16.5378,12.2249 26.6248,14.2309 10.087,2.007 20.5425,0.977 30.0443,-2.959 C 83.4013,98.4385 91.5226,91.7735 97.2364,83.2222 102.95,74.6708 106,64.6171 106,54.3325 c 0,-0.5304 -0.211,-1.0391 -0.586,-1.4142 -0.375,-0.3751 -0.884,-0.5858 -1.414,-0.5858 z m -52,-13.36 c -0.9062,0.3289 -1.8784,0.4346 -2.8342,0.3082 -0.9558,-0.1265 -1.867,-0.4815 -2.6565,-1.0348 -0.7895,-0.5534 -1.434,-1.2888 -1.879,-2.1441 -0.445,-0.8553 -0.6773,-1.8052 -0.6773,-2.7693 0,-0.9641 0.2323,-1.914 0.6773,-2.7693 0.445,-0.8552 1.0895,-1.5907 1.879,-2.144 0.7895,-0.5534 1.7007,-0.9083 2.6565,-1.0348 0.9558,-0.1265 1.928,-0.0208 2.8342,0.3081 z m -30,27.36 c 1.3933,0.0025 2.7424,0.4897 3.8156,1.3782 1.0733,0.8885 1.8039,2.1228 2.0665,3.4912 0.2625,1.3683 0.0407,2.7854 -0.6275,4.0081 -0.6682,1.2226 -1.7411,2.1746 -3.0346,2.6925 -2.474,-3.121 -4.4445,-6.6098 -5.84,-10.34 1.0374,-0.7991 2.3105,-1.2316 3.62,-1.23 z M 54,102.333 C 41.2696,102.598 28.9553,97.795 19.766,88.9808 10.5767,80.1665 5.26524,68.0629 5.00002,55.3325 4.73481,42.6021 9.53758,30.2878 18.3518,21.0985 27.166,11.9092 39.2696,6.59774 52,6.33252 v 5.99998 c -8.1225,0.397 -15.9551,3.1434 -22.5469,7.906 -6.5917,4.7626 -11.659,11.3364 -14.5868,18.9233 -2.9277,7.587 -3.5899,15.8607 -1.9061,23.8167 1.6838,7.956 5.641,15.2521 11.3914,21.0024 5.7504,5.7504 13.0464,9.7077 21.0024,11.3914 7.9561,1.6838 16.2298,1.0216 23.8167,-1.9061 C 76.7576,90.5385 83.3315,85.4711 88.094,78.8794 92.8566,72.2877 95.6031,64.4551 96,56.3325 h 6 C 101.469,68.7081 96.1804,80.4007 87.2372,88.9713 78.294,97.5418 66.3869,102.328 54,102.333 Z"
       fill="#c5a042"
       id="path2" />
    <path
       d="m 58,81.9724 c 4.2195,0 7.64,-3.4206 7.64,-7.64 0,-4.2195 -3.4205,-7.64 -7.64,-7.64 -4.2194,0 -7.64,3.4205 -7.64,7.64 0,4.2194 3.4206,7.64 7.64,7.64 z"
       fill="#c5a042"
       id="path4" />
    <path
       d="m 78.5,65.3325 c 0.8284,0 1.5,-0.6716 1.5,-1.5 0,-0.8284 -0.6716,-1.5 -1.5,-1.5 -0.8284,0 -1.5,0.6716 -1.5,1.5 0,0.8284 0.6716,1.5 1.5,1.5 z"
       fill="#c5a042"
       id="path6" />
    <path
       d="m 43.5,67.3525 c 1.3918,0 2.52,-1.1282 2.52,-2.52 0,-1.3918 -1.1282,-2.52 -2.52,-2.52 -1.3917,0 -2.52,1.1282 -2.52,2.52 0,1.3918 1.1283,2.52 2.52,2.52 z"
       fill="#c5a042"
       id="path8" />
    <path
       d="m 28.5,50.5323 c 2.0435,0 3.7001,-1.6565 3.7001,-3.7 0,-2.0434 -1.6566,-3.7 -3.7001,-3.7 -2.0434,0 -3.7,1.6566 -3.7,3.7 0,2.0435 1.6566,3.7 3.7,3.7 z"
       fill="#c5a042"
       id="path10" />
    <path
       d="m 81.5,28.7126 c 1.0383,0 1.88,-0.8417 1.88,-1.88 0,-1.0383 -0.8417,-1.88 -1.88,-1.88 -1.0383,0 -1.88,0.8417 -1.88,1.88 0,1.0383 0.8417,1.88 1.88,1.88 z"
       fill="#c5a042"
       id="path12" />
    <path
       d="m 64,47.3325 h 40 c 0.53,0 1.039,-0.2107 1.414,-0.5858 C 105.789,46.3717 106,45.863 106,45.3325 106,34.1934 101.575,23.5106 93.6985,15.634 85.822,7.75751 75.1391,3.33252 64,3.33252 c -0.5304,0 -1.0391,0.21071 -1.4142,0.58579 C 62.2107,4.29338 62,4.80209 62,5.33252 V 45.3325 c 0,0.5305 0.2107,1.0392 0.5858,1.4142 0.3751,0.3751 0.8838,0.5858 1.4142,0.5858 z m 9.88,-4 c 0.0639,-1.5816 0.7372,-3.0772 1.8789,-4.1737 1.1416,-1.0964 2.6632,-1.7087 4.2461,-1.7087 1.5829,0 3.1045,0.6123 4.2461,1.7087 1.1417,1.0965 1.815,2.5921 1.8789,4.1737 z m 16.25,0 c -0.0827,-2.6302 -1.1856,-5.1251 -3.0754,-6.9564 -1.8898,-1.8313 -4.4181,-2.8553 -7.0496,-2.8553 -2.6315,0 -5.1598,1.024 -7.0496,2.8553 -1.8898,1.8313 -2.9927,4.3262 -3.0754,6.9564 H 66 v -27.93 c 7.2479,0.485 14.0737,3.5834 19.2102,8.7199 5.1365,5.1365 8.2348,11.9622 8.7198,19.2101 z m 11.82,0 h -4 C 97.4598,35.0198 93.9359,27.176 88.0468,21.2888 82.1577,15.4015 74.3129,11.8802 66,11.3925 V 7.39252 c 9.3684,0.50632 18.2197,4.45508 24.8548,11.08828 6.635,6.6332 10.5862,15.4834 11.0952,24.8517 z"
       fill="#c5a042"
       id="path14" />
    <path
       d="m 82,54.3325 c 0,-1.1046 -0.8954,-2 -2,-2 -1.1046,0 -2,0.8954 -2,2 0,1.1046 0.8954,2 2,2 1.1046,0 2,-0.8954 2,-2 z"
       fill="#c5a042"
       id="path16" />
  </g>
</svg>
