<svg width="92" height="93" viewBox="0 0 92 93" fill="none" xmlns="http://www.w3.org/2000/svg">
<g clip-path="url(#clip0_174_973)">
<path d="M32.6426 75.939C34.1756 74.3893 32.9698 62.7379 32.8154 61.2837L56.4745 37.6272L58.2714 39.424L60.0544 37.6412C60.0544 37.6412 62.4829 31.1671 71.189 26.2215C72.6292 24.7813 90.9317 6.4774 90.9317 6.4774L90.9263 6.47184C90.9459 6.45371 90.9684 6.44526 90.9851 6.42834C92.3385 5.0708 92.3385 2.87524 90.9851 1.5206C89.6292 0.163056 87.4307 0.163056 86.0776 1.5206C86.0606 1.53751 86.0495 1.55564 86.0297 1.57255L86.0244 1.56965C86.0244 1.56965 67.997 19.5983 66.3262 21.2717C59.4871 30.9509 54.6864 32.2787 54.6864 32.2787L52.9062 34.0613L54.7033 35.8581L31.1128 59.4472C31.1128 59.4472 17.9636 57.9676 16.3098 59.6042C14.6577 61.2385 8.21697 67.5946 7.55874 68.3584C6.89761 69.1165 -3.31079 78.6932 1.10425 83.1092C2.36344 84.367 4.63753 86.6413 5.08409 87.085C5.13314 87.1355 5.16117 87.169 5.16117 87.169C5.59782 87.6013 7.82986 89.8334 9.13811 91.1445C13.3088 95.3167 23.1323 85.3524 23.8944 84.6927C24.651 84.0277 31.0072 77.5928 32.6426 75.939ZM89.7019 3.01854C90.4658 3.78067 90.4658 5.01039 89.7048 5.76987C88.9441 6.53491 85.7378 8.50428 84.9798 7.74505C84.2133 6.98557 86.1928 3.78067 86.9506 3.01854C87.7113 2.25616 88.9468 2.25616 89.7019 3.01854ZM2.45865 79.7825L1.47324 78.7971L17.9914 62.2746L18.9782 63.2629L2.45865 79.7825ZM4.92509 82.9889L3.94233 82.0006L17.9549 67.988L18.9403 68.9734L4.92509 82.9889ZM7.62712 85.6868L6.64171 84.6985L18.7226 72.6179L19.708 73.6033L7.62712 85.6868ZM10.1864 88.2475L9.19804 87.2592L23.2133 73.2437L24.2016 74.2349L10.1864 88.2475ZM13.2888 90.2379L12.3019 89.2496L28.8215 72.7302L29.8084 73.7185L13.2888 90.2379Z" fill="#C5A042"/>
</g>
<defs>
<clipPath id="clip0_174_973">
<rect width="92" height="92" fill="white" transform="translate(0 0.33252)"/>
</clipPath>
</defs>
</svg>
