<svg width="76" height="76" viewBox="0 0 76 76" fill="none" xmlns="http://www.w3.org/2000/svg">
<path d="M63.34 1.07325L62.3364 0L26.6464 35.6901L28.7914 42.8375C28.8838 43.7017 28.2655 44.5945 27.35 44.893L25.0699 45.6378L24.3904 47.7403C23.9156 49.213 22.8964 50.2606 21.5986 50.6757H21.5971C21.1323 50.6757 19.7534 49.7745 19.0142 49.2897C17.5458 48.3288 16.2721 47.5 15.0795 47.6635L14.6061 47.7275L0 62.3364L1.07182 63.3414C9.60378 71.3304 20.3974 75.3064 31.1782 75.3064C42.4423 75.3064 53.6922 70.9665 62.3293 62.3293C79.2326 45.4246 79.6775 18.5181 63.34 1.07325ZM17.4591 51.6694C19.2004 52.8066 20.8494 53.8798 22.3676 53.405C24.6179 52.7028 26.3422 50.9558 27.0984 48.6131L27.3301 47.8895L28.2328 47.5953C30.5072 46.8518 31.9486 44.5802 31.5876 42.3115L29.8576 36.4989L54.7896 11.5683C60.025 16.7952 62.8624 23.2902 63.0145 30.429C63.1893 38.5928 59.6412 46.9229 53.2814 53.2828C46.9215 59.6427 38.6013 63.2036 30.4276 63.0159C23.2887 62.8638 16.7938 60.025 11.5669 54.791L15.7334 50.6245C16.2238 50.8619 16.9672 51.3481 17.4591 51.6694ZM60.3193 60.3179C44.8532 75.7826 20.4386 76.5189 4.10535 62.2511L9.5853 56.7712C15.2856 62.4558 22.5965 65.6912 30.3679 65.8561C30.5797 65.8604 30.7915 65.8632 31.0033 65.8632C39.7329 65.8632 48.552 62.0322 55.2928 55.29C62.1971 48.3856 66.048 39.2993 65.859 30.3651C65.6926 22.595 62.4587 15.2827 56.7726 9.58246L62.2526 4.1025C76.5203 20.4386 75.784 44.8532 60.3193 60.3179Z" fill="#D5AE4C" stroke="#D5AE4C" stroke-width="0.002"/>
<path d="M8.44093 28.3192C9.61856 28.3192 10.5732 27.3646 10.5732 26.187C10.5732 25.0093 9.61856 24.0547 8.44093 24.0547C7.26331 24.0547 6.30865 25.0093 6.30865 26.187C6.30865 27.3646 7.26331 28.3192 8.44093 28.3192Z" fill="#D5AE4C" stroke="#D5AE4C" stroke-width="0.002"/>
<path d="M25.499 59.5927C26.6767 59.5927 27.6313 58.638 27.6313 57.4604C27.6313 56.2828 26.6767 55.3281 25.499 55.3281C24.3214 55.3281 23.3668 56.2828 23.3668 57.4604C23.3668 58.638 24.3214 59.5927 25.499 59.5927Z" fill="#D5AE4C" stroke="#D5AE4C" stroke-width="0.002"/>
<path d="M38.9582 40.5888C40.1358 40.5888 41.0905 39.6341 41.0905 38.4565C41.0905 37.2789 40.1358 36.3242 38.9582 36.3242C37.7806 36.3242 36.8259 37.2789 36.8259 38.4565C36.8259 39.6341 37.7806 40.5888 38.9582 40.5888Z" fill="#D5AE4C" stroke="#D5AE4C" stroke-width="0.002"/>
<path d="M45.9947 33.5522C47.1723 33.5522 48.127 32.5975 48.127 31.4199C48.127 30.2423 47.1723 29.2876 45.9947 29.2876C44.8171 29.2876 43.8624 30.2423 43.8624 31.4199C43.8624 32.5975 44.8171 33.5522 45.9947 33.5522Z" fill="#D5AE4C" stroke="#D5AE4C" stroke-width="0.002"/>
<path d="M41.9731 57.6767C43.1507 57.6767 44.1054 56.722 44.1054 55.5444C44.1054 54.3668 43.1507 53.4121 41.9731 53.4121C40.7955 53.4121 39.8408 54.3668 39.8408 55.5444C39.8408 56.722 40.7955 57.6767 41.9731 57.6767Z" fill="#D5AE4C" stroke="#D5AE4C" stroke-width="0.002"/>
<path d="M49.0097 50.64C50.1873 50.64 51.1419 49.6854 51.1419 48.5078C51.1419 47.3301 50.1873 46.3755 49.0097 46.3755C47.832 46.3755 46.8774 47.3301 46.8774 48.5078C46.8774 49.6854 47.832 50.64 49.0097 50.64Z" fill="#D5AE4C" stroke="#D5AE4C" stroke-width="0.002"/>
<path d="M56.0462 43.6034C57.2238 43.6034 58.1784 42.6488 58.1784 41.4711C58.1784 40.2935 57.2238 39.3389 56.0462 39.3389C54.8685 39.3389 53.9139 40.2935 53.9139 41.4711C53.9139 42.6488 54.8685 43.6034 56.0462 43.6034Z" fill="#D5AE4C" stroke="#D5AE4C" stroke-width="0.002"/>
<path d="M53.0313 26.5155C54.2089 26.5155 55.1635 25.5609 55.1635 24.3833C55.1635 23.2056 54.2089 22.251 53.0313 22.251C51.8536 22.251 50.899 23.2056 50.899 24.3833C50.899 25.5609 51.8536 26.5155 53.0313 26.5155Z" fill="#D5AE4C" stroke="#D5AE4C" stroke-width="0.002"/>
<path d="M33.9331 55.6654C35.1107 55.6654 36.0653 54.7108 36.0653 53.5332C36.0653 52.3555 35.1107 51.4009 33.9331 51.4009C32.7554 51.4009 31.8008 52.3555 31.8008 53.5332C31.8008 54.7108 32.7554 55.6654 33.9331 55.6654Z" fill="#D5AE4C" stroke="#D5AE4C" stroke-width="0.002"/>
<path d="M41.136 48.2206C42.3136 48.2206 43.2683 47.266 43.2683 46.0883C43.2683 44.9107 42.3136 43.9561 41.136 43.9561C39.9584 43.9561 39.0037 44.9107 39.0037 46.0883C39.0037 47.266 39.9584 48.2206 41.136 48.2206Z" fill="#D5AE4C" stroke="#D5AE4C" stroke-width="0.002"/>
<path d="M48.2435 41.1132C49.4212 41.1132 50.3758 40.1585 50.3758 38.9809C50.3758 37.8033 49.4212 36.8486 48.2435 36.8486C47.0659 36.8486 46.1113 37.8033 46.1113 38.9809C46.1113 40.1585 47.0659 41.1132 48.2435 41.1132Z" fill="#D5AE4C" stroke="#D5AE4C" stroke-width="0.002"/>
<path d="M12.7054 42.5346C13.883 42.5346 14.8377 41.5799 14.8377 40.4023C14.8377 39.2247 13.883 38.27 12.7054 38.27C11.5278 38.27 10.5731 39.2247 10.5731 40.4023C10.5731 41.5799 11.5278 42.5346 12.7054 42.5346Z" fill="#D5AE4C" stroke="#D5AE4C" stroke-width="0.002"/>
<path d="M21.2348 31.1625C22.4124 31.1625 23.3671 30.2079 23.3671 29.0302C23.3671 27.8526 22.4124 26.8979 21.2348 26.8979C20.0572 26.8979 19.1025 27.8526 19.1025 29.0302C19.1025 30.2079 20.0572 31.1625 21.2348 31.1625Z" fill="#D5AE4C" stroke="#D5AE4C" stroke-width="0.002"/>
<path d="M55.0413 34.557C56.2189 34.557 57.1736 33.6024 57.1736 32.4248C57.1736 31.2471 56.2189 30.2925 55.0413 30.2925C53.8636 30.2925 52.909 31.2471 52.909 32.4248C52.909 33.6024 53.8636 34.557 55.0413 34.557Z" fill="#D5AE4C" stroke="#D5AE4C" stroke-width="0.002"/>
</svg>
