<svg width="206" height="94" viewBox="0 0 206 94" fill="none" xmlns="http://www.w3.org/2000/svg">
<path d="M199.927 26.7711C201.684 35.4033 178.281 55.8035 166.504 60.6141C150.64 67.094 126.509 65.034 104.532 69.5051C82.5558 73.9763 61.1478 85.3014 44.0131 85.5351C18.1075 85.8886 7.23146 72.7785 5.47522 64.1463C3.60647 54.9612 17.498 51.8566 44.2596 41.6041C59.2836 35.8483 74.844 25.1767 94.6919 21.1386C116.668 16.6675 134.427 20.007 151.561 19.7733C177.467 19.4199 198.171 18.1389 199.927 26.7711Z" fill="#D5AE4C"/>
<path d="M170.781 28.2592C172.127 28.9078 174.39 29.9319 175.753 31.798C175.963 32.0858 175.968 32.1148 177.01 33.298C178.439 34.9199 180.022 36.0614 178.686 37.1131C177.997 37.6557 177.067 37.5741 176.19 37.3538C174.203 36.8543 172.704 36.0827 171.141 35.3742C169.129 34.4616 168.207 33.6896 166.016 33.1387C163.825 32.5879 161.615 32.4269 159.938 32.2422C158.262 32.0575 156.884 31.869 155.099 31.4202C154.222 31.1999 152.279 30.3827 151.936 28.9678C151.628 27.6944 152.68 26.4712 153.404 26.1797C154.935 25.5634 156.644 25.7862 158.034 25.8441C159.539 25.9068 161.903 25.9462 163.865 26.3627C165.884 26.7914 168.221 27.026 170.781 28.2592Z" fill="#E4E4E4" fill-opacity="0.8"/>
<path d="M37.3756 58.3412C37.3348 58.1478 37.3559 58.0087 37.439 57.9238C37.5311 57.8337 37.6445 57.7492 37.7794 57.6702C37.9861 57.5491 38.2969 57.5542 38.7118 57.6855C39.1304 57.8025 39.6087 58.0113 40.1469 58.3118C40.685 58.6123 41.2626 58.9802 41.8797 59.4155C42.5057 59.8456 43.1315 60.3061 43.7569 60.7969C44.3861 61.2734 44.9972 61.7605 45.5904 62.2581C46.1836 62.7557 46.7164 63.2223 47.1888 63.6579C47.6649 64.0793 48.0611 64.4569 48.3773 64.7907C48.6935 65.1246 48.8938 65.3635 48.978 65.5073C49.0622 65.6511 49.1078 65.8115 49.1149 65.9884C49.1257 66.1511 49.0457 66.2825 48.8749 66.3825C48.767 66.4457 48.6542 66.4695 48.5365 66.4539C48.4224 66.4241 48.3095 66.3756 48.1977 66.3083C48.0858 66.241 47.9785 66.1711 47.8756 66.0985C47.7728 66.026 47.6823 65.9642 47.6043 65.9134C47.5104 65.8356 47.3235 65.6916 47.0434 65.4813C46.7724 65.2658 46.4845 65.0421 46.1796 64.8102C45.8838 64.573 45.603 64.3512 45.3372 64.1447C45.0714 63.9382 44.8819 63.7897 44.7685 63.6992C44.0761 63.9598 43.3845 64.232 42.6936 64.5159C42.0065 64.7855 41.2861 65.0806 40.5323 65.4013L40.384 65.4882C40.8763 67.0709 41.2335 68.3405 41.4556 69.2969C41.6867 70.248 41.8168 70.9443 41.8461 71.3859C41.8843 71.8222 41.8355 72.0379 41.6998 72.0329C41.5783 72.0316 41.397 71.8662 41.1557 71.5367C40.9182 71.1929 40.6437 70.7139 40.3322 70.0996C40.0298 69.48 39.7245 68.7836 39.4166 68.0103C39.1123 67.2228 38.8121 66.3906 38.5159 65.5138C38.2197 64.6371 37.9708 63.7688 37.7692 62.9091C37.5765 62.0442 37.4379 61.22 37.3533 60.4366C37.2725 59.6389 37.2799 58.9405 37.3756 58.3412ZM39.8314 63.2768C40.0262 63.6094 40.2788 63.7934 40.5893 63.8289C40.8945 63.8553 41.2131 63.8016 41.545 63.6675C41.8769 63.5335 42.2066 63.3646 42.5339 63.1608C42.8702 62.9518 43.1597 62.7763 43.4024 62.6341C43.1918 62.2746 42.9071 61.9223 42.5481 61.5772C42.1838 61.2232 41.7907 60.8921 41.3688 60.5839C40.9469 60.2757 40.5194 59.9888 40.0863 59.7234C39.6569 59.4437 39.2647 59.1965 38.9097 58.9819C38.8687 59.1387 38.8688 59.3862 38.9098 59.7243C38.9546 60.0481 39.016 60.4105 39.0939 60.8115C39.1755 61.1983 39.2635 61.5753 39.3579 61.9426C39.4522 62.3098 39.5348 62.6055 39.6057 62.8295C39.6215 62.8565 39.6591 62.931 39.7185 63.0532C39.7727 63.1663 39.8103 63.2408 39.8314 63.2768Z" fill="black"/>
<path d="M54.1923 62.5501C53.932 62.0049 53.8372 61.4557 53.9078 60.9026C53.9785 60.3494 54.1419 59.8212 54.398 59.318C54.6497 58.8055 54.9589 58.3289 55.3257 57.8883C55.688 57.4383 56.0376 57.0463 56.3745 56.7123C56.7069 56.3689 56.9892 56.0899 57.2215 55.8751C57.4492 55.651 57.5496 55.5107 57.5227 55.4543C57.3656 55.1253 57.1942 54.8146 57.0085 54.5224C56.8277 54.2162 56.6423 53.9123 56.4521 53.6107C56.2619 53.309 56.074 53.012 55.8883 52.7198C55.7075 52.4136 55.543 52.1054 55.3949 51.7952L54.9574 50.8787C55.2755 50.5537 55.5548 50.4376 55.7954 50.5306C56.0454 50.619 56.2127 50.8969 56.2974 51.3644C56.4337 51.5533 56.6402 51.8529 56.917 52.2633C57.1937 52.6737 57.502 53.1383 57.842 53.657C58.1914 54.1712 58.5542 54.7137 58.9305 55.2843C59.3162 55.8505 59.6813 56.3976 60.0258 56.9257C60.3752 57.4399 60.6835 57.9045 60.9508 58.3194C61.2137 58.7249 61.4108 59.029 61.5422 59.2318C61.5741 59.2743 61.6283 59.3638 61.7051 59.5003C61.7773 59.6274 61.8516 59.7709 61.9278 59.9307C62.009 60.0766 62.0811 60.2154 62.1439 60.347C62.2161 60.4741 62.2657 60.5659 62.2926 60.6223C61.9354 60.7928 61.6843 60.8954 61.5392 60.93C61.4035 60.9601 61.2967 60.9419 61.2187 60.8752C61.1501 60.8041 61.0777 60.6886 61.0014 60.5288C60.9251 60.369 60.7726 60.1705 60.544 59.9334C60.3263 60.3721 60.105 60.7547 59.8801 61.0814C59.6551 61.4081 59.4145 61.7019 59.1581 61.9628C58.8973 62.2143 58.616 62.4352 58.3143 62.6254C58.0266 62.8205 57.7041 63.0033 57.3469 63.1738C57.046 63.3174 56.7434 63.433 56.439 63.5207C56.1394 63.5944 55.8501 63.6171 55.5711 63.5887C55.2921 63.5603 55.0329 63.4647 54.7936 63.3019C54.5543 63.1391 54.3538 62.8885 54.1923 62.5501ZM55.2777 61.6684C55.3495 61.8188 55.4407 61.9253 55.5514 61.9879C55.6621 62.0505 55.7848 62.09 55.9196 62.1064C56.0545 62.1228 56.185 62.1182 56.3113 62.0926C56.4424 62.0531 56.5644 62.0064 56.6772 61.9525C57.0063 61.7954 57.3296 61.566 57.6473 61.2643C57.9699 60.9487 58.2371 60.6018 58.449 60.2236C58.6658 59.8316 58.8014 59.4263 58.8556 59.008C58.9192 58.5852 58.8613 58.1858 58.6818 57.8097C58.5427 57.5183 58.3945 57.3409 58.2372 57.2775C58.08 57.214 57.8556 57.2519 57.5642 57.391C57.2634 57.5346 56.9445 57.7734 56.6076 58.1074C56.2801 58.4368 55.9845 58.8088 55.7206 59.2234C55.4662 59.6334 55.2884 60.0588 55.1872 60.4996C55.0815 60.931 55.1116 61.3206 55.2777 61.6684Z" fill="black"/>
<path d="M66.9997 56.6557C66.7831 56.0917 66.7318 55.5367 66.8458 54.9908C66.9597 54.4449 67.1642 53.9313 67.4591 53.4498C67.7503 52.9586 68.096 52.5078 68.4964 52.0974C68.893 51.6773 69.2723 51.3141 69.6344 51.0076C69.9928 50.6915 70.2962 50.4355 70.5446 50.2397C70.7893 50.0341 70.9004 49.9022 70.878 49.8438C70.7473 49.5035 70.6009 49.1803 70.4388 48.8744C70.2826 48.5549 70.1216 48.2374 69.9558 47.9217C69.7899 47.606 69.6259 47.2952 69.4638 46.9892C69.3077 46.6698 69.168 46.3496 69.0447 46.0287L68.6806 45.0806C69.0233 44.7816 69.3109 44.6879 69.5435 44.7995C69.7857 44.9073 69.9307 45.1976 69.9783 45.6702C70.0993 45.8692 70.2816 46.1842 70.5252 46.6151C70.7688 47.046 71.0396 47.5334 71.3378 48.0772C71.6456 48.6174 71.9646 49.1867 72.2949 49.7851C72.6349 50.3799 72.9558 50.954 73.2576 51.5076C73.5655 52.0477 73.8363 52.5351 74.0702 52.9697C74.3003 53.3947 74.4729 53.7133 74.5879 53.9258C74.6163 53.9707 74.6634 54.0642 74.7292 54.2063C74.7912 54.3387 74.8539 54.4876 74.9174 54.6529C74.9869 54.8048 75.0477 54.9488 75.1 55.0849C75.162 55.2173 75.2042 55.3127 75.2266 55.371C74.8571 55.5129 74.5987 55.5954 74.4513 55.6185C74.3137 55.6379 74.2086 55.6113 74.1361 55.5387C74.0734 55.4624 74.0102 55.3416 73.9467 55.1763C73.8833 55.011 73.7469 54.8011 73.5376 54.5467C73.2861 54.9669 73.0354 55.331 72.7854 55.639C72.5355 55.947 72.2725 56.2209 71.9964 56.4609C71.7165 56.6911 71.4188 56.8891 71.1031 57.0549C70.8009 57.2268 70.465 57.3837 70.0955 57.5256C69.7843 57.6451 69.4735 57.7365 69.1631 57.7999C68.8587 57.8499 68.5685 57.8497 68.2926 57.7995C68.0166 57.7492 67.7658 57.6335 67.54 57.4524C67.3143 57.2713 67.1342 57.0058 66.9997 56.6557ZM68.1511 55.862C68.2109 56.0176 68.2934 56.131 68.3989 56.2021C68.5043 56.2732 68.6235 56.3222 68.7566 56.3492C68.8897 56.3762 69.0202 56.3819 69.1481 56.3663C69.282 56.3372 69.4073 56.3002 69.524 56.2554C69.8644 56.1247 70.2047 55.9214 70.5452 55.6457C70.8916 55.3564 71.1853 55.0316 71.4263 54.6713C71.6733 54.2975 71.8403 53.9042 71.9272 53.4914C72.0239 53.0749 71.9976 52.6721 71.8482 52.2832C71.7325 51.9817 71.5987 51.7932 71.4469 51.7176C71.2951 51.6419 71.0685 51.662 70.7671 51.7778C70.4559 51.8973 70.1192 52.1102 69.7571 52.4167C69.4047 52.7194 69.0807 53.067 68.7851 53.4595C68.4992 53.8482 68.2884 54.2583 68.1528 54.6897C68.0135 55.1115 68.0129 55.5022 68.1511 55.862Z" fill="black"/>
<path d="M92.1417 43.542C92.1214 43.4505 92.1063 43.3578 92.0962 43.264C92.0839 43.1601 92.0851 43.0691 92.0999 42.9912C92.1124 42.9031 92.1436 42.8268 92.1933 42.7625C92.2533 42.6959 92.3443 42.6491 92.4664 42.6221C92.5681 42.5996 92.6979 42.6563 92.856 42.792C93.0219 42.9154 93.198 43.0845 93.3842 43.2993C93.5681 43.504 93.7526 43.7353 93.9376 43.9931C94.1328 44.2486 94.3032 44.4884 94.4487 44.7122C94.6021 44.9237 94.7284 45.1091 94.8277 45.2685C94.927 45.4279 94.9828 45.5116 94.9952 45.5195C95.0487 45.1343 95.1108 44.7152 95.1813 44.2622C95.2518 43.8092 95.3647 43.3789 95.52 42.9712C95.6831 42.551 95.9004 42.1829 96.1719 41.8669C96.4536 41.5486 96.8335 41.3366 97.3115 41.2309C97.5556 41.1769 97.7935 41.167 98.025 41.2011C98.2646 41.2229 98.4825 41.292 98.679 41.4086C98.8834 41.5128 99.0589 41.6553 99.2056 41.8363C99.3523 42.0172 99.4549 42.2399 99.5133 42.5043C99.5628 42.7281 99.5061 42.906 99.3433 43.038C99.1906 43.1678 99.0024 43.2574 98.7786 43.3069L98.6261 43.3406L97.825 42.8296C97.8047 42.8341 97.7883 42.8324 97.7759 42.8245C97.7555 42.829 97.7352 42.8334 97.7148 42.8379C97.7024 42.83 97.686 42.8283 97.6657 42.8328C97.3097 42.9115 97.0525 43.0751 96.894 43.3235C96.7435 43.5594 96.65 43.8361 96.6135 44.1536C96.5748 44.4609 96.5761 44.7806 96.6175 45.1128C96.6669 45.4326 96.7208 45.7248 96.7793 45.9892C96.8243 46.1926 96.8907 46.3966 96.9786 46.6012C97.0643 46.7957 97.155 46.989 97.2509 47.1811C97.3444 47.3631 97.4352 47.5564 97.5231 47.761C97.6087 47.9555 97.6763 48.1646 97.7258 48.3883C97.8202 48.8155 97.6386 49.0797 97.1809 49.1809C96.9266 49.2371 96.6329 49.1634 96.2999 48.9596C95.9645 48.7457 95.6134 48.4606 95.2466 48.1043C94.89 47.7458 94.5345 47.3443 94.1802 46.8999C93.8237 46.4453 93.501 45.9992 93.2123 45.5617C92.9235 45.1241 92.6805 44.7244 92.4831 44.3627C92.296 43.9987 92.1821 43.7251 92.1417 43.542Z" fill="black"/>
<path d="M105.635 43.0415C105.556 42.4846 105.543 41.9182 105.598 41.3422C105.653 40.7662 105.793 40.2359 106.018 39.7513C106.254 39.2652 106.584 38.8499 107.008 38.5053C107.443 38.1592 107.996 37.9384 108.666 37.8428C109.047 37.7884 109.393 37.8128 109.702 37.916C110.01 38.0089 110.278 38.1548 110.506 38.3537C110.735 38.5526 110.917 38.8002 111.054 39.0963C111.2 39.3806 111.296 39.6878 111.344 40.0178C111.419 40.5437 111.368 41.0718 111.191 41.6021C111.024 42.1309 110.762 42.6155 110.404 43.0559C110.054 43.4845 109.631 43.8343 109.133 44.1052C108.633 44.3658 108.103 44.4836 107.542 44.4584C107.595 44.756 107.727 44.9843 107.939 45.1435C108.16 45.2909 108.411 45.3918 108.693 45.4464C108.974 45.501 109.261 45.5232 109.555 45.5129C109.846 45.4924 110.105 45.4659 110.332 45.4336C110.57 45.3997 110.788 45.3475 110.989 45.2768C111.189 45.2062 111.389 45.1303 111.588 45.0494C111.786 44.9684 111.986 44.8926 112.186 44.8219C112.397 44.7498 112.621 44.6968 112.858 44.663C112.951 44.6498 113.045 44.6417 113.139 44.6388C113.233 44.6358 113.324 44.6491 113.413 44.6786C113.5 44.6978 113.575 44.7449 113.638 44.8201C113.7 44.8849 113.739 44.974 113.755 45.0875C113.783 45.2834 113.735 45.4587 113.609 45.6133C113.483 45.7577 113.312 45.8924 113.099 46.0176C112.895 46.1413 112.663 46.248 112.403 46.3378C112.14 46.4173 111.883 46.4909 111.629 46.5586C111.385 46.6145 111.154 46.6579 110.938 46.6888C110.733 46.7285 110.579 46.7558 110.476 46.7705C109.816 46.8646 109.208 46.846 108.653 46.7148C108.096 46.5732 107.611 46.3425 107.197 46.0228C106.781 45.6927 106.438 45.2786 106.167 44.7807C105.905 44.2709 105.728 43.6912 105.635 43.0415ZM107.131 41.8022C107.183 42.1631 107.267 42.4195 107.383 42.5713C107.51 42.7215 107.764 42.7695 108.145 42.7151C108.414 42.6768 108.67 42.5929 108.914 42.4634C109.158 42.3235 109.37 42.1512 109.551 41.9464C109.743 41.7402 109.883 41.5097 109.973 41.2549C110.063 41.0001 110.088 40.7334 110.049 40.455C110.026 40.3003 109.988 40.1427 109.934 39.9821C109.89 39.82 109.817 39.6779 109.715 39.5556C109.612 39.423 109.488 39.325 109.342 39.2616C109.205 39.1864 109.033 39.1636 108.827 39.193C108.517 39.2371 108.244 39.3497 108.007 39.5308C107.779 39.7002 107.593 39.9108 107.45 40.1627C107.306 40.4042 107.207 40.6709 107.154 40.9625C107.099 41.2439 107.092 41.5238 107.131 41.8022Z" fill="black"/>
<path d="M119.472 40.9282C119.444 40.4916 119.507 40.0281 119.663 39.5377C119.829 39.0465 120.06 38.5981 120.357 38.1923C120.653 37.7761 121.001 37.4244 121.4 37.1372C121.809 36.8493 122.247 36.6899 122.715 36.6592C122.954 36.6434 123.196 36.6693 123.44 36.7367C123.685 36.8041 123.906 36.9096 124.103 37.0532C124.311 37.1961 124.479 37.373 124.608 37.5837C124.747 37.7938 124.825 38.034 124.843 38.3042C124.656 38.3165 124.483 38.307 124.324 38.2757C124.176 38.2437 124.028 38.2065 123.879 38.1641C123.729 38.1113 123.58 38.0689 123.432 38.0369C123.294 38.0042 123.142 37.9934 122.976 38.0043C122.549 38.0324 122.208 38.1644 121.952 38.4005C121.706 38.6255 121.516 38.9042 121.381 39.2367C121.246 39.5692 121.16 39.9245 121.122 40.3028C121.094 40.6701 121.091 41.0148 121.112 41.337C121.116 41.389 121.122 41.4877 121.132 41.6332C121.152 41.7781 121.167 41.9336 121.178 42.0999C121.199 42.2552 121.214 42.4055 121.223 42.5511C121.243 42.6959 121.26 42.794 121.274 42.8452C121.405 43.0872 121.527 43.2723 121.64 43.4006C121.763 43.5282 121.889 43.6242 122.019 43.6888C122.147 43.743 122.285 43.7756 122.432 43.7869C122.578 43.7877 122.75 43.7816 122.948 43.7686C123.218 43.7508 123.449 43.6938 123.641 43.5977C123.844 43.5009 124.029 43.3895 124.199 43.2635C124.368 43.1375 124.526 43.0018 124.673 42.8565C124.819 42.7007 124.972 42.5602 125.13 42.4349C125.299 42.2985 125.48 42.1875 125.672 42.1017C125.875 42.0049 126.106 41.9479 126.366 41.9308C126.399 42.4401 126.335 42.8984 126.174 43.3057C126.024 43.7123 125.791 44.0669 125.477 44.3694C125.173 44.6713 124.803 44.9149 124.366 45.1002C123.939 45.2744 123.466 45.3787 122.946 45.4129C122.458 45.445 122.005 45.3078 121.588 45.0011C121.182 44.6938 120.822 44.3104 120.51 43.8507C120.208 43.3799 119.966 42.8791 119.785 42.3482C119.604 41.8173 119.5 41.3439 119.472 40.9282Z" fill="black"/>
<path d="M133.673 39.122C133.673 39.0595 133.673 38.9606 133.672 38.8251C133.682 38.6793 133.687 38.5282 133.686 38.372C133.696 38.2157 133.701 38.0646 133.7 37.9188C133.71 37.7729 133.715 37.6687 133.714 37.6062C133.828 37.4391 133.974 37.3031 134.15 37.1983C134.338 37.0934 134.525 37.0094 134.712 36.9461C134.745 37.5085 134.836 38.1071 134.984 38.742C135.133 39.3768 135.291 40.0168 135.461 40.662C135.63 41.2968 135.778 41.9265 135.905 42.551C136.043 43.1754 136.113 43.7585 136.115 44.3002C136.117 44.7689 135.878 45.0042 135.399 45.0061C135.107 45.0072 134.862 44.8883 134.663 44.6495C134.465 44.4107 134.302 44.1092 134.176 43.7451C134.06 43.3706 133.964 42.9595 133.89 42.5118C133.815 42.0538 133.761 41.6061 133.728 41.1687C133.706 40.7313 133.688 40.3303 133.677 39.9658C133.675 39.6012 133.674 39.3199 133.673 39.122ZM133.87 33.2618C134.068 33.3444 134.235 33.4792 134.371 33.6662C134.507 33.8531 134.565 34.0248 134.545 34.1811C134.535 34.327 134.421 34.4316 134.203 34.4949C133.984 34.5479 133.619 34.4868 133.108 34.3116C133.107 34.0304 133.158 33.7854 133.262 33.5767C133.375 33.3679 133.578 33.263 133.87 33.2618Z" fill="black"/>
<path d="M142.337 39.3045C142.396 38.2958 142.674 37.5607 143.17 37.0991C143.666 36.6375 144.398 36.4349 145.365 36.491C145.76 36.514 146.164 36.574 146.575 36.6709C146.998 36.7685 147.38 36.9211 147.723 37.1289C148.066 37.3262 148.337 37.5924 148.537 37.9275C148.747 38.2631 148.837 38.6857 148.808 39.1953C148.775 39.7568 148.62 40.2799 148.341 40.7646C148.073 41.2395 147.74 41.6844 147.34 42.0994C146.951 42.5046 146.522 42.8814 146.054 43.2298C145.596 43.5684 145.165 43.8929 144.76 44.2033C144.737 44.2437 144.711 44.3309 144.683 44.4649C144.665 44.5891 144.655 44.672 144.653 44.7136C144.633 45.0567 144.712 45.4056 144.889 45.7603C145.077 46.1259 145.28 46.4925 145.498 46.86C145.716 47.2378 145.913 47.6249 146.088 48.0211C146.263 48.4174 146.339 48.8235 146.315 49.2395C146.3 49.489 146.24 49.6316 146.133 49.6672C146.026 49.7131 145.806 49.7264 145.474 49.7071C145.271 49.6118 145.074 49.4022 144.884 49.0781C144.704 48.765 144.523 48.3789 144.341 47.9196C144.17 47.461 144.001 46.9452 143.836 46.3721C143.681 45.8101 143.532 45.238 143.388 44.6557C143.256 44.0637 143.128 43.4824 143.004 42.9118C142.892 42.3314 142.793 41.7987 142.706 41.3137C142.619 40.8287 142.539 40.4119 142.466 40.0632C142.403 39.7048 142.36 39.4519 142.337 39.3045ZM143.655 39.522C143.646 39.678 143.643 39.9073 143.646 40.2101C143.65 40.5025 143.675 40.7961 143.721 41.0909C143.776 41.3863 143.866 41.6471 143.988 41.8734C144.111 42.0892 144.292 42.2041 144.532 42.218C144.854 42.2367 145.183 42.1462 145.518 41.9466C145.863 41.7475 146.17 41.4889 146.439 41.1706C146.719 40.8529 146.947 40.5115 147.125 40.1461C147.314 39.771 147.417 39.4275 147.435 39.1155C147.45 38.8556 147.4 38.6491 147.283 38.4963C147.168 38.3331 147.013 38.2041 146.821 38.1094C146.639 38.005 146.439 37.936 146.222 37.9025C146.006 37.8586 145.799 37.8309 145.601 37.8195C145.008 37.785 144.541 37.9196 144.2 38.2233C143.87 38.5171 143.688 38.95 143.655 39.522Z" fill="black"/>
<path d="M155.504 41.6996C155.579 41.1422 155.721 40.5938 155.931 40.0544C156.14 39.515 156.419 39.0429 156.768 38.6379C157.127 38.2344 157.558 37.9245 158.06 37.7084C158.572 37.4937 159.164 37.4315 159.835 37.522C160.217 37.5735 160.543 37.691 160.813 37.8744C161.083 38.0476 161.302 38.261 161.467 38.5145C161.633 38.7681 161.741 39.0559 161.792 39.3782C161.855 39.6915 161.864 40.0133 161.82 40.3436C161.749 40.8701 161.556 41.3644 161.242 41.8265C160.937 42.2901 160.553 42.685 160.089 43.0113C159.636 43.3287 159.133 43.5499 158.58 43.6751C158.029 43.79 157.486 43.7589 156.953 43.5819C156.923 43.8827 156.988 44.1385 157.149 44.3494C157.322 44.5513 157.536 44.7168 157.792 44.8459C158.048 44.975 158.318 45.0745 158.603 45.1444C158.889 45.204 159.146 45.2491 159.373 45.2798C159.61 45.3118 159.835 45.321 160.047 45.3076C160.259 45.2941 160.472 45.2755 160.685 45.2517C160.899 45.2279 161.111 45.2093 161.324 45.1958C161.546 45.1837 161.776 45.1937 162.013 45.2257C162.106 45.2382 162.198 45.2559 162.29 45.2787C162.381 45.3016 162.466 45.3392 162.543 45.3917C162.621 45.4338 162.681 45.4996 162.721 45.5891C162.763 45.6683 162.776 45.7647 162.761 45.8783C162.734 46.0744 162.64 46.2299 162.477 46.3446C162.316 46.449 162.116 46.5323 161.876 46.5946C161.647 46.6583 161.394 46.6979 161.119 46.7133C160.845 46.7184 160.577 46.7191 160.315 46.7153C160.064 46.7025 159.83 46.6816 159.614 46.6523C159.406 46.6348 159.25 46.6191 159.147 46.6052C158.486 46.5162 157.907 46.3329 157.408 46.0555C156.911 45.7677 156.506 45.4137 156.195 44.9934C155.885 44.5627 155.668 44.0709 155.543 43.518C155.429 42.9561 155.416 42.35 155.504 41.6996ZM157.281 40.9143C157.232 41.2757 157.243 41.5452 157.314 41.7229C157.395 41.9019 157.626 42.0172 158.008 42.0687C158.277 42.1049 158.546 42.0939 158.817 42.0358C159.089 41.9673 159.34 41.8593 159.57 41.7116C159.811 41.5653 160.009 41.3818 160.165 41.1611C160.32 40.9404 160.417 40.6906 160.455 40.4119C160.476 40.257 160.482 40.0949 160.473 39.9256C160.475 39.7576 160.443 39.601 160.379 39.4557C160.316 39.3 160.222 39.1718 160.099 39.0712C159.988 38.9616 159.829 38.8928 159.623 38.865C159.313 38.8233 159.019 38.8573 158.742 38.967C158.476 39.0678 158.24 39.2199 158.034 39.4234C157.829 39.6165 157.662 39.8462 157.531 40.1124C157.402 40.3683 157.319 40.6356 157.281 40.9143Z" fill="black"/>
</svg>
