<svg width="199" height="62" viewBox="0 0 199 62" fill="none" xmlns="http://www.w3.org/2000/svg">
<path d="M198.5 38.0943C198.5 47.4676 182.268 47.7043 154 52.4156C138.13 55.0605 120.254 61.5943 100 61.5943C79.7455 61.5943 60.8699 59.2392 45 56.5943C16.7316 51.883 0 39.4676 0 30.0943C0 20.9438 10.8514 5.35585 38 0.594273C54.2736 -2.25995 80.8877 6.09427 102 6.09427C123.112 6.09427 143.226 11.2401 159.5 14.0943C186.649 18.8559 198.5 28.9438 198.5 38.0943Z" fill="#D5AE4C"/>
<path d="M45.1628 6.37075C47.2371 6.51376 50.6957 6.65504 53.3029 8.61126C53.7049 8.91293 53.7237 8.95336 55.6151 10.0841C58.208 11.6341 60.8059 12.3697 59.4596 14.7666C58.765 16.0032 57.4854 16.4535 56.22 16.6628C53.3512 17.1373 51.0202 16.9044 48.632 16.8046C45.5554 16.6761 43.9983 16.0868 40.8347 16.61C37.6711 17.1332 34.6456 18.252 32.3241 19.007C30.0026 19.762 28.0795 20.3274 25.5022 20.7536C24.2368 20.9629 21.2929 20.9348 20.2404 19.0266C19.2931 17.3092 20.1876 14.8301 21.0343 13.948C22.8242 12.0833 25.2058 11.3649 27.0901 10.5965C29.1309 9.76427 32.3106 8.36908 35.1107 7.78586C37.9936 7.18539 41.2193 6.09887 45.1628 6.37075Z" fill="#E4E4E4" fill-opacity="0.8"/>
<path d="M24.4274 23.521C24.8749 23.4306 25.2819 23.3882 25.6482 23.3939C26.0273 23.3924 26.3916 23.4246 26.741 23.4905C27.1032 23.5492 27.4598 23.6279 27.8108 23.7267C28.1718 23.8283 28.5628 23.9384 28.9839 24.0569C29.0642 24.0795 29.1981 24.1226 29.3858 24.1863C29.5863 24.2427 29.7969 24.302 30.0175 24.3641C30.2481 24.429 30.4587 24.4883 30.6492 24.5419C30.8397 24.5955 30.9751 24.6336 31.0553 24.6562C31.1543 24.7274 31.2198 24.8215 31.2517 24.9387C31.2837 25.0559 31.2991 25.1739 31.2982 25.2927C31.2972 25.4115 31.2848 25.5324 31.261 25.6556C31.2399 25.7687 31.221 25.8553 31.204 25.9155L26.2407 24.5184L25.3304 27.7521L30.7149 29.2677C30.619 29.6087 30.4375 29.8497 30.1705 29.991C29.9063 30.1223 29.5982 30.1979 29.2463 30.2179C28.9044 30.2407 28.5323 30.2171 28.13 30.1471C27.7304 30.0671 27.3552 29.9777 27.0043 29.8789C26.6561 29.7701 26.3495 29.6676 26.0845 29.5713C25.8194 29.4751 25.6417 29.4142 25.5515 29.3888L25.4626 29.7047C25.344 30.1258 25.3314 30.5551 25.4247 30.9926C25.5208 31.42 25.6398 31.8431 25.7816 32.2618C25.9335 32.6833 26.0618 33.0927 26.1663 33.4901C26.2809 33.8903 26.2889 34.2659 26.1901 34.6168C26.128 34.8374 26.0278 35.0202 25.8896 35.1653C25.7542 35.3003 25.5662 35.334 25.3255 35.2662C25.0748 35.1957 24.8609 34.9948 24.6836 34.6635C24.5163 34.335 24.378 33.9228 24.2688 33.4267C24.1624 32.9206 24.0829 32.3572 24.0304 31.7364C23.9907 31.1084 23.9617 30.4618 23.9434 29.7965C23.9379 29.124 23.9446 28.4658 23.9635 27.8218C23.9953 27.1707 24.0345 26.5703 24.081 26.0207C24.1303 25.461 24.1813 24.9722 24.234 24.5541C24.2868 24.1361 24.3385 23.8369 24.3893 23.6564L24.4274 23.521Z" fill="black"/>
<path d="M37.2421 32.2641C37.256 32.2032 37.278 32.1067 37.3082 31.9747C37.3509 31.8348 37.3896 31.6888 37.4244 31.5364C37.4694 31.3864 37.5081 31.2404 37.5406 31.0982C37.5832 30.9583 37.6115 30.858 37.6255 30.797C37.7743 30.6601 37.9466 30.5606 38.1425 30.4985C38.3485 30.4387 38.5498 30.3992 38.7465 30.3801C38.6517 30.9354 38.6045 31.539 38.6051 32.191C38.6057 32.8429 38.6153 33.5022 38.6339 34.169C38.6548 34.8255 38.6566 35.4724 38.6392 36.1095C38.6319 36.749 38.568 37.3328 38.4473 37.8608C38.3428 38.3178 38.057 38.4929 37.5899 38.3861C37.3056 38.3211 37.0936 38.1498 36.9541 37.8722C36.8145 37.5945 36.7244 37.264 36.6838 36.8808C36.6556 36.4897 36.6559 36.0677 36.6846 35.6148C36.7157 35.1517 36.7647 34.7034 36.8317 34.27C36.9089 33.8388 36.983 33.4444 37.0541 33.0866C37.1353 32.7312 37.198 32.457 37.2421 32.2641ZM38.7608 26.6008C38.9352 26.7261 39.0675 26.8952 39.1577 27.1082C39.248 27.3212 39.2655 27.5015 39.2104 27.6492C39.1678 27.789 39.0329 27.865 38.8057 27.8772C38.5808 27.8792 38.2393 27.7371 37.7812 27.4507C37.8439 27.1765 37.9492 26.9495 38.0971 26.7696C38.2553 26.5921 38.4765 26.5358 38.7608 26.6008Z" fill="black"/>
<path d="M45.0225 34.5881C45.0691 34.3213 45.1689 34.1431 45.3221 34.0535C45.477 33.9537 45.7032 33.9297 46.0008 33.9817L46.1547 34.0085C46.1568 34.1781 46.1596 34.3742 46.163 34.5969C46.1664 34.8195 46.1895 35.0509 46.2322 35.291C46.2749 35.5311 46.3356 35.7584 46.4144 35.9731C46.4951 36.1775 46.6076 36.3505 46.7521 36.492C46.8251 36.1347 46.9723 35.8061 47.1938 35.5064C47.4274 35.1983 47.6897 34.9374 47.9808 34.7239C48.2839 34.5019 48.5994 34.3296 48.9275 34.2071C49.2676 34.0762 49.5918 34.0059 49.9001 33.9962L50.2387 34.0554C50.7313 34.1414 51.1323 34.3277 51.4418 34.6143C51.7531 34.8907 51.9902 35.2282 52.1533 35.6268C52.3284 36.0169 52.4381 36.4484 52.4824 36.9214C52.5267 37.3944 52.5384 37.8723 52.5176 38.3551C52.5088 38.8294 52.471 39.2881 52.4043 39.7311C52.3495 40.1657 52.2953 40.5369 52.2416 40.8447L51.1179 40.6486C51.1639 40.0221 51.1899 39.4187 51.1961 38.8381C51.2047 38.607 51.2049 38.3638 51.1966 38.1086C51.19 37.8431 51.1748 37.5972 51.1509 37.371C51.1287 37.1345 51.0978 36.9176 51.0582 36.7204C51.0205 36.5129 50.967 36.3344 50.898 36.1848C50.8641 36.1366 50.8175 36.0703 50.7582 35.986C50.7092 35.9034 50.655 35.8199 50.5957 35.7355C50.5364 35.6512 50.4805 35.578 50.4279 35.5159C50.3753 35.4538 50.3438 35.4219 50.3336 35.4201C50.0401 35.2843 49.7625 35.2993 49.5009 35.4651C49.2411 35.6207 48.9945 35.8525 48.7609 36.1607C48.5273 36.4689 48.3165 36.8286 48.1284 37.2399C47.9505 37.6529 47.7907 38.0533 47.649 38.441C47.5091 38.8184 47.3978 39.1532 47.3151 39.4454C47.2341 39.7273 47.1832 39.8982 47.1622 39.9579C46.8734 40.0979 46.6224 40.1122 46.4092 40.001C46.1977 39.8795 46.0109 39.6777 45.8487 39.3956C45.6967 39.1152 45.5709 38.776 45.4712 38.378C45.3818 37.9817 45.3062 37.5667 45.2444 37.1329C45.1845 36.6889 45.1348 36.2467 45.0954 35.8063C45.0662 35.3676 45.0419 34.9616 45.0225 34.5881Z" fill="black"/>
<path d="M58.8237 40.3006C58.8901 39.7001 59.0993 39.1835 59.451 38.7509C59.8028 38.3182 60.2202 37.9556 60.7032 37.6632C61.1874 37.3604 61.7015 37.1186 62.2455 36.9378C62.7907 36.7466 63.2944 36.5979 63.7568 36.4919C64.2203 36.3755 64.6074 36.2873 64.9179 36.2273C65.2296 36.157 65.3889 36.0908 65.3958 36.0287C65.4359 35.6663 65.4541 35.312 65.4505 34.9657C65.4584 34.6103 65.4611 34.2543 65.4586 33.8977C65.4562 33.5411 65.4531 33.1896 65.4495 32.8434C65.4574 32.4879 65.4803 32.1394 65.518 31.7977L65.6297 30.7882C66.0714 30.6799 66.3699 30.7286 66.5253 30.9345C66.6911 31.1415 66.6866 31.4659 66.512 31.9077C66.5282 32.14 66.5456 32.5035 66.5643 32.9982C66.5829 33.4928 66.5998 34.0501 66.6151 34.6701C66.6407 35.2913 66.6629 35.9435 66.6816 36.6268C66.7107 37.3112 66.7323 37.9686 66.7464 38.599C66.772 39.2202 66.7889 39.7775 66.7972 40.271C66.8066 40.7541 66.8137 41.1165 66.8184 41.358C66.823 41.411 66.8219 41.5156 66.8151 41.6721C66.8094 41.8182 66.7968 41.9792 66.7774 42.1552C66.7694 42.322 66.7574 42.4779 66.7414 42.6229C66.7357 42.769 66.7294 42.8731 66.7225 42.9352C66.3291 42.8917 66.0616 42.8464 65.9201 42.7993C65.7889 42.7533 65.7078 42.6814 65.6767 42.5837C65.656 42.4871 65.6553 42.3508 65.6748 42.1747C65.6943 41.9987 65.6694 41.7497 65.6002 41.4276C65.1839 41.6855 64.7941 41.8939 64.4307 42.0528C64.0672 42.2117 63.7078 42.3344 63.3524 42.4209C62.9981 42.4969 62.6427 42.5362 62.2861 42.5387C61.9387 42.5527 61.5683 42.5379 61.1749 42.4944C60.8435 42.4577 60.5255 42.3963 60.2206 42.3102C59.9272 42.2148 59.6695 42.0815 59.4474 41.9102C59.2253 41.7389 59.0555 41.521 58.938 41.2565C58.8206 40.992 58.7825 40.6734 58.8237 40.3006ZM60.2109 40.124C60.1926 40.2896 60.2139 40.4282 60.275 40.5398C60.336 40.6514 60.4194 40.7497 60.5253 40.8347C60.6312 40.9198 60.7445 40.9848 60.8653 41.0296C60.9976 41.0652 61.1259 41.0898 61.2501 41.1036C61.6125 41.1437 62.0082 41.1193 62.4372 41.0305C62.8778 40.9326 63.2878 40.7788 63.6673 40.5693C64.0583 40.3505 64.3872 40.0777 64.6539 39.7509C64.931 39.4252 65.0924 39.0553 65.1382 38.6412C65.1737 38.3202 65.1414 38.0913 65.0413 37.9545C64.9411 37.8176 64.7306 37.7315 64.4096 37.696C64.0783 37.6593 63.6815 37.694 63.2191 37.8001C62.767 37.9072 62.3196 38.0674 61.8769 38.2804C61.4444 38.4945 61.069 38.7622 60.7505 39.0833C60.4332 39.394 60.2533 39.7409 60.2109 40.124Z" fill="black"/>
<path d="M85.9255 37.4898C85.9251 37.3961 85.9299 37.3023 85.9399 37.2085C85.9499 37.1043 85.9703 37.0157 86.0013 36.9426C86.0322 36.8592 86.0787 36.7912 86.141 36.7389C86.2137 36.6865 86.3126 36.66 86.4376 36.6595C86.5417 36.659 86.6567 36.7419 86.7824 36.908C86.9185 37.0637 87.0548 37.2662 87.1913 37.5156C87.3277 37.7546 87.4591 38.0197 87.5853 38.3108C87.722 38.6019 87.8378 38.8722 87.9326 39.1218C88.0378 39.3609 88.122 39.5689 88.1853 39.7457C88.2485 39.9225 88.2854 40.0161 88.2959 40.0265C88.4297 39.6613 88.579 39.2648 88.7439 38.837C88.9087 38.4092 89.1101 38.0125 89.3481 37.6469C89.5965 37.2708 89.8868 36.9571 90.219 36.7056C90.5617 36.4542 90.9778 36.3274 91.4674 36.3252C91.7174 36.3242 91.952 36.3648 92.1711 36.4472C92.4005 36.5191 92.599 36.6329 92.7663 36.7884C92.944 36.9335 93.0854 37.1099 93.1905 37.3178C93.2955 37.5257 93.3486 37.765 93.3498 38.0359C93.3508 38.265 93.2578 38.4269 93.0707 38.5215C92.894 38.616 92.6911 38.6637 92.4619 38.6647L92.3057 38.6654L91.6309 37.9964C91.61 37.9965 91.5944 37.9914 91.5839 37.981C91.5631 37.9811 91.5423 37.9812 91.5214 37.9813C91.511 37.9709 91.4953 37.9658 91.4745 37.9659C91.1099 37.9674 90.8239 38.0728 90.6165 38.2821C90.4194 38.4808 90.2695 38.7315 90.1666 39.034C90.0637 39.3261 89.9973 39.6389 89.9675 39.9724C89.9481 40.2954 89.939 40.5923 89.9401 40.8631C89.941 41.0715 89.9628 41.2849 90.0054 41.5035C90.048 41.7116 90.0957 41.9198 90.1487 42.1279C90.2017 42.3256 90.2494 42.5337 90.292 42.7523C90.3346 42.9604 90.3564 43.1791 90.3574 43.4082C90.3593 43.8457 90.1258 44.0655 89.6571 44.0675C89.3967 44.0686 89.1253 43.9344 88.8428 43.6648C88.5604 43.3847 88.2776 43.0318 87.9945 42.6059C87.7218 42.18 87.4594 41.7124 87.2072 41.2031C86.9549 40.6833 86.734 40.1791 86.5444 39.6903C86.3548 39.2015 86.2018 38.7595 86.0855 38.3641C85.9797 37.9688 85.9263 37.6773 85.9255 37.4898Z" fill="black"/>
<path d="M98.7159 39.5102C98.6806 38.9488 98.713 38.3832 98.8129 37.8133C98.9129 37.2435 99.0943 36.7259 99.3574 36.2606C99.6308 35.7946 99.9927 35.4066 100.443 35.0966C100.904 34.7859 101.472 34.6093 102.147 34.5669C102.532 34.5428 102.875 34.5944 103.175 34.7216C103.474 34.8385 103.73 35.0051 103.942 35.2215C104.154 35.4378 104.316 35.699 104.429 36.005C104.552 36.3 104.624 36.6138 104.645 36.9465C104.678 37.4767 104.586 37.9991 104.368 38.5138C104.16 39.0278 103.86 39.4902 103.468 39.9009C103.086 40.3006 102.637 40.6159 102.119 40.8467C101.6 41.0671 101.062 41.1426 100.505 41.0732C100.534 41.374 100.648 41.6121 100.847 41.7875C101.056 41.9519 101.298 42.0723 101.574 42.1489C101.85 42.2256 102.135 42.2703 102.428 42.2832C102.72 42.2858 102.981 42.2799 103.21 42.2655C103.449 42.2505 103.671 42.2157 103.876 42.1611C104.082 42.1064 104.287 42.0466 104.491 41.9816C104.696 41.9166 104.901 41.8567 105.106 41.8021C105.322 41.7468 105.549 41.7117 105.789 41.6967C105.882 41.6908 105.976 41.6901 106.07 41.6947C106.164 41.6992 106.254 41.7196 106.34 41.756C106.425 41.782 106.496 41.8349 106.554 41.9148C106.61 41.9843 106.642 42.0763 106.649 42.1906C106.662 42.3882 106.599 42.5591 106.462 42.7033C106.325 42.8372 106.144 42.9581 105.921 43.066C105.709 43.1733 105.469 43.2614 105.202 43.3304C104.934 43.3889 104.672 43.4419 104.414 43.4894C104.165 43.5259 103.932 43.5509 103.714 43.5646C103.507 43.5881 103.351 43.603 103.247 43.6096C102.582 43.6513 101.977 43.5848 101.434 43.4102C100.89 43.2251 100.425 42.9569 100.037 42.6054C99.6493 42.2436 99.3399 41.8038 99.1091 41.286C98.888 40.7571 98.7569 40.1652 98.7159 39.5102ZM100.305 38.3929C100.328 38.7568 100.392 39.0189 100.496 39.1794C100.61 39.3392 100.859 39.4071 101.244 39.3829C101.514 39.366 101.777 39.3026 102.031 39.1927C102.284 39.0724 102.509 38.9174 102.706 38.7276C102.913 38.5372 103.072 38.3185 103.181 38.0716C103.291 37.8246 103.337 37.5608 103.32 37.2801C103.31 37.1242 103.284 36.964 103.243 36.7996C103.211 36.6346 103.15 36.4871 103.058 36.3572C102.966 36.2168 102.85 36.1093 102.709 36.0346C102.579 35.9489 102.409 35.9125 102.201 35.9256C101.889 35.9452 101.608 36.0359 101.357 36.1977C101.116 36.3485 100.915 36.5438 100.752 36.7836C100.589 37.013 100.47 37.271 100.394 37.5576C100.317 37.8338 100.288 38.1122 100.305 38.3929Z" fill="black"/>
<path d="M112.105 38.1564C112.052 37.7221 112.09 37.2558 112.218 36.7575C112.357 36.258 112.563 35.7974 112.837 35.3758C113.11 34.9439 113.437 34.5736 113.819 34.2648C114.212 33.9547 114.641 33.7714 115.106 33.7148C115.344 33.6859 115.587 33.6983 115.835 33.7521C116.083 33.806 116.309 33.8991 116.514 34.0316C116.73 34.1628 116.907 34.3301 117.047 34.5334C117.198 34.7355 117.289 34.9709 117.322 35.2398C117.136 35.2624 116.963 35.2625 116.803 35.24C116.653 35.2162 116.503 35.1873 116.351 35.1532C116.199 35.1087 116.048 35.0746 115.898 35.0509C115.759 35.0258 115.606 35.0234 115.441 35.0435C115.017 35.095 114.684 35.2457 114.441 35.4956C114.208 35.7338 114.033 36.0226 113.917 36.3621C113.801 36.7015 113.734 37.0611 113.718 37.4409C113.71 37.8091 113.726 38.1535 113.765 38.474C113.771 38.5257 113.783 38.624 113.8 38.7687C113.828 38.9122 113.852 39.0667 113.873 39.2322C113.902 39.386 113.925 39.5353 113.943 39.6801C113.971 39.8236 113.993 39.9206 114.01 39.971C114.154 40.2054 114.285 40.3835 114.405 40.5053C114.535 40.6259 114.667 40.7149 114.8 40.7722C114.931 40.8191 115.071 40.8441 115.218 40.8472C115.364 40.84 115.535 40.8244 115.732 40.8005C116.001 40.7678 116.228 40.6982 116.415 40.5916C116.611 40.4837 116.791 40.3622 116.953 40.2271C117.115 40.092 117.265 39.9478 117.404 39.7945C117.541 39.6308 117.686 39.4821 117.837 39.3482C117.998 39.2028 118.172 39.0819 118.36 38.9856C118.557 38.8778 118.784 38.8081 119.043 38.7767C119.104 39.2834 119.066 39.7445 118.928 40.1601C118.8 40.5744 118.587 40.9413 118.29 41.2607C118.004 41.5788 117.647 41.8425 117.222 42.0517C116.805 42.2493 116.338 42.3795 115.821 42.4423C115.335 42.5014 114.876 42.3894 114.442 42.1063C114.02 41.8219 113.64 41.4589 113.303 41.0171C112.975 40.5638 112.706 40.0771 112.495 39.557C112.285 39.0369 112.155 38.57 112.105 38.1564Z" fill="black"/>
<path d="M125.556 35.1483C125.545 35.0867 125.529 34.9891 125.506 34.8556C125.492 34.7101 125.472 34.5603 125.446 34.4063C125.43 34.2505 125.409 34.1007 125.385 33.957C125.371 33.8115 125.358 33.7079 125.348 33.6463C125.433 33.4628 125.554 33.3048 125.711 33.1724C125.879 33.0383 126.049 32.9247 126.224 32.8316C126.349 33.3809 126.537 33.9565 126.787 34.5585C127.037 35.1604 127.299 35.7658 127.571 36.3745C127.842 36.973 128.092 37.5698 128.32 38.165C128.558 38.7584 128.723 39.3221 128.814 39.8561C128.892 40.3182 128.695 40.5895 128.223 40.6698C127.935 40.7187 127.674 40.6417 127.439 40.4387C127.203 40.2357 126.994 39.965 126.809 39.6265C126.633 39.2761 126.472 38.8862 126.325 38.4568C126.176 38.0172 126.05 37.5844 125.945 37.1583C125.852 36.7305 125.769 36.3378 125.697 35.9801C125.636 35.6207 125.589 35.3434 125.556 35.1483ZM124.789 29.3352C124.998 29.3842 125.185 29.4897 125.35 29.6519C125.515 29.814 125.6 29.9738 125.606 30.1314C125.62 30.2769 125.525 30.3988 125.319 30.4971C125.112 30.5851 124.743 30.5847 124.21 30.4957C124.162 30.2184 124.173 29.9684 124.241 29.7455C124.319 29.5209 124.501 29.3842 124.789 29.3352Z" fill="black"/>
<path d="M133.542 33.8032C133.325 32.8163 133.393 32.0335 133.746 31.4548C134.099 30.8761 134.749 30.4829 135.695 30.2753C136.082 30.1904 136.486 30.1389 136.909 30.1208C137.342 30.1005 137.751 30.1439 138.137 30.2511C138.521 30.3482 138.854 30.531 139.137 30.7995C139.43 31.0658 139.632 31.4482 139.741 31.9467C139.862 32.4962 139.853 33.0418 139.716 33.5838C139.587 34.1134 139.387 34.632 139.114 35.1397C138.85 35.6351 138.539 36.1139 138.182 36.5762C137.832 37.0261 137.505 37.4551 137.2 37.8633C137.189 37.9085 137.188 37.9994 137.196 38.1362C137.213 38.2605 137.226 38.343 137.235 38.3837C137.308 38.7195 137.479 39.034 137.746 39.3273C138.025 39.6286 138.32 39.9265 138.63 40.2211C138.942 40.5258 139.236 40.8452 139.512 41.1793C139.788 41.5133 139.97 41.8838 140.06 42.2908C140.113 42.535 140.094 42.6886 140.001 42.7516C139.91 42.8248 139.702 42.8971 139.377 42.9686C139.155 42.9319 138.909 42.7832 138.639 42.5226C138.381 42.27 138.102 41.9473 137.803 41.5544C137.513 41.1593 137.212 40.7083 136.898 40.2013C136.596 39.7023 136.298 39.1919 136.002 38.6703C135.714 38.1362 135.433 37.6112 135.16 37.0953C134.895 36.567 134.655 36.0811 134.44 35.6376C134.226 35.1942 134.036 34.8146 133.87 34.4989C133.713 34.1709 133.604 33.939 133.542 33.8032ZM134.869 33.6559C134.903 33.8085 134.962 34.0301 135.047 34.3207C135.13 34.6011 135.233 34.8771 135.357 35.1485C135.491 35.4178 135.647 35.6447 135.826 35.8294C136.003 36.0038 136.209 36.0654 136.443 36.014C136.758 35.9448 137.05 35.7687 137.318 35.4859C137.597 35.2007 137.823 34.8686 137.996 34.4894C138.178 34.108 138.306 33.7174 138.378 33.3176C138.458 32.9054 138.465 32.5467 138.398 32.2415C138.342 31.9871 138.238 31.8021 138.084 31.6865C137.929 31.5607 137.745 31.4783 137.534 31.4393C137.331 31.3879 137.12 31.3755 136.902 31.402C136.682 31.4184 136.475 31.4478 136.282 31.4902C135.702 31.6175 135.289 31.8735 135.042 32.2581C134.804 32.6304 134.746 33.0963 134.869 33.6559Z" fill="black"/>
<path d="M146.3 32.3123C146.148 31.7708 146.06 31.211 146.038 30.6329C146.016 30.0547 146.085 29.5106 146.244 29.0004C146.414 28.4874 146.686 28.032 147.061 27.6342C147.446 27.2337 147.964 26.9417 148.616 26.7582C148.987 26.6538 149.333 26.6323 149.653 26.6936C149.971 26.7449 150.256 26.8541 150.508 27.021C150.761 27.188 150.975 27.4092 151.15 27.6846C151.332 27.9472 151.468 28.2389 151.558 28.5597C151.702 29.0711 151.721 29.6013 151.616 30.1504C151.521 30.6966 151.325 31.2116 151.029 31.6955C150.739 32.1666 150.366 32.5693 149.908 32.9038C149.447 33.2282 148.937 33.4151 148.377 33.4644C148.469 33.7524 148.631 33.9612 148.862 34.0909C149.101 34.2077 149.363 34.2745 149.649 34.2914C149.935 34.3083 150.223 34.2922 150.512 34.2433C150.799 34.1843 151.052 34.1238 151.273 34.0617C151.503 33.9968 151.713 33.916 151.902 33.8195C152.092 33.7229 152.28 33.6213 152.466 33.5148C152.652 33.4082 152.84 33.3066 153.029 33.21C153.229 33.1107 153.444 33.0285 153.674 32.9636C153.765 32.9382 153.856 32.9178 153.949 32.9024C154.042 32.8871 154.135 32.8881 154.226 32.9057C154.315 32.9132 154.396 32.95 154.468 33.0161C154.538 33.0722 154.589 33.1553 154.62 33.2656C154.673 33.4561 154.648 33.6363 154.545 33.8062C154.438 33.966 154.287 34.1221 154.092 34.2745C153.907 34.424 153.691 34.5605 153.444 34.684C153.195 34.7975 152.949 34.9046 152.707 35.0052C152.472 35.093 152.249 35.1665 152.039 35.2258C151.841 35.2923 151.692 35.3396 151.592 35.3679C150.95 35.5485 150.345 35.6105 149.777 35.5539C149.207 35.4873 148.695 35.3229 148.242 35.0607C147.787 34.7885 147.392 34.4235 147.058 33.9657C146.73 33.4951 146.478 32.944 146.3 32.3123ZM147.619 30.8859C147.718 31.2368 147.835 31.4798 147.97 31.6149C148.116 31.7471 148.374 31.761 148.745 31.6565C149.006 31.5831 149.249 31.4661 149.474 31.3052C149.697 31.1344 149.884 30.9355 150.037 30.7086C150.199 30.4789 150.308 30.2318 150.364 29.9673C150.419 29.7028 150.409 29.4352 150.332 29.1645C150.29 29.0141 150.231 28.8629 150.156 28.7109C150.091 28.5561 150 28.4249 149.883 28.3171C149.763 28.1993 149.627 28.1186 149.474 28.0751C149.328 28.0187 149.155 28.0188 148.954 28.0752C148.654 28.1599 148.398 28.3077 148.187 28.5186C147.983 28.7167 147.826 28.9501 147.718 29.2186C147.607 29.4772 147.544 29.7545 147.53 30.0506C147.513 30.3368 147.543 30.6152 147.619 30.8859Z" fill="black"/>
</svg>
