<svg width="199" height="62" viewBox="0 0 199 62" fill="none" xmlns="http://www.w3.org/2000/svg">
<path d="M198.5 38.0943C198.5 47.4676 182.268 47.7043 154 52.4156C138.13 55.0605 120.254 61.5943 100 61.5943C79.7455 61.5943 60.8699 59.2392 45 56.5943C16.7316 51.883 0 39.4676 0 30.0943C0 20.9438 10.8514 5.35585 38 0.594273C54.2736 -2.25995 80.8877 6.09427 102 6.09427C123.112 6.09427 143.226 11.2401 159.5 14.0943C186.649 18.8559 198.5 28.9438 198.5 38.0943Z" fill="#D5AE4C"/>
<path d="M45.1626 6.37075C47.2369 6.51376 50.6955 6.65504 53.3026 8.61126C53.7047 8.91293 53.7234 8.95336 55.6149 10.0841C58.2078 11.6341 60.8056 12.3697 59.4593 14.7666C58.7647 16.0032 57.4852 16.4535 56.2198 16.6628C53.3509 17.1373 51.02 16.9044 48.6318 16.8046C45.5551 16.6761 43.998 16.0868 40.8345 16.61C37.6709 17.1332 34.6453 18.252 32.3238 19.007C30.0023 19.762 28.0793 20.3274 25.502 20.7536C24.2365 20.9629 21.2926 20.9348 20.2401 19.0266C19.2929 17.3092 20.1874 14.8301 21.0341 13.948C22.8239 12.0833 25.2056 11.3649 27.0898 10.5965C29.1306 9.76427 32.3103 8.36908 35.1104 7.78586C37.9933 7.18539 41.2191 6.09887 45.1626 6.37075Z" fill="#E4E4E4" fill-opacity="0.8"/>
</svg>
