<svg width="190" height="116" viewBox="0 0 190 116" fill="none" xmlns="http://www.w3.org/2000/svg">
<path d="M175.749 22.229C177.978 30.2644 178.942 47.1469 166.457 56.3859C150.573 64.5975 139.384 82.3783 116.028 88.8554C95.8916 94.4397 65.7104 87.232 49.3754 88.8554C21.6745 91.6083 11.0335 87.181 8.57317 78.3093C7.77562 66.0775 30.0942 59.6935 38.6681 50.2461C46.2194 41.9255 80.3828 52.2631 103.028 45.983C117.483 41.9744 138.59 4.90389 157.249 4.22902C178.092 3.47516 173.685 14.7876 175.749 22.229Z" fill="#D5AE4C"/>
<path d="M43.9467 56.2107C45.6332 55.4343 48.4044 54.0772 51.2697 54.2485C51.7116 54.2749 51.7432 54.2931 53.7009 54.2311C56.3846 54.1461 58.7303 53.5331 58.6806 55.6444C58.655 56.7337 57.8407 57.5603 56.9363 58.2253C54.886 59.733 52.9606 60.5588 51.0461 61.4945C48.5797 62.6999 47.1115 62.9715 44.8505 64.6341C42.5895 66.2967 40.6867 68.286 39.1832 69.7457C37.6798 71.2053 36.4093 72.3756 34.5672 73.7301C33.6628 74.3952 31.3427 75.6098 29.7165 74.8185C28.253 74.1063 27.9139 72.1312 28.2076 71.2071C28.8284 69.2536 30.3943 67.7924 31.5493 66.5073C32.8002 65.1153 34.7078 62.883 36.6586 61.3338C38.6671 59.7389 40.7405 57.6865 43.9467 56.2107Z" fill="#E4E4E4" fill-opacity="0.8"/>
<path d="M65.6339 61.1236C65.7114 60.9302 65.8247 60.8298 65.9736 60.8221C66.1322 60.8184 66.2889 60.8476 66.4436 60.9096C66.4726 60.9212 66.5238 60.9474 66.5973 60.9881C66.6804 61.0326 66.7317 61.0588 66.751 61.0665C66.6598 61.3779 66.5435 61.7521 66.4019 62.1891C66.2642 62.6165 66.1158 63.0845 65.9568 63.5931C65.8016 64.092 65.6483 64.6141 65.497 65.1595C65.3457 65.7048 65.2224 66.2502 65.1271 66.7956C65.0358 67.3313 64.9763 67.8574 64.9488 68.3739C64.9252 68.8806 64.9586 69.343 65.0492 69.7609C65.0626 69.8673 65.079 69.9524 65.0983 70.0162C65.1311 70.0743 65.1611 70.1256 65.1881 70.1701C65.2287 70.2088 65.2761 70.2446 65.3302 70.2776C65.3882 70.3008 65.4607 70.3299 65.5477 70.3648C65.9441 70.5237 66.3483 70.6073 66.7603 70.6153C67.182 70.6273 67.6047 70.6228 68.0283 70.6019C68.4519 70.581 68.8746 70.5765 69.2963 70.5885C69.7179 70.6004 70.1318 70.6878 70.5379 70.8507C70.6249 70.8856 70.7361 70.9301 70.8714 70.9844C71.0107 71.029 71.1344 71.0843 71.2427 71.1501C71.351 71.216 71.4331 71.305 71.4891 71.4173C71.5451 71.5295 71.5421 71.663 71.48 71.8177C71.4219 71.9627 71.2274 72.0699 70.8966 72.1392C70.5696 72.1989 70.1682 72.2344 69.6924 72.2456C69.2204 72.2471 68.7097 72.2331 68.1604 72.2036C67.6208 72.178 67.1034 72.1389 66.6082 72.0863C66.1227 72.0375 65.6953 71.9839 65.3259 71.9256C64.9604 71.8576 64.7244 71.8023 64.6181 71.7596C64.27 71.6201 64.0071 71.38 63.8295 71.0394C63.6653 70.693 63.5612 70.2809 63.5172 69.8031C63.4866 69.3195 63.5064 68.7943 63.5765 68.2276C63.6505 67.6513 63.7564 67.0652 63.8943 66.4696C64.0321 65.8739 64.1874 65.2909 64.36 64.7204C64.5326 64.1499 64.7043 63.6239 64.8749 63.1424C65.0455 62.6609 65.1977 62.2394 65.3315 61.8777C65.4749 61.52 65.5757 61.2686 65.6339 61.1236Z" fill="black"/>
<path d="M76.9139 72.6288C77.0215 71.992 77.2703 71.4266 77.6601 70.9326C78.0517 70.4283 78.5219 70.0218 79.0706 69.7131C79.6313 69.3958 80.2337 69.1754 80.8779 69.0519C81.5324 68.9301 82.1728 68.9221 82.7994 69.028C83.1486 69.087 83.4376 69.2521 83.6665 69.5232C83.9056 69.796 84.0898 70.1124 84.2192 70.4723C84.3502 70.8219 84.4316 71.1843 84.4633 71.5594C84.5053 71.9363 84.5037 72.2582 84.4585 72.5252C84.3613 73.1004 84.1281 73.6368 83.7588 74.1343C83.3912 74.6215 82.951 75.0383 82.4382 75.3848C81.9271 75.721 81.3725 75.9706 80.7745 76.1337C80.1765 76.2967 79.6001 76.3314 79.0455 76.2376C78.5525 76.1543 78.1504 76.0018 77.8392 75.7802C77.5298 75.5483 77.2958 75.2764 77.1372 74.9643C76.9804 74.642 76.8828 74.2822 76.8443 73.8848C76.8178 73.4789 76.841 73.0602 76.9139 72.6288ZM78.1974 73.0042C78.1523 73.2713 78.1329 73.511 78.1393 73.7233C78.1577 73.9272 78.2112 74.1105 78.2999 74.2734C78.3988 74.438 78.5389 74.5779 78.7202 74.6931C78.9032 74.798 79.1385 74.8747 79.4261 74.9233C79.8061 74.9875 80.2035 74.949 80.6182 74.8078C81.0347 74.6564 81.4188 74.4466 81.7705 74.1785C82.1341 73.902 82.4414 73.5841 82.6922 73.2251C82.9431 72.866 83.0997 72.5016 83.1622 72.1319C83.19 71.9675 83.205 71.7852 83.2071 71.5848C83.2093 71.3845 83.1883 71.196 83.1442 71.0195C83.1001 70.8431 83.0208 70.687 82.9064 70.5515C82.7919 70.4159 82.632 70.3308 82.4266 70.2961C82.2417 70.2649 82.0105 70.2892 81.7329 70.369C81.4655 70.4506 81.1767 70.5656 80.8664 70.7138C80.5664 70.8639 80.262 71.0395 79.9533 71.2409C79.6549 71.444 79.377 71.6506 79.1196 71.8607C78.8623 72.0707 78.6478 72.2774 78.4761 72.4808C78.3146 72.686 78.2217 72.8604 78.1974 73.0042Z" fill="black"/>
<path d="M94.819 85.6703C95.4017 85.6432 95.9169 85.5097 96.3645 85.2699C96.8127 85.0404 97.1841 84.7312 97.4788 84.342C97.7844 83.9628 98.0094 83.53 98.1536 83.0436C98.3087 82.5672 98.3743 82.074 98.3506 81.5641C98.3385 81.304 98.3069 80.9613 98.2558 80.5362C98.2152 80.1105 98.1572 79.6492 98.0819 79.1521C98.0066 78.6551 97.9049 78.1489 97.7766 77.6334C97.6587 77.1175 97.5163 76.634 97.3493 76.183C97.1818 75.7215 96.9809 75.3242 96.7464 74.991C96.5218 74.6469 96.2656 74.4085 95.9779 74.2759C95.717 74.4966 95.4607 74.7015 95.2088 74.8905C94.9564 75.0691 94.6924 75.2222 94.4168 75.3497C94.1411 75.4772 93.8542 75.5844 93.5558 75.6713C93.2569 75.7478 92.9358 75.794 92.5924 75.81C92.145 75.8309 91.7581 75.8072 91.4316 75.7389C91.1156 75.6702 90.8437 75.5421 90.616 75.3546C90.3987 75.1665 90.2305 74.9137 90.1114 74.5959C89.9924 74.2782 89.9214 73.8748 89.8987 73.3858C89.8827 73.0424 89.9504 72.7056 90.1019 72.3752C90.2529 72.0345 90.4571 71.7174 90.7146 71.4238C90.982 71.1194 91.2818 70.8395 91.614 70.5842C91.9567 70.3284 92.306 70.1036 92.6619 69.9098C93.0283 69.7155 93.3862 69.5632 93.7356 69.4531C94.0954 69.3425 94.4158 69.2807 94.6968 69.2676C94.9673 69.255 95.1915 69.255 95.3694 69.2676C95.5467 69.2697 95.6995 69.3043 95.8278 69.3714C95.9556 69.428 96.0645 69.5272 96.1545 69.669C96.2544 69.7999 96.3516 69.9831 96.446 70.2185C96.7231 71.019 97.0395 71.8802 97.3953 72.8022C97.751 73.7241 98.0924 74.6728 98.4194 75.6483C98.7463 76.6237 99.0267 77.6065 99.2605 78.5967C99.5052 79.5969 99.6493 80.5652 99.6929 81.5016C99.7317 82.3341 99.6447 83.042 99.432 83.6254C99.2302 84.2188 98.9453 84.7065 98.5772 85.0887C98.2201 85.4807 97.8016 85.7869 97.3217 86.0074C96.8523 86.2274 96.3742 86.3748 95.8876 86.4496C95.4015 86.5348 94.9287 86.5724 94.4694 86.5625C94.0102 86.5526 93.6118 86.5086 93.2745 86.4304C92.9377 86.3627 92.6781 86.2757 92.4959 86.1695C92.3241 86.0628 92.2779 85.9658 92.3572 85.8787C92.4475 85.8015 92.6844 85.7384 93.068 85.6892C93.4515 85.6401 94.0352 85.6338 94.819 85.6703ZM94.3364 70.5983C93.5741 70.8006 92.9607 71.0638 92.4961 71.3878C92.0414 71.701 91.7024 72.0348 91.4791 72.3893C91.2656 72.733 91.1565 73.077 91.1517 73.4213C91.1464 73.7552 91.2221 74.0385 91.3789 74.271C91.5358 74.5036 91.7523 74.676 92.0287 74.7883C92.315 74.8896 92.6326 74.8801 92.9815 74.7595C93.33 74.6286 93.6934 74.3719 94.0719 73.9893C94.4607 73.6062 94.8414 73.0462 95.2138 72.3093C95.2055 72.1325 95.1966 71.94 95.1869 71.7318C95.1876 71.5233 95.1633 71.3367 95.1139 71.1721C95.064 70.9972 94.9792 70.8551 94.8594 70.746C94.7396 70.6369 94.5653 70.5876 94.3364 70.5983Z" fill="black"/>
<path d="M116.637 69.5128C116.354 68.9319 116.228 68.3272 116.259 67.6986C116.285 67.0606 116.431 66.4567 116.699 65.8867C116.971 65.3028 117.333 64.7735 117.786 64.2988C118.248 63.8195 118.765 63.4411 119.336 63.1634C119.655 63.0086 119.986 62.9751 120.33 63.0629C120.683 63.1461 121.017 63.2967 121.331 63.5146C121.641 63.7231 121.917 63.9708 122.161 64.2578C122.414 64.5402 122.6 64.8032 122.718 65.0468C122.973 65.5715 123.095 66.1436 123.083 66.7631C123.067 67.3732 122.95 67.9682 122.734 68.5481C122.513 69.1186 122.207 69.6439 121.815 70.1239C121.423 70.604 120.974 70.9669 120.468 71.2127C120.018 71.4312 119.602 71.5406 119.22 71.5409C118.833 71.5318 118.485 71.4463 118.175 71.2844C117.86 71.1131 117.571 70.8769 117.309 70.5757C117.052 70.2606 116.828 69.9064 116.637 69.5128ZM117.899 69.073C118.018 69.3166 118.141 69.523 118.27 69.6922C118.403 69.8474 118.553 69.9656 118.72 70.0467C118.896 70.1233 119.091 70.1558 119.306 70.1442C119.516 70.1233 119.752 70.0492 120.014 69.9217C120.361 69.7533 120.662 69.4912 120.918 69.1353C121.169 68.7702 121.359 68.3763 121.49 67.9539C121.626 67.5175 121.691 67.0803 121.687 66.6423C121.682 66.2044 121.598 65.8167 121.434 65.4794C121.362 65.3295 121.268 65.1724 121.153 65.008C121.039 64.8437 120.912 64.7025 120.774 64.5844C120.635 64.4664 120.48 64.3854 120.308 64.3415C120.136 64.2976 119.957 64.3212 119.769 64.4122C119.601 64.4942 119.427 64.6483 119.247 64.8745C119.077 65.0962 118.908 65.3575 118.742 65.6584C118.585 65.9548 118.439 66.2746 118.305 66.6178C118.18 66.9564 118.073 67.286 117.986 67.6065C117.898 67.9269 117.844 68.2198 117.822 68.4851C117.81 68.7459 117.836 68.9418 117.899 69.073Z" fill="black"/>
<path d="M126.554 60.6229C126.516 60.5735 126.449 60.487 126.353 60.3634C126.259 60.2253 126.158 60.0862 126.05 59.9462C125.941 59.8061 125.843 59.6785 125.753 59.5631C125.666 59.4332 125.603 59.3435 125.565 59.2941C125.546 59.1506 125.538 59.0049 125.542 58.8569C125.548 58.6943 125.58 58.5646 125.636 58.4679C125.695 58.3566 125.784 58.275 125.901 58.2232C126.028 58.165 126.199 58.1645 126.414 58.2216L126.491 58.3205L126.615 58.4811C126.639 58.5286 126.699 58.6402 126.795 58.8159C126.885 58.9833 126.984 59.1703 127.091 59.377C127.199 59.5837 127.296 59.7781 127.385 59.9601C127.475 60.1275 127.536 60.2318 127.567 60.273C127.689 60.4295 127.858 60.6144 128.076 60.8277C128.287 61.0329 128.521 61.2408 128.776 61.4515C129.04 61.6558 129.316 61.8505 129.604 62.0357C129.901 62.2146 130.194 62.3559 130.486 62.4598C130.77 62.5554 131.042 62.6086 131.301 62.6192C131.567 62.6235 131.808 62.5427 132.022 62.3769C132.286 62.1728 132.462 61.9243 132.551 61.6312C132.649 61.3318 132.686 61.0134 132.662 60.6763C132.638 60.3391 132.563 59.9954 132.437 59.6452C132.319 59.2887 132.18 58.948 132.021 58.6233C131.855 58.2904 131.683 57.9826 131.504 57.6999C131.324 57.4172 131.158 57.177 131.005 56.9793C130.852 56.7816 130.692 56.6091 130.525 56.4616C130.36 56.2995 130.19 56.148 130.015 56.0069C129.84 55.8658 129.672 55.7256 129.512 55.5864C129.353 55.4326 129.207 55.2692 129.073 55.0962C128.952 54.9397 128.919 54.787 128.975 54.6382C129.039 54.4831 129.142 54.3513 129.282 54.2429C129.455 54.109 129.636 54.0541 129.826 54.0783C130.01 54.0942 130.191 54.1581 130.37 54.27C130.557 54.3755 130.738 54.5248 130.914 54.7179C131.092 54.8965 131.257 55.0846 131.41 55.2823C131.563 55.48 131.706 55.6726 131.838 55.8602C131.964 56.0395 132.068 56.1827 132.151 56.2898C132.368 56.5699 132.592 56.9029 132.826 57.289C133.059 57.6751 133.268 58.099 133.454 58.5608C133.643 59.0079 133.799 59.4733 133.923 59.9569C134.055 60.4341 134.122 60.9029 134.122 61.3634C134.125 61.8092 134.049 62.2302 133.895 62.6264C133.749 63.0162 133.499 63.3481 133.144 63.6224C132.774 63.9093 132.381 64.0747 131.967 64.1186C131.547 64.1542 131.127 64.1043 130.706 63.9691C130.287 63.8192 129.868 63.61 129.449 63.3414C129.03 63.0728 128.64 62.7818 128.279 62.4686C127.926 62.1489 127.6 61.8289 127.299 61.5085C127 61.1734 126.752 60.8782 126.554 60.6229Z" fill="black"/>
<path d="M135.021 51.8398C134.997 51.8198 134.98 51.7992 134.971 51.7779C134.955 51.7647 134.938 51.7441 134.921 51.7161C134.907 51.6508 134.895 51.5595 134.884 51.4422C134.872 51.3249 134.874 51.2582 134.887 51.2421L136.888 48.8213C136.799 48.7483 136.649 48.6442 136.436 48.509C136.224 48.3738 135.991 48.2221 135.738 48.0537C135.492 47.8773 135.248 47.6823 135.005 47.4685C134.755 47.2481 134.553 47.0269 134.399 46.8048C134.243 46.568 134.154 46.3323 134.132 46.0977C134.108 45.8484 134.196 45.6033 134.395 45.3624C135.206 46.0326 135.903 46.5139 136.485 46.8063C137.068 47.0987 137.568 47.2621 137.986 47.2964C138.41 47.3226 138.762 47.2485 139.041 47.074C139.32 46.8995 139.559 46.6845 139.757 46.4289C139.953 46.1587 140.119 45.8766 140.253 45.5826C140.388 45.2887 140.52 45.0394 140.648 44.8348C140.784 44.6222 140.93 44.4862 141.087 44.4269C141.236 44.361 141.423 44.4209 141.648 44.6067C141.816 44.746 141.904 44.8857 141.91 45.0257C141.922 45.1577 141.859 45.3487 141.72 45.5987C141.675 45.6696 141.601 45.7912 141.499 45.9637C141.396 46.1215 141.276 46.2994 141.139 46.4973C141.003 46.6953 140.86 46.9086 140.712 47.1372C140.555 47.3593 140.409 47.5693 140.272 47.7672C140.136 47.9652 140.008 48.1437 139.89 48.3029C139.764 48.4555 139.671 48.5679 139.612 48.6402C139.652 48.6733 139.717 48.7338 139.806 48.8214C139.896 48.9091 139.957 48.9662 139.989 48.9927C140.342 49.2847 140.734 49.5139 141.164 49.6802C141.586 49.8398 142.015 49.9915 142.451 50.1351C142.893 50.2706 143.325 50.4183 143.747 50.5779C144.169 50.7376 144.557 50.9634 144.91 51.2554C144.974 51.3085 145.036 51.3729 145.095 51.4487C145.152 51.5098 145.193 51.5837 145.216 51.6703C145.237 51.7422 145.23 51.8243 145.195 51.9164C145.174 52.0072 145.093 52.0962 144.954 52.1835C144.621 52.4223 144.259 52.5084 143.868 52.442C143.484 52.3675 143.081 52.2171 142.66 51.9908C142.231 51.7578 141.802 51.4841 141.372 51.1698C140.943 50.8554 140.528 50.5803 140.129 50.3446C139.728 50.0941 139.356 49.9222 139.014 49.8289C138.664 49.729 138.359 49.7803 138.097 49.9827L135.646 51.8692C135.619 51.9013 135.547 51.923 135.43 51.9341C135.304 51.9386 135.219 51.9356 135.174 51.9252C135.151 51.9199 135.128 51.9073 135.103 51.8874C135.081 51.8822 135.053 51.8663 135.021 51.8398Z" fill="black"/>
</svg>
