<svg width="148" height="136" viewBox="0 0 148 136" fill="none" xmlns="http://www.w3.org/2000/svg">
<ellipse cx="74" cy="68" rx="74" ry="68" fill="#D5AE4C"/>
<path d="M18.7822 83.9395C19.027 83.8669 19.2676 83.8852 19.5039 83.9945C19.7544 84.1081 20.0034 84.252 20.2511 84.4262C20.5037 84.6097 20.752 84.8072 20.9961 85.0188C21.2494 85.2255 21.495 85.4068 21.7327 85.5627C21.9754 85.7278 22.2143 85.8417 22.4492 85.9045C22.6933 85.9623 22.93 85.9295 23.1593 85.806C23.4528 85.648 23.6538 85.4391 23.7624 85.1795C23.876 84.929 23.9324 84.6383 23.9317 84.3075C23.9359 83.9857 23.8974 83.6397 23.8163 83.2693C23.7351 82.8989 23.649 82.5194 23.558 82.1306C23.4811 81.7462 23.4112 81.3638 23.3484 80.9835C23.2947 80.5983 23.2859 80.2304 23.3218 79.8797C23.3627 79.5383 23.465 79.2229 23.6287 78.9336C23.7973 78.6535 24.065 78.4147 24.4318 78.2171C24.7345 78.0542 25.0509 77.9607 25.3811 77.9366C25.7254 77.9169 26.0711 77.9437 26.4182 78.017C26.7794 78.0946 27.1325 78.212 27.4775 78.3693C27.8275 78.5358 28.1502 78.7287 28.4459 78.9481C28.7464 79.1767 29.0149 79.4225 29.2512 79.6857C29.4968 79.9439 29.6887 80.2014 29.827 80.4582L29.9085 80.6095C29.9254 80.7068 29.9388 80.8416 29.9487 81.0137C29.9586 81.1859 29.966 81.3534 29.971 81.5164C29.9851 81.6744 29.9894 81.8141 29.9837 81.9355C29.9873 82.0519 29.9844 82.1126 29.9753 82.1175L29.6589 82.2879C29.5467 82.1235 29.389 81.9186 29.1858 81.6731C28.9917 81.4226 28.772 81.1683 28.5264 80.9101C28.2809 80.6519 28.01 80.4015 27.7136 80.1588C27.4265 79.9112 27.1337 79.708 26.8352 79.5493C26.5368 79.3906 26.2355 79.2926 25.9315 79.2552C25.6366 79.2129 25.3515 79.2658 25.0764 79.414C24.682 79.6264 24.4443 79.9319 24.3632 80.3305C24.2913 80.7242 24.2931 81.1669 24.3686 81.6586C24.4441 82.1503 24.5531 82.6713 24.6957 83.2216C24.8524 83.7762 24.9593 84.3042 25.0165 84.8058C25.0828 85.3025 25.0571 85.76 24.9393 86.1784C24.8307 86.5918 24.5563 86.9171 24.116 87.1542C23.8776 87.2826 23.5859 87.345 23.2409 87.3415C22.91 87.3423 22.5519 87.2925 22.1667 87.1924C21.7956 87.0965 21.4164 86.9635 21.0291 86.7935C20.6417 86.6235 20.277 86.4295 19.9348 86.2115C19.6067 85.9978 19.3086 85.7738 19.0405 85.5396C18.7816 85.3005 18.5904 85.0662 18.4669 84.837C18.4274 84.7636 18.3946 84.6807 18.3685 84.5883C18.3423 84.4959 18.3303 84.4077 18.3325 84.3237C18.3487 84.244 18.3882 84.1636 18.451 84.0824C18.5187 84.0105 18.6291 83.9628 18.7822 83.9395Z" fill="black"/>
<path d="M29.3867 91.0433C29.4354 91.0041 29.5124 90.9419 29.6178 90.8569C29.7378 90.7734 29.8587 90.6826 29.9803 90.5845C30.1084 90.4945 30.2293 90.4038 30.3428 90.3122C30.4628 90.2287 30.5472 90.1674 30.5958 90.1281C30.7975 90.1127 30.9944 90.1412 31.1867 90.2136C31.3855 90.2941 31.5681 90.3877 31.7344 90.4944C31.3163 90.8719 30.9057 91.3169 30.5027 91.8294C30.0997 92.3418 29.6992 92.8657 29.3012 93.4009C28.9113 93.9296 28.5124 94.4388 28.1044 94.9285C27.703 95.4263 27.2915 95.8453 26.8699 96.1854C26.5051 96.4797 26.1723 96.4404 25.8714 96.0675C25.6883 95.8405 25.6278 95.5747 25.69 95.2703C25.7522 94.9658 25.8859 94.6505 26.0912 94.3243C26.3111 93.9996 26.5725 93.6683 26.8753 93.3303C27.1863 92.9858 27.5022 92.664 27.8231 92.365C28.1505 92.0741 28.4528 91.8101 28.73 91.5731C29.0138 91.3442 29.2327 91.1676 29.3867 91.0433ZM34.0845 87.5345C34.1439 87.7409 34.1431 87.9556 34.0822 88.1788C34.0213 88.4019 33.9235 88.5544 33.7888 88.6363C33.6688 88.7198 33.5158 88.696 33.3298 88.565C33.1519 88.4274 32.9716 88.1044 32.789 87.596C33.0079 87.4194 33.2311 87.3062 33.4586 87.2565C33.6927 87.2148 33.9013 87.3075 34.0845 87.5345Z" fill="black"/>
<path d="M34.042 95.9338C34.2031 95.7291 34.3615 95.5953 34.5172 95.5323C34.6811 95.4757 34.8776 95.5376 35.1067 95.718C35.1313 95.7374 35.1731 95.7769 35.2321 95.8366C35.3058 95.8946 35.3508 95.9301 35.3672 95.943C35.2247 96.2418 35.0629 96.5652 34.8818 96.9131C34.7153 97.2593 34.5537 97.616 34.3972 97.9833C34.2406 98.3505 34.0954 98.7201 33.9616 99.0921C33.8361 99.4705 33.7535 99.8364 33.7139 100.19C33.9837 100.15 34.2351 100.05 34.4681 99.8886C34.7011 99.7273 34.9178 99.5532 35.118 99.3662C35.3247 99.171 35.5177 98.9848 35.6969 98.8077C35.8907 98.6289 36.0875 98.5054 36.287 98.4371C36.493 98.3607 36.7078 98.3574 36.9312 98.4272C37.1628 98.5035 37.4083 98.6968 37.6678 99.0072C38.0115 99.2778 38.2342 99.5591 38.3357 99.8512C38.4436 100.135 38.4939 100.433 38.4866 100.746C38.4939 101.056 38.4801 101.377 38.4453 101.707C38.425 102.036 38.4578 102.373 38.5434 102.719C38.6763 102.652 38.8408 102.569 39.0369 102.471C39.2394 102.366 39.4615 102.269 39.7033 102.181C39.9596 102.091 40.2168 102.008 40.4749 101.933C40.7476 101.856 41.0083 101.803 41.257 101.773C41.5121 101.736 41.7488 101.73 41.967 101.756C42.1916 101.773 42.3735 101.837 42.5127 101.947C42.8482 102.211 43.055 102.546 43.133 102.952C43.2174 103.35 43.2199 103.776 43.1405 104.231C43.0757 104.684 42.9459 105.151 42.7512 105.634C42.5629 106.109 42.3598 106.553 42.1417 106.964C41.9237 107.376 41.7077 107.743 41.4938 108.065C41.2946 108.385 41.1434 108.611 41.0403 108.742C40.9565 108.848 40.8676 108.911 40.7733 108.93C40.6791 108.948 40.5823 108.945 40.4829 108.92C40.3899 108.886 40.2951 108.838 40.1987 108.775C40.1104 108.719 40.0294 108.662 39.9558 108.604C39.9394 108.591 39.9148 108.572 39.8821 108.546C39.8558 108.512 39.8254 108.475 39.7909 108.435C39.7646 108.401 39.7293 108.353 39.6849 108.291L41.777 103.992C41.7963 103.968 41.799 103.897 41.7851 103.78C41.7776 103.655 41.7639 103.571 41.7441 103.529C41.7195 103.51 41.7023 103.49 41.6923 103.468C41.676 103.456 41.6637 103.446 41.6555 103.439C41.6538 103.425 41.6488 103.414 41.6406 103.408C41.4688 103.273 41.2503 103.213 40.9852 103.23C40.7284 103.253 40.4507 103.319 40.1522 103.429C39.8537 103.539 39.5441 103.68 39.2233 103.851C38.9025 104.023 38.594 104.204 38.2978 104.395C38.008 104.578 37.7393 104.751 37.4916 104.914C37.2586 105.075 37.0766 105.197 36.9454 105.279C36.8998 105.27 36.8214 105.235 36.7103 105.174C36.6057 105.105 36.537 105.057 36.5042 105.032C36.2751 104.851 36.1603 104.635 36.16 104.383C36.1661 104.122 36.2217 103.841 36.3267 103.539C36.4399 103.244 36.5774 102.935 36.7392 102.611C36.9156 102.286 37.0564 101.973 37.1614 101.671C37.2746 101.376 37.3229 101.095 37.3062 100.83C37.3041 100.564 37.1803 100.334 36.9347 100.14C36.8447 100.069 36.6879 100.092 36.4643 100.207C36.2407 100.323 35.9866 100.494 35.702 100.721C35.4239 100.939 35.1306 101.186 34.822 101.46C34.5198 101.726 34.2387 101.982 33.9787 102.228C33.7333 102.472 33.5283 102.682 33.3638 102.857C33.1992 103.033 33.1169 103.12 33.1169 103.12C33.0812 103.132 33.0259 103.135 32.951 103.129C32.8826 103.115 32.8068 103.102 32.7238 103.089C32.6489 103.083 32.5764 103.066 32.5062 103.037C32.4442 103.015 32.4009 102.994 32.3764 102.975C32.1472 102.794 32.0068 102.518 31.9551 102.146C31.9098 101.766 31.926 101.341 32.0037 100.872C32.096 100.401 32.2264 99.9068 32.3949 99.3898C32.5715 98.8792 32.7621 98.3929 32.9667 97.9309C33.1714 97.469 33.3675 97.0599 33.5551 96.7038C33.7508 96.3541 33.9131 96.0974 34.042 95.9338Z" fill="black"/>
<path d="M48.2527 106.942C48.6553 106.016 49.1691 105.421 49.7941 105.159C50.4191 104.897 51.1758 104.958 52.0644 105.344C52.4274 105.502 52.7855 105.697 53.1386 105.93C53.5013 106.167 53.8077 106.442 54.0578 106.756C54.3121 107.059 54.4752 107.403 54.5472 107.786C54.6287 108.173 54.5678 108.601 54.3644 109.069C54.1403 109.585 53.814 110.023 53.3855 110.382C52.9706 110.735 52.5041 111.038 51.9858 111.29C51.4813 111.536 50.9489 111.742 50.3886 111.908C49.8421 112.068 49.3257 112.224 48.8393 112.376C48.8036 112.406 48.7492 112.479 48.6762 112.595C48.6168 112.705 48.5788 112.78 48.5622 112.818C48.4253 113.133 48.3791 113.488 48.4236 113.882C48.4736 114.29 48.5379 114.704 48.6165 115.124C48.691 115.554 48.7422 115.985 48.7702 116.418C48.7981 116.85 48.7291 117.257 48.5631 117.639C48.4635 117.869 48.3576 117.982 48.2455 117.978C48.1292 117.985 47.9182 117.921 47.6124 117.789C47.4545 117.629 47.3423 117.365 47.2758 116.995C47.2146 116.639 47.1777 116.214 47.1651 115.72C47.162 115.231 47.1818 114.688 47.2244 114.094C47.2724 113.513 47.3293 112.924 47.3952 112.328C47.4747 111.726 47.5549 111.137 47.6358 110.559C47.7303 109.975 47.8204 109.441 47.9063 108.955C47.9921 108.47 48.0605 108.051 48.1115 107.699C48.1762 107.341 48.2232 107.089 48.2527 106.942ZM49.4148 107.601C49.3525 107.744 49.2708 107.958 49.1695 108.244C49.0724 108.519 48.9944 108.803 48.9355 109.096C48.8862 109.392 48.88 109.668 48.9171 109.923C48.9583 110.168 49.0887 110.338 49.3085 110.433C49.6047 110.562 49.9444 110.59 50.3278 110.518C50.7207 110.451 51.0982 110.314 51.4603 110.108C51.8319 109.906 52.1641 109.664 52.4569 109.382C52.7633 109.095 52.9788 108.808 53.1033 108.521C53.207 108.283 53.2307 108.071 53.1741 107.888C53.1217 107.695 53.0214 107.521 52.873 107.365C52.7384 107.205 52.5749 107.071 52.3826 106.965C52.1944 106.849 52.0096 106.752 51.828 106.673C51.2835 106.436 50.7987 106.402 50.3739 106.569C49.9628 106.731 49.6431 107.075 49.4148 107.601Z" fill="black"/>
<path d="M60.6263 108.296C60.6961 108.002 60.7432 107.714 60.7676 107.43C60.7944 107.137 60.8432 106.886 60.914 106.678C60.9872 106.46 61.1053 106.301 61.2683 106.2C61.4415 106.102 61.7105 106.096 62.0754 106.183C62.1315 106.443 62.1538 106.823 62.142 107.323C62.1405 107.826 62.117 108.398 62.0716 109.041C62.0262 109.683 61.9625 110.38 61.8805 111.131C61.801 111.872 61.7101 112.616 61.6078 113.363C61.5157 114.112 61.4108 114.847 61.2931 115.569C61.1879 116.282 61.0819 116.932 60.9752 117.517C60.5879 117.66 60.3157 117.612 60.1587 117.371C60.0017 117.13 59.9114 116.766 59.8879 116.279C59.8668 115.781 59.899 115.195 59.9844 114.519C60.0722 113.833 60.1648 113.127 60.2623 112.401C60.3723 111.667 60.4634 110.945 60.5358 110.234C60.6106 109.513 60.6407 108.867 60.6263 108.296Z" fill="black"/>
<path d="M67.3676 114.289C67.3947 113.727 67.4894 113.168 67.6518 112.613C67.8142 112.057 68.0518 111.563 68.3647 111.13C68.688 110.697 69.0906 110.351 69.5723 110.093C70.0645 109.835 70.6487 109.723 71.325 109.755C71.71 109.774 72.0446 109.863 72.3289 110.023C72.6137 110.172 72.8495 110.366 73.0361 110.604C73.2227 110.843 73.3554 111.12 73.4339 111.437C73.5234 111.744 73.5601 112.064 73.5441 112.397C73.5185 112.927 73.3688 113.436 73.095 113.924C72.8315 114.411 72.4825 114.838 72.0477 115.203C71.6239 115.558 71.1418 115.821 70.6017 115.993C70.062 116.155 69.519 116.17 68.9725 116.04C68.9684 116.342 69.0554 116.591 69.2337 116.788C69.4228 116.974 69.6504 117.121 69.9164 117.227C70.1824 117.334 70.4603 117.41 70.7501 117.455C71.0405 117.49 71.3001 117.513 71.529 117.524C71.7683 117.536 71.993 117.526 72.2031 117.494C72.4132 117.462 72.6235 117.426 72.8341 117.384C73.0447 117.342 73.2551 117.305 73.4652 117.273C73.6857 117.242 73.9156 117.233 74.1549 117.244C74.2485 117.249 74.3419 117.258 74.4351 117.273C74.5282 117.288 74.6154 117.318 74.6966 117.364C74.7783 117.399 74.8432 117.46 74.8912 117.546C74.9397 117.621 74.9612 117.716 74.9557 117.83C74.9462 118.028 74.8653 118.191 74.7131 118.319C74.5614 118.437 74.3689 118.537 74.1354 118.62C73.9124 118.703 73.6644 118.764 73.3914 118.803C73.1189 118.831 72.8518 118.855 72.5902 118.874C72.3394 118.882 72.1048 118.882 71.8863 118.871C71.6778 118.871 71.5214 118.869 71.4174 118.864C70.7515 118.832 70.1583 118.699 69.6377 118.465C69.1176 118.221 68.6845 117.903 68.3384 117.511C67.9928 117.108 67.734 116.637 67.5619 116.097C67.4007 115.547 67.3359 114.944 67.3676 114.289ZM69.0709 113.354C69.0533 113.718 69.0873 113.986 69.1729 114.157C69.2689 114.328 69.5094 114.423 69.8944 114.442C70.1649 114.455 70.4325 114.421 70.6971 114.34C70.9622 114.248 71.2031 114.119 71.4197 113.952C71.6468 113.786 71.8285 113.586 71.9649 113.353C72.1013 113.12 72.1763 112.862 72.1898 112.581C72.1974 112.425 72.1895 112.263 72.1664 112.095C72.1536 111.928 72.1088 111.775 72.0321 111.635C71.9559 111.486 71.8522 111.366 71.7209 111.276C71.6006 111.176 71.4364 111.122 71.2283 111.112C70.9162 111.096 70.6265 111.156 70.3594 111.289C70.1032 111.412 69.8811 111.584 69.6931 111.804C69.5057 112.014 69.3584 112.257 69.2512 112.534C69.1445 112.8 69.0844 113.073 69.0709 113.354Z" fill="black"/>
<path d="M91.4696 109.963C91.418 109.849 91.3341 109.664 91.2179 109.408C91.1069 109.138 90.9868 108.861 90.8577 108.576C90.7243 108.282 90.5995 108.007 90.4833 107.751C90.3766 107.49 90.2996 107.308 90.2522 107.204C90.2316 107.133 90.2101 107.023 90.1878 106.873C90.1612 106.713 90.1415 106.556 90.1287 106.402C90.1254 106.243 90.1449 106.097 90.1872 105.964C90.2347 105.816 90.3249 105.712 90.4577 105.652C90.7707 105.51 91.1035 105.462 91.4561 105.508C91.8087 105.554 92.1776 105.661 92.5628 105.83C92.9437 105.988 93.3255 106.187 93.7081 106.425C94.1001 106.659 94.4875 106.895 94.8701 107.133C95.2484 107.362 95.6155 107.579 95.9713 107.783C96.3229 107.978 96.6487 108.117 96.9486 108.198C97.1385 107.986 97.2374 107.712 97.2454 107.377C97.2491 107.032 97.2119 106.66 97.1337 106.261C97.0512 105.852 96.955 105.438 96.8449 105.019C96.7401 104.586 96.674 104.176 96.6467 103.788C96.6194 103.4 96.658 103.057 96.7626 102.758C96.8723 102.445 97.1074 102.207 97.4678 102.043C97.8947 101.849 98.3542 101.841 98.8463 102.018C99.3479 102.191 99.8525 102.471 100.36 102.858C100.867 103.246 101.358 103.71 101.832 104.25C102.315 104.785 102.754 105.312 103.15 105.831C103.545 106.349 103.881 106.826 104.159 107.261C104.436 107.695 104.62 108.012 104.71 108.211C104.749 108.297 104.787 108.394 104.825 108.502C104.858 108.602 104.876 108.702 104.876 108.805C104.873 108.898 104.839 108.988 104.775 109.074C104.707 109.151 104.582 109.202 104.399 109.228C104.347 109.24 104.28 109.242 104.196 109.234C104.117 109.212 104.03 109.183 103.933 109.147C103.837 109.111 103.752 109.075 103.679 109.04C103.601 108.995 103.552 108.948 103.53 108.901C103.234 108.475 102.905 108.001 102.542 107.479C102.179 106.957 101.786 106.444 101.362 105.938C100.944 105.419 100.491 104.938 100.004 104.495C99.5177 104.053 99.0085 103.712 98.4767 103.473C98.2705 103.749 98.1577 104.081 98.1385 104.467C98.1244 104.839 98.1491 105.234 98.2126 105.651C98.2718 106.059 98.3448 106.472 98.4315 106.89C98.5183 107.309 98.5615 107.706 98.5613 108.084C98.5567 108.452 98.4905 108.785 98.3627 109.083C98.2349 109.382 97.986 109.615 97.616 109.782C97.3599 109.899 97.0719 109.932 96.7521 109.883C96.4375 109.82 96.1061 109.707 95.758 109.544C95.4055 109.373 95.047 109.175 94.6825 108.951C94.3232 108.714 93.9682 108.486 93.6175 108.268C93.272 108.036 92.9372 107.827 92.6132 107.643C92.2987 107.454 92.0052 107.324 91.7328 107.253C91.7904 107.581 91.847 107.87 91.9029 108.119C91.9639 108.355 92.0276 108.583 92.0938 108.805C92.1695 109.022 92.2521 109.242 92.3416 109.464C92.4406 109.683 92.5503 109.924 92.6708 110.19C92.8515 110.588 93.0655 110.972 93.3126 111.34C93.5555 111.699 93.8031 112.056 94.0554 112.41C94.3077 112.765 94.5575 113.126 94.8046 113.494C95.057 113.849 95.2735 114.225 95.4542 114.624L95.5059 114.738C95.4998 114.775 95.4834 114.839 95.4566 114.931C95.4255 115.014 95.3918 115.104 95.3555 115.2C95.3287 115.293 95.2951 115.382 95.2545 115.469C95.2096 115.547 95.1772 115.602 95.1574 115.633C95.1522 115.647 95.1354 115.661 95.1069 115.673C95.0828 115.696 95.0564 115.714 95.028 115.726C95.009 115.735 94.9831 115.741 94.9504 115.744C94.9176 115.748 94.8918 115.754 94.8728 115.763C94.5568 115.242 94.2489 114.753 93.9493 114.294C93.6496 113.835 93.3568 113.379 93.0709 112.925C92.7946 112.467 92.5207 112.003 92.2495 111.531C91.9878 111.055 91.7278 110.532 91.4696 109.963Z" fill="black"/>
<path d="M108.414 103.81C108.055 103.377 107.749 102.9 107.495 102.38C107.241 101.861 107.083 101.335 107.022 100.804C106.97 100.267 107.034 99.7399 107.216 99.2245C107.406 98.7023 107.762 98.2255 108.284 97.7939C108.581 97.5483 108.888 97.3887 109.206 97.3152C109.517 97.2336 109.822 97.2181 110.12 97.2685C110.419 97.319 110.704 97.4347 110.975 97.6158C111.248 97.7821 111.491 97.9938 111.703 98.2506C112.042 98.66 112.274 99.137 112.4 99.6816C112.534 100.22 112.564 100.77 112.488 101.332C112.414 101.88 112.235 102.4 111.952 102.891C111.662 103.374 111.272 103.751 110.78 104.023C110.98 104.249 111.213 104.375 111.477 104.4C111.742 104.41 112.009 104.365 112.277 104.264C112.546 104.164 112.802 104.033 113.047 103.871C113.285 103.701 113.492 103.543 113.669 103.397C113.854 103.245 114.013 103.086 114.147 102.921C114.281 102.756 114.411 102.587 114.539 102.414C114.666 102.241 114.797 102.072 114.931 101.908C115.073 101.736 115.236 101.574 115.421 101.421C115.493 101.361 115.568 101.306 115.647 101.254C115.726 101.202 115.811 101.166 115.902 101.145C115.986 101.116 116.075 101.117 116.168 101.148C116.254 101.171 116.334 101.226 116.407 101.315C116.533 101.467 116.584 101.642 116.557 101.839C116.525 102.029 116.45 102.233 116.333 102.451C116.224 102.662 116.082 102.875 115.907 103.087C115.725 103.292 115.543 103.49 115.362 103.68C115.183 103.855 115.009 104.012 114.84 104.152C114.687 104.293 114.57 104.396 114.489 104.463C113.976 104.888 113.448 105.189 112.905 105.367C112.357 105.537 111.822 105.594 111.302 105.537C110.776 105.473 110.267 105.299 109.776 105.016C109.286 104.718 108.832 104.316 108.414 103.81ZM109.043 101.972C109.275 102.253 109.481 102.428 109.659 102.496C109.846 102.558 110.087 102.467 110.384 102.221C110.593 102.048 110.768 101.843 110.909 101.605C111.043 101.358 111.134 101.101 111.182 100.831C111.237 100.556 111.237 100.286 111.181 100.021C111.124 99.7569 111.006 99.5164 110.827 99.2997C110.727 99.1793 110.613 99.0649 110.482 98.9563C110.36 98.8412 110.224 98.758 110.073 98.7068C109.916 98.6475 109.759 98.6289 109.601 98.651C109.445 98.6585 109.287 98.7286 109.126 98.8613C108.885 99.0605 108.711 99.2993 108.603 99.5776C108.497 99.8413 108.449 100.118 108.458 100.407C108.461 100.689 108.516 100.968 108.623 101.244C108.724 101.513 108.864 101.755 109.043 101.972Z" fill="black"/>
<path d="M124.122 91.0976C124.099 91.5767 124.088 91.9986 124.086 92.3631C124.083 92.7131 124.058 93.0401 124.011 93.3442C123.965 93.6482 123.876 93.9469 123.746 94.2402C123.622 94.5252 123.425 94.8465 123.155 95.2039C122.572 95.9771 121.935 96.3969 121.245 96.4635C120.547 96.5238 119.791 96.2463 118.976 95.6312C118.66 95.3927 118.363 95.1032 118.085 94.7628C117.807 94.4223 117.561 94.0476 117.348 93.6385C117.133 93.2149 116.96 92.7779 116.83 92.3275C116.692 91.8708 116.613 91.4133 116.594 90.9549C116.575 90.4965 116.618 90.0591 116.723 89.6428C116.827 89.2119 117.013 88.8177 117.283 88.4602C117.793 87.9056 118.297 87.5488 118.796 87.39C119.286 87.2249 119.784 87.1963 120.29 87.3041C120.788 87.4057 121.29 87.5959 121.798 87.8746C122.297 88.147 122.8 88.4486 123.307 88.7794C123.821 89.1019 124.341 89.416 124.867 89.7219C125.393 90.0277 125.929 90.243 126.474 90.3676C126.667 90.6828 126.779 90.9311 126.812 91.1125C126.86 91.2918 126.802 91.4114 126.639 91.4713C126.477 91.5312 126.19 91.5303 125.78 91.4685C125.376 91.3985 124.823 91.2749 124.122 91.0976ZM119.801 94.5901C120.275 94.9479 120.69 95.1242 121.046 95.1191C121.401 95.0994 121.75 94.8609 122.095 94.4037C122.353 94.0628 122.539 93.6947 122.655 93.2992C122.769 92.8892 122.81 92.4893 122.778 92.0996C122.737 91.7036 122.621 91.322 122.428 90.9547C122.236 90.5874 121.957 90.2657 121.591 89.9895C121.441 89.8766 121.236 89.7155 120.977 89.5063C120.709 89.2909 120.426 89.1035 120.128 88.9443C119.831 88.785 119.543 88.6913 119.264 88.6634C118.976 88.6291 118.745 88.7284 118.569 88.9612C118.243 89.3935 118.054 89.8772 118.002 90.4125C117.942 90.9415 117.982 91.4676 118.122 91.991C118.262 92.5144 118.483 93.0078 118.786 93.4712C119.08 93.9284 119.419 94.3014 119.801 94.5901Z" fill="black"/>
<path d="M122.308 80.9243C122.036 80.7919 121.765 80.6827 121.494 80.5969C121.214 80.5065 120.98 80.4039 120.792 80.2893C120.595 80.1701 120.466 80.02 120.403 79.8389C120.346 79.6485 120.399 79.3847 120.563 79.0477C120.829 79.0497 121.205 79.1113 121.69 79.2323C122.181 79.3439 122.734 79.4922 123.351 79.6772C123.968 79.8621 124.634 80.0769 125.349 80.3214C126.055 80.5614 126.761 80.8131 127.467 81.0763C128.177 81.3302 128.872 81.5936 129.55 81.8665C130.223 82.1254 130.834 82.371 131.381 82.6032C131.436 83.0127 131.329 83.2676 131.06 83.3681C130.791 83.4686 130.416 83.4769 129.935 83.3931C129.445 83.3047 128.88 83.1449 128.239 82.9136C127.589 82.6777 126.921 82.4327 126.233 82.1786C125.541 81.9105 124.856 81.6633 124.179 81.437C123.492 81.2062 122.868 81.0353 122.308 80.9243Z" fill="black"/>
<path d="M56.5787 14.7466C60.0956 13.5577 65.8925 11.4152 71.5328 12.8487C72.4026 13.0697 72.4613 13.1235 76.355 13.688C81.6929 14.4618 86.4795 13.8898 85.9068 18.7647C85.6114 21.2798 83.8119 22.9008 81.8701 24.1148C77.468 26.8669 73.4664 28.084 69.462 29.5597C64.3032 31.4609 61.3323 31.5591 56.4778 34.594C51.6234 37.629 47.4054 41.5508 44.0979 44.3894C40.7904 47.228 38.0095 49.4805 34.0546 51.9531C32.1128 53.1671 27.2417 55.1425 24.1966 52.7205C21.456 50.5406 21.2276 45.8407 22.0172 43.8054C23.6863 39.503 27.1181 36.6834 29.6958 34.123C32.4876 31.3498 36.7697 26.8667 40.984 23.9824C45.3228 21.0129 49.8929 17.0068 56.5787 14.7466Z" fill="#E4E4E4" fill-opacity="0.8"/>
</svg>
