<svg width="1920" height="230" viewBox="0 0 1920 230" fill="none" xmlns="http://www.w3.org/2000/svg">
<path d="M1920 -78C1920 -9.18067 1920 92.3111 1920 147.5C1898.38 144.003 1871.12 143.105 1835.5 159.856C1754.38 221.391 1741.33 70.5268 1617 112.856C1582.29 124.674 1510.03 131.607 1437.94 135.667C1345.34 140.881 1274.44 145.856 1240.94 141.356C1207.44 136.856 1108.44 101.834 1068.44 98.856C1044.44 97.069 903.94 113.356 866.44 117.856C828.94 122.356 636.94 84.8559 588.44 86.8559C539.94 88.8559 359.44 166.594 295.94 191.356C188.44 233.277 74.9398 229.356 56.9397 229.356C48.3815 229.356 23.6842 221.161 0 200.5C0 163.5 0.000122547 -33 0.000122547 -78C296.063 -77.9999 750 -78 866.44 -78C1515.93 -78 1604 -78.0001 1920 -78Z" fill="#E6E6E6"/>
</svg>
