<svg width="125" height="126" viewBox="0 0 125 126" fill="none" xmlns="http://www.w3.org/2000/svg">
<g opacity="0.78" clip-path="url(#clip0_174_926)">
<path d="M91.1984 84.9424C90.3531 85.6933 90.2768 86.9833 91.0276 87.8286C92.708 89.7203 92.5358 92.631 90.6441 94.3114C87.0641 97.4875 86.7385 102.99 89.9189 106.567C90.6698 107.412 91.9598 107.488 92.8052 106.737C93.6505 105.986 93.7268 104.696 92.9759 103.851C91.2956 101.959 91.4678 99.0487 93.3595 97.3684C95.1476 95.7782 96.1239 93.6094 96.2552 91.3906C96.3865 89.1719 95.6727 86.9031 94.0846 85.1132C93.3379 84.2681 92.0437 84.1915 91.1984 84.9424Z" fill="#C5A042" stroke="#C5A042" stroke-width="0.002"/>
<path d="M81.2231 90.6199C79.5906 88.7843 79.7689 85.7715 81.6065 84.1392C83.3965 82.5511 84.3709 80.3802 84.5022 78.1615C84.6335 75.9427 83.9219 73.6721 82.3316 71.884C81.5808 71.0387 80.2907 70.9623 79.4454 71.7132C78.6001 72.4641 78.5238 73.7541 79.2747 74.5994C80.955 76.4911 80.7828 79.4019 78.8911 81.0822C77.1552 82.6222 76.1264 84.7428 75.9894 87.0575C75.8523 89.3742 76.6239 91.6014 78.1661 93.3354C78.9169 94.1807 80.209 94.2571 81.0523 93.5061C81.8976 92.7553 81.9741 91.4632 81.2231 90.6199Z" fill="#C5A042" stroke="#C5A042" stroke-width="0.002"/>
<path d="M69.4723 77.3892C67.7919 75.4975 67.9641 72.5868 69.8559 70.9065C71.6458 69.3184 72.6202 67.1475 72.7515 64.9287C72.8828 62.71 72.1712 60.4393 70.581 58.6513C69.8301 57.8059 68.5401 57.7296 67.6948 58.4805C66.8494 59.2314 66.7731 60.5214 67.524 61.3667C69.2043 63.2584 69.0321 66.1691 67.1404 67.8495C63.5605 71.0256 63.2349 76.5286 66.4153 80.1047C67.1662 80.95 68.4562 81.0263 69.3015 80.2754C70.1468 79.5246 70.2231 78.2345 69.4723 77.3892Z" fill="#C5A042" stroke="#C5A042" stroke-width="0.002"/>
<path d="M57.7193 64.1597C56.039 62.268 56.2112 59.3573 58.1029 57.677C59.8929 56.0889 60.8673 53.918 60.9986 51.6992C61.1299 49.4805 60.4183 47.2098 58.8281 45.4218C58.0772 44.5764 56.7872 44.5001 55.9418 45.251C55.0965 46.0019 55.0202 47.2919 55.7711 48.1372C57.4514 50.0289 57.2792 52.9396 55.3875 54.62C51.8075 57.7961 51.4819 63.2991 54.6623 66.8752C55.4132 67.7205 56.7032 67.7968 57.5486 67.0459C58.3939 66.2951 58.4702 65.005 57.7193 64.1597Z" fill="#C5A042" stroke="#C5A042" stroke-width="0.002"/>
<path d="M45.9685 50.9288C44.2881 49.0371 44.4604 46.1263 46.3521 44.446C48.0881 42.9039 49.1169 40.7833 49.2538 38.4686C49.3908 36.154 48.6193 33.9268 47.0771 32.1928C46.3262 31.3475 45.0341 31.2711 44.1909 32.0221C43.3455 32.7729 43.2692 34.063 44.0201 34.9083C45.6522 36.75 45.472 39.7606 43.6366 41.389C40.0567 44.5651 39.7311 50.0681 42.9115 53.6442C43.6624 54.4895 44.9524 54.5659 45.7977 53.815C46.643 53.0641 46.7194 51.7741 45.9685 50.9288Z" fill="#C5A042" stroke="#C5A042" stroke-width="0.002"/>
<path d="M27.8993 68.8438C26.5031 67.2721 26.6458 64.8614 28.2175 63.4653C29.8454 62.0192 30.7344 60.0461 30.8539 58.0273C30.9733 56.0086 30.3233 53.9423 28.8772 52.3164C28.1263 51.4711 26.8363 51.3948 25.9909 52.1457C25.1456 52.8965 25.0693 54.1865 25.8202 55.0319C27.2163 56.6036 27.0737 59.0142 25.5019 60.4104C22.246 63.3025 21.95 68.3054 24.8421 71.5613C25.593 72.4066 26.883 72.4829 27.7284 71.7321C28.5737 70.9812 28.6502 69.6871 27.8993 68.8438Z" fill="#C5A042" stroke="#C5A042" stroke-width="0.002"/>
<path d="M41.8689 81.999C43.4968 80.5529 44.3837 78.5796 44.5032 76.5609C44.6226 74.5422 43.9747 72.476 42.5285 70.8501C41.7797 70.0049 40.4876 69.9285 39.6423 70.6793C38.797 71.4302 38.7207 72.7202 39.4715 73.5656C40.8636 75.1371 40.721 77.5477 39.1533 78.944C35.8974 81.8362 35.6014 86.8391 38.4935 90.095C39.2444 90.9403 40.5344 91.0166 41.3797 90.2657C42.225 89.5149 42.3014 88.2248 41.5505 87.3795C40.1585 85.808 40.297 83.3972 41.8689 81.999Z" fill="#C5A042" stroke="#C5A042" stroke-width="0.002"/>
<path d="M95.9577 54.7716C97.354 56.3413 97.2114 58.7519 95.6395 60.1501C92.3836 63.0422 92.0876 68.0451 94.9797 71.301C95.7285 72.1462 97.0206 72.2227 97.8659 71.4718C98.7113 70.7209 98.7876 69.4309 98.0367 68.5856C96.6447 67.0141 96.7873 64.6035 98.3549 63.2071C99.9829 61.761 100.872 59.7878 100.991 57.7691C101.111 55.7504 100.461 53.6841 99.0146 52.0582C98.2637 51.2129 96.9737 51.1366 96.1284 51.8874C95.2831 52.6383 95.2069 53.9263 95.9577 54.7716Z" fill="#C5A042" stroke="#C5A042" stroke-width="0.002"/>
<path d="M34.2156 37.6999C32.9403 36.2664 33.067 34.0556 34.5068 32.7786C36.02 31.4364 36.9203 29.5827 37.0398 27.564C37.1592 25.5452 36.4838 23.5983 35.1394 22.087C34.3885 21.2417 33.0965 21.1652 32.2532 21.9162C31.4078 22.6671 31.3315 23.9571 32.0824 24.8024C33.3211 26.1969 33.1857 28.485 31.7913 29.7216C28.6757 32.493 28.3879 37.2875 31.1586 40.4153C31.9074 41.2605 33.1995 41.337 34.0448 40.5861C34.8901 39.8352 34.9644 38.5451 34.2156 37.6999Z" fill="#C5A042" stroke="#C5A042" stroke-width="0.002"/>
<path d="M49.7051 4.01413C46.4519 4.54061 43.8123 6.60684 41.8572 10.1556C40.2916 11.8634 40.5262 14.7183 42.6549 19.2441C40.1557 17.517 37.6401 15.8605 35.0967 14.3274C31.2798 12.0226 25.0394 10.9692 20.4908 13.4161C18.3328 14.5768 15.7144 17.0458 15.5083 21.9823C15.2934 27.242 18.2386 33.3052 21.858 39.0866C21.4846 38.8536 21.1096 38.6143 20.7338 38.3872C17.5597 36.4706 12.3573 35.5995 8.55983 37.6402C5.97037 39.0315 4.5417 41.6446 4.33383 44.8809C4.06501 51.4319 9.67092 59.3997 14.1775 65.799C15.3452 67.4576 16.4466 69.0263 17.2593 70.3156C24.6396 82.0467 34.3333 93.1425 45.2884 102.408C46.4668 103.401 47.9321 104.807 49.6302 106.434C56.8278 113.326 66.685 122.764 75.0565 121.414C78.3097 120.888 80.9492 118.823 82.9045 115.273C83.5198 114.6 83.8646 113.758 83.9267 112.709C83.9975 111.513 83.6817 110.03 83.0032 108.238C89.4801 113.394 96.4153 117.348 102.613 116.349C106.51 115.719 109.674 113.221 112.029 108.917C112.557 108.334 113.091 107.401 113.176 105.97C113.178 105.942 113.179 105.915 113.179 105.886C113.356 102.062 109.864 95.2294 104.834 87.4636C108.031 89.0682 112.7 89.6722 116.2 87.792C118.738 86.4285 120.229 83.9338 120.418 80.7516C120.422 80.6842 120.424 80.6147 120.428 80.5453C120.697 73.9943 115.091 66.0265 110.584 59.6272C109.417 57.9686 108.315 56.4 107.502 55.1106C100.126 43.3838 90.4323 32.288 79.4734 23.0182C78.295 22.0247 76.8296 20.6189 75.1315 18.9924C67.934 12.1 58.0767 2.66189 49.7051 4.01413ZM74.0896 100.368C80.5385 110.395 79.8275 112.545 79.891 112.509L79.6143 112.755L79.4414 113.081C78.0853 115.645 76.4373 117.049 74.4064 117.377C69.288 118.203 62.2217 112.554 56.4211 107.219C57.015 107.323 57.6451 107.199 58.1316 106.765C58.9769 106.014 59.0533 104.724 58.3024 103.879C56.9466 102.352 57.0985 99.854 58.6205 98.5021C60.2486 97.054 61.1354 95.0827 61.2548 93.064C61.3743 91.0453 60.7264 88.9791 59.2802 87.3532C58.5293 86.5079 57.2393 86.4316 56.394 87.1824C55.5487 87.9333 55.4723 89.2233 56.2232 90.0686C57.6174 91.6382 57.4789 94.0491 55.905 95.4471C53.1682 97.8743 52.5804 102.096 54.2977 105.233C53.6634 104.632 53.045 104.041 52.4615 103.482C50.7151 101.807 49.2029 100.362 47.9311 99.285C37.2898 90.29 27.8822 79.5184 20.7207 68.1382C19.8539 66.7596 18.7202 65.1502 17.5223 63.4468C13.5902 57.8619 8.20705 50.2145 8.4204 45.051C8.42125 45.0019 8.42415 44.9529 8.42693 44.906C8.53188 43.1322 9.2113 41.9311 10.4955 41.241C12.8015 40.001 16.5077 40.6115 18.62 41.8835C21.7407 43.7683 24.8488 45.8674 28.1089 48.3032C28.1884 48.4144 28.2658 48.5255 28.3432 48.6366C28.5208 48.8888 28.6946 49.1367 28.8626 49.3781C29.0382 49.6302 29.208 49.8758 29.378 50.1193C29.5194 50.3244 29.663 50.5295 29.7967 50.7279C30.023 51.0567 30.2377 51.3746 30.4465 51.6881C30.5181 51.7947 30.5955 51.9058 30.663 52.0102C30.9432 52.4323 31.2099 52.8414 31.4533 53.2286C40.5749 67.7255 52.555 81.4433 66.1028 92.8982C67.1172 93.755 68.3112 94.8662 69.6416 96.1288C70.237 96.6946 70.8536 97.2821 71.5049 97.9064C72.2608 98.6312 73.05 99.3825 73.851 100.143C73.9365 100.221 74.0081 100.291 74.0896 100.368ZM109.004 106.166L108.732 106.408L108.559 106.733C106.8 110.056 104.641 111.88 101.961 112.314C94.671 113.49 84.4897 104.578 76.8647 97.3632C76.0829 96.6247 75.3248 95.9018 74.5961 95.2012C74.5107 95.1203 74.4217 95.0331 74.3382 94.9545C72.1788 92.8869 70.3141 91.099 68.7476 89.7753C65.4391 86.9782 62.229 84.0435 59.1321 80.9947C49.8435 71.8462 41.5953 61.6614 34.9189 51.0494C34.6604 50.6408 34.3825 50.2147 34.0911 49.7735C33.9839 49.6115 33.8671 49.4407 33.7559 49.2764C33.5694 49.0011 33.3851 48.7239 33.1852 48.4335C33.0211 48.1944 32.8494 47.9466 32.6775 47.7009C32.5038 47.451 32.3303 47.199 32.1472 46.9362C32.0226 46.7568 31.8941 46.5751 31.7676 46.3935C31.6014 46.1563 31.4446 45.932 31.2728 45.6862L31.2689 45.6819C31.1669 45.5366 31.0707 45.3978 30.9666 45.2523C26.052 38.2717 19.3254 28.7157 19.5952 22.1483C19.6854 19.5851 20.624 17.9835 22.4267 17.0128C25.4372 15.3945 30.2497 16.1729 32.9848 17.8239C38.3226 21.0463 43.5671 24.7363 48.7022 28.8214L48.708 28.8279C50.3669 30.1468 52.0111 31.5079 53.6407 32.9071C53.6582 32.9224 53.6759 32.9358 53.6934 32.9511C55.241 34.282 56.7721 35.6507 58.289 37.0493C58.4075 37.1588 58.5242 37.264 58.6428 37.3714C60.0312 38.6579 61.3991 39.9801 62.7557 41.3201C62.9724 41.5337 63.1917 41.7392 63.4063 41.9547C64.9266 43.4703 66.4268 45.0154 67.9024 46.5939C68.045 46.7457 68.2488 46.9708 68.5062 47.2584C68.5293 47.2844 68.5619 47.3211 68.5869 47.3492C68.8021 47.5893 69.0611 47.8853 69.3451 48.2093C72.3589 51.6588 78.7828 59.3022 85.5346 67.9134C89.2578 72.6667 92.6424 77.1541 95.5853 81.2487L95.7803 81.5183L95.7843 81.5206C110.914 102.618 109.121 105.986 109.004 106.166ZM66.3937 16.4599C66.1551 16.5461 65.9266 16.6698 65.7276 16.8486C64.8822 17.5994 64.8059 18.8895 65.5568 19.7348C66.9107 21.2589 66.7627 23.7594 65.2386 25.1133C62.0778 27.9209 61.7747 33.1118 64.5788 36.2642C65.3296 37.1095 66.6217 37.1859 67.465 36.435C68.3103 35.6841 68.3866 34.3941 67.6358 33.5487C66.2819 32.0246 66.4298 29.5241 67.954 28.1702C69.5321 26.7704 70.4718 24.8391 70.5965 22.7326C70.652 21.7937 70.5179 20.8763 70.2543 20.0004C70.9642 20.6713 71.6524 21.3306 72.2998 21.9506C74.0463 23.625 75.5585 25.0705 76.8302 26.1473C87.4733 35.1486 96.881 45.9181 104.041 57.2941C104.907 58.6727 106.041 60.2822 107.239 61.9856C111.171 67.5705 116.554 75.2179 116.341 80.3813C116.287 82.2954 115.584 83.4828 114.264 84.1932C111.958 85.4333 108.254 84.8229 106.141 83.5488C103.879 82.1818 101.528 80.6151 98.7753 78.6394C95.4442 74.0098 91.8685 69.3247 88.4197 64.9523C86.0456 61.5959 83.5327 58.301 80.8997 55.0973C80.9701 55.0503 81.0513 55.0285 81.1161 54.9709C81.9614 54.22 82.0378 52.93 81.2869 52.0847C79.8928 50.513 80.0314 48.1022 81.6051 46.7062C83.1832 45.3063 84.123 43.3751 84.2476 41.2686C84.3721 39.1641 83.6687 37.1356 82.2648 35.5573C81.5139 34.712 80.2239 34.6356 79.3786 35.3865C78.5333 36.1374 78.4569 37.4274 79.2078 38.2727C80.5617 39.7969 80.4137 42.2973 78.8896 43.6512C77.0907 45.251 76.2311 47.4902 76.277 49.7256C75.0359 48.3371 73.7859 46.9625 72.5052 45.6208C71.7628 44.7699 71.1904 44.1277 70.884 43.8023C69.3697 42.1846 67.8406 40.6112 66.2972 39.0696C66.0593 38.8323 65.8187 38.6071 65.5806 38.3718C64.2125 37.0188 62.8346 35.694 61.4464 34.4033C61.3086 34.2743 61.1684 34.1513 61.0305 34.0244C59.4981 32.6084 57.9533 31.2307 56.3961 29.8891C56.3902 29.8846 56.3844 29.8781 56.3785 29.8737C54.7084 28.4332 53.023 27.041 51.3251 25.689L50.6755 25.0709C44.6901 15.7615 44.8944 13.2439 44.9543 12.8542L45.3239 12.3537C46.6801 9.7896 48.3281 8.38569 50.3589 8.05728C54.9133 7.31488 61.0168 11.7194 66.3937 16.4599Z" fill="#C5A042"/>
</g>
<defs>
<clipPath id="clip0_174_926">
<rect width="118" height="118" fill="white" transform="translate(0 118.126) rotate(-86.6138)"/>
</clipPath>
</defs>
</svg>
