<svg width="101" height="102" viewBox="0 0 101 102" fill="none" xmlns="http://www.w3.org/2000/svg">
<g clip-path="url(#clip0_174_789)">
<path d="M45.7975 68.6928C42.8377 68.4959 39.9019 68.0971 37.0482 67.5407C37.0568 67.3918 37.0893 67.248 37.0893 67.0974C37.0893 65.1749 36.2162 63.2046 34.7543 61.8248C33.3728 60.5238 31.6284 59.8356 29.8566 59.9674C28.0934 60.0479 25.5222 58.865 25.0771 57.7472C23.5313 53.8664 20.0288 51.9319 16.3637 52.9437C14.9104 53.3425 13.546 54.3132 12.5583 55.5868C10.7762 53.8578 9.17219 51.9747 7.80441 49.953C7.27373 49.1707 6.21238 48.9653 5.42663 49.4943C4.6426 50.0249 4.43889 51.0897 4.96785 51.872C6.71224 54.445 8.78531 56.8245 11.1254 58.9506C10.9868 59.9589 11.0706 60.962 11.4404 61.895C12.8544 65.4437 15.3332 68.5747 18.4728 70.7967V75.9408C18.4728 79.2824 21.1929 82.0026 24.5362 82.0026C27.8794 82.0026 30.5996 79.2824 30.5996 75.9408V74.1776C32.9294 73.8866 34.8758 72.6267 36.0125 70.8344C39.1247 71.4609 42.3379 71.894 45.5699 72.1097C45.6092 72.1114 45.6469 72.1131 45.6863 72.1131C46.5799 72.1131 47.3314 71.4198 47.393 70.5142C47.4546 69.571 46.7408 68.7562 45.7975 68.6928ZM29.8601 70.8087C29.5382 70.8258 29.2233 70.8275 28.9031 70.8207C28.4666 70.8378 28.0061 70.9953 27.6826 71.3171C27.3573 71.6389 27.1759 72.0755 27.1759 72.5325V75.9408C27.1759 77.3959 25.993 78.5788 24.5362 78.5788C23.0794 78.5788 21.8965 77.3959 21.8965 75.9408V69.886C21.8965 69.3005 21.5986 68.7579 21.1056 68.4429C18.192 66.5838 15.8895 63.8089 14.6228 60.6282C14.2838 59.7757 14.5423 58.9352 14.8179 58.3788C15.3298 57.3517 16.2918 56.5146 17.2727 56.2441C17.6271 56.1466 17.9626 56.1021 18.281 56.1021C20.0699 56.1021 21.3025 57.5195 21.8965 59.0122C23.064 61.9498 27.4463 63.5418 30.0569 63.3843C30.8803 63.3278 31.7192 63.6668 32.4073 64.3156C33.1965 65.0602 33.6673 66.0993 33.6673 67.0974C33.6673 69.3861 31.7517 70.6974 29.8601 70.8087Z" fill="#D5AE4C"/>
<path d="M61.319 67.3679C60.3894 67.539 59.7732 68.4292 59.9427 69.3587C60.0933 70.1839 60.814 70.7625 61.6254 70.7625C61.7281 70.7625 61.8308 70.7539 61.9353 70.7334C71.015 69.0712 83.8369 64.9165 93.3565 54.558C93.9968 53.8612 93.9506 52.7793 93.2538 52.1391C92.5588 51.5006 91.4769 51.5417 90.835 52.2418C81.9589 61.9036 69.8852 65.7998 61.319 67.3679Z" fill="#D5AE4C"/>
<path d="M53.8039 53.2928C54.1154 53.2671 54.427 53.2398 54.7351 53.2055C55.0467 53.1713 55.3531 53.1319 55.6578 53.0874C55.8393 53.0617 56.0173 53.0309 56.1971 53.0018C64.3318 51.6717 70.1864 47.0651 70.1864 41.4176C70.1864 34.6986 61.9147 29.4346 51.3559 29.4346C40.7971 29.4346 32.5254 34.6986 32.5254 41.4176C32.5254 47.0651 38.38 51.6717 46.5147 53.0018C46.6945 53.0309 46.8725 53.0617 47.054 53.0874C47.3587 53.1319 47.6668 53.1696 47.9767 53.2055C48.2848 53.2398 48.5947 53.2671 48.9079 53.2928C49.1425 53.3117 49.3753 53.3322 49.6132 53.3459C50.1884 53.3801 50.7687 53.4007 51.3559 53.4007C51.9431 53.4007 52.5234 53.3801 53.0986 53.3459C53.3365 53.3322 53.5693 53.3117 53.8039 53.2928ZM63.8936 46.3084C63.6094 46.5327 63.303 46.7449 62.9846 46.9521C62.7929 47.077 62.5943 47.1969 62.3906 47.315C62.1852 47.4348 61.9677 47.5461 61.7503 47.6591C61.3326 47.8731 60.8961 48.0751 60.4408 48.2651C60.2353 48.3507 60.0333 48.4397 59.8194 48.5184C59.5369 48.6246 59.2425 48.7204 58.948 48.8163C58.6998 48.8968 58.4482 48.9721 58.1931 49.044C57.9209 49.121 57.6487 49.1998 57.3663 49.2682C56.8561 49.3915 56.3357 49.5028 55.8016 49.5935C55.603 49.6277 55.3976 49.6517 55.1973 49.6825C54.7625 49.7458 54.3209 49.8023 53.8741 49.8451C53.6772 49.864 53.4786 49.8828 53.2783 49.8965C52.6449 49.9444 52.0064 49.9769 51.3559 49.9769C50.7054 49.9769 50.0669 49.9444 49.4335 49.8982C49.2332 49.8845 49.0363 49.8657 48.8377 49.8468C48.3909 49.804 47.951 49.7493 47.5145 49.6842C47.3125 49.6551 47.1088 49.6294 46.9102 49.5952C46.3761 49.5028 45.8557 49.3932 45.3455 49.2699C45.0648 49.2015 44.7926 49.1227 44.5204 49.0457C44.2654 48.9738 44.012 48.8985 43.7655 48.818C43.4711 48.7221 43.1766 48.6263 42.8942 48.5201C42.6802 48.4414 42.4782 48.3524 42.2727 48.2668C41.8174 48.0768 41.3792 47.8748 40.9632 47.6608C40.7458 47.5478 40.5301 47.4365 40.3229 47.3167C40.1192 47.1986 39.9206 47.0788 39.7289 46.9538C39.4088 46.7467 39.1024 46.5327 38.8182 46.3084C38.7583 46.2622 38.6898 46.2177 38.6316 46.1715C38.2601 45.865 37.9246 45.5432 37.6233 45.2111C37.6045 45.1906 37.5874 45.17 37.5685 45.1495C41.7044 43.5985 46.4292 42.7871 51.3559 42.7871C56.2826 42.7871 61.0074 43.5985 65.1467 45.1461C65.1278 45.1666 65.1107 45.1871 65.0919 45.2077C64.7889 45.5415 64.4551 45.8633 64.0836 46.168C64.0237 46.2177 63.9552 46.2622 63.8936 46.3084ZM51.3559 32.8583C59.7064 32.8583 66.7627 36.7785 66.7627 41.4176C66.7627 41.6402 66.7319 41.861 66.7011 42.0801C62.091 40.3015 56.8304 39.3634 51.3559 39.3634C45.8814 39.3634 40.6208 40.3015 36.0107 42.0801C35.9799 41.861 35.9491 41.6402 35.9491 41.4176C35.9491 36.7785 43.0054 32.8583 51.3559 32.8583Z" fill="#D5AE4C"/>
<path d="M50.5 7.18018C22.6531 7.18018 0 23.3076 0 43.1293V58.5361C0 78.3578 22.6531 94.4853 50.5 94.4853C78.3469 94.4853 101 78.3578 101 58.5293V43.1293C101 23.3076 78.3469 7.18018 50.5 7.18018ZM97.5763 58.5361C97.5763 76.4713 76.4587 91.0615 50.5 91.0615C24.5413 91.0615 3.42373 76.4713 3.42373 58.5293V43.1293C3.42373 25.1941 24.5413 10.6039 50.5 10.6039C76.4587 10.6039 97.5763 25.1941 97.5763 43.1293V58.5361Z" fill="#D5AE4C"/>
<path d="M28.886 65.5169C25.3014 66.0801 23.319 63.6972 23.2249 63.579C22.6428 62.8412 21.5764 62.7111 20.8317 63.2846C20.0836 63.8649 19.9467 64.94 20.527 65.6863C20.6434 65.837 23.1735 69.0296 27.775 69.0296C28.2988 69.0296 28.8484 68.9885 29.4235 68.8961C30.3565 68.7472 30.9933 67.8707 30.8461 66.936C30.6972 66.0048 29.8293 65.3542 28.886 65.5169Z" fill="#D5AE4C"/>
</g>
<defs>
<clipPath id="clip0_174_789">
<rect width="101" height="101" fill="white" transform="translate(0 0.33252)"/>
</clipPath>
</defs>
</svg>
