<svg width="82" height="81" viewBox="0 0 82 81" fill="none" xmlns="http://www.w3.org/2000/svg">
<g opacity="0.78">
<path d="M67.0527 27.5772C68.5807 28.2108 69.7557 29.5213 70.3206 31.2219C70.8855 32.9225 70.7944 34.8749 70.0672 36.6518L69.4377 38.1813L21.9997 18.6575L22.6292 17.128C23.3634 15.3539 24.6729 13.903 26.2713 13.0927C27.8696 12.2824 29.6267 12.1787 31.158 12.8042L67.0527 27.5772ZM68.3117 24.5182L32.4169 9.74521C30.1873 8.82755 27.6258 8.97556 25.296 10.1567C22.9662 11.3378 21.0589 13.4553 19.9938 16.0434L18.8922 18.72C18.6901 19.2108 18.6644 19.7507 18.8206 20.2208C18.9767 20.6909 19.302 21.0528 19.7249 21.2269L69.2449 41.6076C69.6677 41.7816 70.1535 41.7535 70.5954 41.5295C71.0373 41.3055 71.399 40.9039 71.601 40.4131L72.7026 37.7365C73.7677 35.1484 73.9035 32.3019 73.0801 29.823C72.2566 27.344 70.5414 25.4359 68.3117 24.5182Z" fill="#D5AE4C"/>
<path d="M65.57 47.7856L57.1879 68.152C56.3277 70.2422 54.7256 71.9269 52.7341 72.8357C50.7427 73.7444 48.525 73.8026 46.5689 72.9975L13.7361 59.4847C11.78 58.6797 10.2458 57.0773 9.47092 55.03C8.69603 52.9828 8.74399 50.6584 9.60423 48.5682L17.9863 28.2018L65.57 47.7856ZM69.3761 46.0488L16.5054 24.2891L6.9607 47.4802C5.79212 50.3196 5.72698 53.4771 6.77959 56.2581C7.3008 57.6351 8.08073 58.8783 9.07487 59.9166C10.069 60.9549 11.2579 61.768 12.5736 62.3095L45.4063 75.8223C48.0635 76.9159 51.0761 76.8368 53.7813 75.6024C56.4866 74.368 58.6629 72.0793 59.8314 69.24L69.3761 46.0488Z" fill="#D5AE4C"/>
<path d="M56.5165 17.1594C56.6702 17.2227 56.7885 17.3543 56.8453 17.5252C56.9021 17.6962 56.8927 17.8925 56.8193 18.071L56.5045 18.8357C56.4311 19.0142 56.2996 19.1602 56.1389 19.2417C55.9782 19.3232 55.8015 19.3334 55.6478 19.2701L45.106 14.9315C44.9522 14.8682 44.8339 14.7366 44.7772 14.5656C44.7204 14.3947 44.7297 14.1983 44.8032 14.0199L45.1179 13.2551C45.1543 13.1667 45.2053 13.0854 45.2681 13.0157C45.3308 12.9461 45.404 12.8895 45.4836 12.8491C45.5632 12.8088 45.6475 12.7855 45.7317 12.7807C45.816 12.7758 45.8986 12.7894 45.9747 12.8208L56.5165 17.1594ZM57.7754 14.1004L47.2337 9.76176C46.3809 9.4108 45.4013 9.46741 44.5103 9.91913C43.6193 10.3708 42.8898 11.1807 42.4825 12.1705L42.1677 12.9352C41.7604 13.925 41.7085 15.0136 42.0234 15.9617C42.3383 16.9097 42.9943 17.6395 43.847 17.9905L54.3888 22.3291C55.2415 22.68 56.2212 22.6234 57.1122 22.1717C58.0032 21.72 58.7326 20.9102 59.14 19.9204L59.4547 19.1556C59.8621 18.1659 59.914 17.0772 59.5991 16.1291C59.2842 15.1811 58.6282 14.4513 57.7754 14.1004Z" fill="#D5AE4C"/>
<path d="M70.77 42.432L69.3033 45.9957L16.5945 24.3026L18.0612 20.7389L70.77 42.432ZM72.9514 39.7526L18.3977 17.3002C17.9457 17.1142 17.4266 17.1431 16.9536 17.3806C16.4806 17.6181 16.0921 18.045 15.8727 18.5683L13.5184 24.2886C13.4109 24.5497 13.3488 24.8265 13.3356 25.1032C13.3224 25.3798 13.3584 25.651 13.4415 25.9011C13.5245 26.1512 13.6531 26.3753 13.8198 26.5608C13.9865 26.7463 14.1881 26.8894 14.4131 26.982L68.9667 49.4343C69.1917 49.5269 69.4356 49.5672 69.6846 49.5528C69.9335 49.5384 70.1826 49.4697 70.4177 49.3505C70.6528 49.2313 70.8692 49.0641 71.0545 48.8583C71.2399 48.6524 71.3906 48.4121 71.4981 48.151L73.8524 42.4307C74.0648 41.9046 74.0894 41.3278 73.9206 40.8262C73.7518 40.3245 73.4034 39.9386 72.9514 39.7526Z" fill="#D5AE4C"/>
</g>
</svg>
