<svg width="104" height="105" viewBox="0 0 104 105" fill="none" xmlns="http://www.w3.org/2000/svg">
<g opacity="0.78" clip-path="url(#clip0_174_920)">
<path d="M58.09 55.6479C58.9374 56.0466 59.9475 55.6828 60.3462 54.8354C60.7449 53.9881 60.3811 52.9779 59.5337 52.5793C58.6863 52.1806 57.6762 52.5444 57.2775 53.3918C56.8789 54.2391 57.2426 55.2493 58.09 55.6479Z" fill="#C5A042" stroke="#C5A042" stroke-width="0.00205"/>
<path d="M44.881 48.6128C45.7284 49.0114 46.7386 48.6477 47.1372 47.8003C47.5359 46.9529 47.1721 45.9428 46.3247 45.5441C45.4773 45.1454 44.4672 45.5092 44.0686 46.3566C43.6699 47.204 44.0337 48.2141 44.881 48.6128Z" fill="#C5A042" stroke="#C5A042" stroke-width="0.00205"/>
<path d="M82.6545 52.352C86.3263 48.407 88.6773 43.1867 89.1907 37.5666C89.3505 35.8128 88.8166 34.0718 87.7708 32.6503C87.4889 27.3344 75.9575 20.4458 68.4945 16.9347C61.03 13.423 48.3696 8.93025 44.0953 12.1045C42.3348 12.2058 40.6539 12.9029 39.4047 14.1441C35.4007 18.1221 32.8786 23.2638 32.1804 28.6077C31.9832 29.1821 31.9143 29.7868 32.0183 30.426C31.9927 30.9105 31.9527 31.3939 31.959 31.8785C32.098 42.481 37.707 51.9522 46.7537 57.1715L38.0331 75.7078C33.072 73.5068 20.7621 68.6037 18.6377 73.1193C16.2332 78.2301 31.4484 85.705 34.5232 87.1516C37.598 88.5981 53.0572 95.5544 55.4616 90.4435C57.586 85.928 45.9604 79.5703 41.1018 77.1515L49.7841 58.6965C59.9669 63.1461 71.5717 61.6216 80.2744 54.6109C80.6517 54.3068 80.9986 53.9678 81.3556 53.6392C81.9151 53.3102 82.337 52.8716 82.6545 52.352ZM84.4163 32.8018L84.4006 32.875C84.3651 32.9108 84.3081 32.9402 84.2596 32.9717C84.2147 32.9993 84.1814 33.0305 84.1243 33.0561C84.0605 33.0842 83.9738 33.1052 83.8954 33.1283C83.8239 33.149 83.7615 33.174 83.6785 33.1912C83.5894 33.2092 83.479 33.221 83.3753 33.2341C83.2771 33.2478 83.1865 33.2651 83.0759 33.2731C82.9653 33.281 82.8334 33.2827 82.7099 33.2864C82.5802 33.291 82.4606 33.2984 82.3202 33.298C82.1913 33.2973 82.0424 33.2872 81.9042 33.2821C81.744 33.2761 81.5937 33.2729 81.4213 33.2611C81.2708 33.2502 81.1019 33.2308 80.9423 33.2156C80.7575 33.198 80.5789 33.1834 80.3804 33.1593C80.2122 33.1383 80.0257 33.1086 79.8468 33.0825C79.6344 33.052 79.4298 33.025 79.2036 32.9879C79.0178 32.9567 78.8127 32.9146 78.6177 32.8791C78.3799 32.8347 78.1492 32.7954 77.8984 32.743C77.688 32.7003 77.4629 32.645 77.244 32.5963C76.9878 32.5395 76.737 32.4871 76.4699 32.4214C76.241 32.3662 75.9975 32.2985 75.7601 32.2374C75.4815 32.1644 75.2106 32.0988 74.9205 32.0185C74.6616 31.9474 74.385 31.8622 74.1169 31.7829C73.8319 31.6994 73.5555 31.6218 73.2628 31.531C72.9701 31.4401 72.6596 31.3353 72.3576 31.2363C72.0686 31.1416 71.7889 31.055 71.4922 30.9528C71.1648 30.8401 70.8182 30.7126 70.48 30.591C70.1946 30.4886 69.9155 30.3928 69.6239 30.2837C69.248 30.1425 68.8552 29.9858 68.4677 29.8335C68.1959 29.7262 67.931 29.6279 67.6522 29.5155C67.1819 29.3242 66.6945 29.1136 66.2094 28.906C66.0017 28.8176 65.8033 28.7374 65.5933 28.6461C64.8882 28.3444 64.1719 28.0187 63.4416 27.6751C62.7051 27.3286 61.9929 26.9823 61.3027 26.6332C59.7578 25.8539 58.3413 25.0769 57.0289 24.3096C55.9972 23.7062 55.0257 23.1104 54.1388 22.5301C54.0941 22.5016 54.0555 22.4722 54.0108 22.4437C53.0552 21.8142 52.1803 21.2002 51.3971 20.6144C47.7052 17.8506 45.917 15.645 46.077 14.8508L46.1434 14.7734C47.3661 13.7239 55.5203 14.5787 67.0508 20.0034C78.6335 25.4526 84.4984 31.2214 84.4163 32.8018ZM41.7955 16.5507C42.0911 16.2569 42.4351 16.0158 42.8054 15.834C42.854 16.0255 42.9407 16.2237 43.0143 16.4176C43.0548 16.5228 43.0808 16.6269 43.1281 16.7335C43.4489 17.4616 43.934 18.207 44.5505 18.9599C44.6443 19.0752 44.7517 19.1895 44.85 19.3032C45.0793 19.5685 45.317 19.8321 45.5744 20.0975C45.7058 20.2324 45.8448 20.3671 45.9838 20.5019C46.2385 20.7491 46.4993 20.9955 46.7745 21.243C46.9287 21.3812 47.0837 21.5178 47.244 21.655C47.5321 21.903 47.8316 22.1507 48.1378 22.396C48.2995 22.5264 48.4581 22.6553 48.6258 22.7848C48.9705 23.0519 49.3265 23.3188 49.6894 23.5832C49.8291 23.6845 49.9636 23.789 50.1055 23.8895C51.1304 24.6228 52.2094 25.3366 53.3106 26.0233C53.4769 26.1278 53.6454 26.2276 53.8125 26.3306C54.1981 26.5664 54.583 26.7999 54.9715 27.0296C55.1754 27.1498 55.3792 27.2663 55.5838 27.3851C55.9376 27.589 56.2906 27.7907 56.6442 27.987C56.858 28.1063 57.0702 28.2249 57.2838 28.3404C57.6312 28.5301 57.9754 28.7145 58.3188 28.8967C58.5217 29.0033 58.7237 29.1115 58.925 29.2175C59.2937 29.4097 59.6538 29.5922 60.0131 29.7725C60.1751 29.8543 60.341 29.9399 60.5007 30.0187C61.0127 30.2727 61.5146 30.5163 61.9979 30.7437C62.4812 30.9711 62.9889 31.2025 63.511 31.435C63.6736 31.5077 63.8452 31.581 64.0116 31.6536C64.3796 31.8155 64.7498 31.9765 65.1329 32.138C65.3406 32.2264 65.5528 32.3131 65.7665 32.4005C66.1258 32.5489 66.4858 32.6958 66.855 32.8433C67.0809 32.9327 67.3068 33.0221 67.5349 33.1107C67.9117 33.2579 68.2905 33.4006 68.6748 33.5439C68.8967 33.6258 69.1148 33.7078 69.339 33.7889C69.7599 33.9419 70.1821 34.0881 70.6065 34.2335C70.797 34.2987 70.9852 34.3647 71.1756 34.43C72.4051 34.8398 73.6383 35.2138 74.8529 35.536C75.033 35.5832 75.2085 35.6246 75.3878 35.6696C75.8098 35.7763 76.2302 35.8785 76.6443 35.9702C76.8601 36.0174 77.0705 36.0602 77.2839 36.1044C77.6582 36.1811 78.0278 36.252 78.3919 36.3145C78.6104 36.3518 78.8229 36.3862 79.0368 36.4175C79.3908 36.4697 79.7362 36.5122 80.0761 36.5504C80.2792 36.5728 80.4838 36.596 80.6829 36.611C81.0348 36.6397 81.3719 36.6521 81.7073 36.66C81.8743 36.6636 82.0468 36.6754 82.2083 36.6746C82.6573 36.6722 83.0899 36.649 83.4976 36.6028C83.5294 36.599 83.5666 36.5997 83.5976 36.5974C84.031 36.5446 84.434 36.4606 84.8138 36.3544C84.9351 36.3196 85.0409 36.2701 85.1568 36.2309C85.3471 36.1649 85.5475 36.1093 85.7193 36.0271C85.8169 36.429 85.8504 36.8477 85.8118 37.2643C85.4703 41.0014 84.2008 44.5324 82.2035 47.5112C79.2798 42.6127 70.2963 36.741 61.1931 32.4583C52.09 28.1756 41.8397 24.9967 36.2011 25.8688C37.2232 22.4256 39.1326 19.1957 41.7955 16.5507ZM79.2239 51.0004C76.9611 51.8191 68.3663 50.8732 55.3981 44.7721C42.4284 38.6704 36.2215 32.6527 35.4096 30.3874C35.4259 30.1177 35.4331 29.8475 35.4607 29.5775C36.5841 28.3408 45.533 28.833 59.7501 35.5216C73.9657 42.2095 80.0525 48.7892 79.8159 50.4431C79.6256 50.6365 79.422 50.8144 79.2239 51.0004ZM52.1514 88.8881C50.3562 89.1548 44.5416 88.1188 35.9662 84.0844C27.3908 80.05 22.8855 76.2308 21.9465 74.6778C23.6328 74.4274 28.8617 75.3264 36.5902 78.7749L35.8755 80.2939C35.4763 81.1424 35.8411 82.1516 36.688 82.5501C37.535 82.9486 38.545 82.5861 38.9442 81.7376L39.6588 80.2186C47.243 83.9741 51.2692 87.4293 52.1514 88.8881ZM50.4484 55.293C42.6126 51.6066 37.2652 44.5147 35.7801 36.2078C39.9264 40.2442 46.8965 44.5203 53.9544 47.8408C61.0123 51.1613 68.7497 53.8064 74.5051 54.4265C67.1571 58.5777 58.2827 58.9788 50.4484 55.293Z" fill="#C5A042" stroke="#C5A042" stroke-width="0.00205"/>
</g>
<defs>
<clipPath id="clip0_174_920">
<rect width="78" height="78" fill="white" transform="translate(33.2048 0.33252) rotate(25.1952)"/>
</clipPath>
</defs>
</svg>
