<svg width="115" height="115" viewBox="0 0 115 115" fill="none" xmlns="http://www.w3.org/2000/svg">
<g clip-path="url(#clip0_174_1015)">
<mask id="mask0_174_1015" style="mask-type:luminance" maskUnits="userSpaceOnUse" x="2" y="2" width="111" height="111">
<path d="M30.2167 2.44803L2.11572 84.3662L84.0339 112.467L112.135 30.549L30.2167 2.44803Z" fill="white"/>
</mask>
<g mask="url(#mask0_174_1015)">
<path d="M49.5221 14.8719L49.4481 14.9081C48.4815 14.2364 47.4261 13.7025 46.3123 13.3218C44.4268 12.6725 42.4168 12.4677 40.4392 12.7234C38.4615 12.9791 36.5697 13.6884 34.9114 14.7959C33.2531 15.9034 31.8732 17.3792 30.8794 19.1081C29.8856 20.8369 29.3048 22.772 29.1823 24.7624C24.3216 27.1468 20.6053 31.3619 18.8485 36.483C17.0918 41.6041 17.4382 47.2129 19.8117 52.0789L38.7956 90.8476C41.1812 95.7093 45.3975 99.4263 50.5199 101.183C55.6423 102.941 61.2525 102.594 66.12 100.221C68.0089 101.521 70.2097 102.296 72.4967 102.465C74.7837 102.634 77.0745 102.191 79.1339 101.182C81.1934 100.174 82.9474 98.6351 84.2158 96.7246C85.4843 94.8142 86.2216 92.6006 86.352 90.3111L86.4182 90.2722C91.0084 87.7431 94.4488 83.544 96.0256 78.5461C97.6024 73.5481 97.1945 68.1349 94.8867 63.4297L90.0354 53.4989L87.0338 54.9606L91.8877 64.8835C93.6817 68.5518 94.1007 72.7419 93.0685 76.6929C92.0362 80.6438 89.6213 84.0935 86.2622 86.4155L52.4766 17.3204C56.3717 16.0975 60.576 16.3103 64.3277 17.9203C68.0795 19.5303 71.1304 22.4309 72.9277 26.0966L82.6301 45.9581L85.6239 44.4937L75.9107 24.6637C73.6113 19.9549 69.5882 16.3115 64.6753 14.4885C59.7624 12.6655 54.3365 12.8028 49.5221 14.8719ZM51.5946 98.0377C49.4693 97.3166 47.508 96.1811 45.8245 94.6969C44.141 93.2127 42.7685 91.4093 41.7867 89.3911L22.837 50.6253C20.9611 46.8164 20.5719 42.4451 21.7454 38.3647C22.9188 34.2843 25.5707 30.7876 29.1835 28.5572L30.472 31.1913L61.8341 95.238L63.1277 97.8827C59.4196 99.2807 55.339 99.3355 51.5946 98.0377ZM50.7247 21.3237L82.1457 85.558C83.2628 87.8418 83.427 90.4759 82.6021 92.8807C81.7771 95.2855 80.0306 97.2642 77.7468 98.3813C75.463 99.4985 72.8289 99.6626 70.4241 98.8377C68.0193 98.0127 66.0406 96.2663 64.9235 93.9825L33.5025 29.7482C32.3872 27.4641 32.2241 24.8307 33.0488 22.4264C33.8736 20.0221 35.6189 18.0434 37.9014 16.9249C40.1855 15.8096 42.8188 15.6464 45.2231 16.4712C47.6275 17.296 49.6062 19.0412 50.7247 21.3237Z" fill="#C5A042"/>
<path d="M70.7647 86.989C70.6569 87.2991 70.4598 87.5705 70.1981 87.7689C69.9365 87.9674 69.622 88.084 69.2942 88.1043C68.9665 88.1245 68.6401 88.0474 68.356 87.8826C68.072 87.7178 67.843 87.4728 67.6978 87.1782C66.7042 85.1471 67.1174 82.7622 67.5089 80.4403C67.8169 78.6443 68.1359 76.7905 67.6105 75.7299C67.0852 74.6694 65.4365 73.7781 63.8297 72.9188C61.7615 71.8132 59.62 70.6648 58.6265 68.6336C57.6329 66.6025 58.0461 64.2176 58.4376 61.8957C58.7456 60.0997 59.0645 58.246 58.5392 57.1854C58.0138 56.1248 56.3652 55.2335 54.7584 54.3742C52.6902 53.2686 50.5487 52.1202 49.5552 50.0891C48.5616 48.0579 48.9748 45.673 49.3663 43.3511C49.6742 41.5552 49.9932 39.7014 49.4679 38.6408C48.9425 37.5802 47.2939 36.6889 45.6871 35.8296C43.6189 34.724 41.4774 33.5756 40.4839 31.5445C40.3877 31.3479 40.3312 31.1343 40.3176 30.9159C40.304 30.6975 40.3335 30.4786 40.4045 30.2716C40.4755 30.0646 40.5866 29.8736 40.7314 29.7095C40.8762 29.5455 41.052 29.4115 41.2485 29.3154C41.4451 29.2192 41.6587 29.1627 41.8771 29.1491C42.0955 29.1355 42.3145 29.165 42.5215 29.236C42.7284 29.3071 42.9194 29.4181 43.0835 29.563C43.2476 29.7078 43.3815 29.8835 43.4776 30.0801C43.9951 31.1379 45.6517 32.0319 47.2585 32.8912C49.3266 33.9969 51.4681 35.1452 52.4617 37.1764C53.4552 39.2075 53.0421 41.5924 52.6505 43.9143C52.3426 45.7103 52.0236 47.564 52.549 48.6246C53.0743 49.6852 54.723 50.5765 56.3298 51.4358C58.3979 52.5414 60.5394 53.6898 61.533 55.7209C62.5265 57.7521 62.1134 60.137 61.7219 62.4589C61.4139 64.2548 61.0949 66.1086 61.6203 67.1692C62.1456 68.2298 63.7574 69.126 65.3696 69.9696C67.4377 71.0752 69.5792 72.2236 70.5728 74.2547C71.5663 76.2858 71.1532 78.6707 70.7617 80.9926C70.4537 82.7886 70.1347 84.6424 70.6601 85.703C70.7622 85.8996 70.824 86.1146 70.842 86.3354C70.86 86.5562 70.8337 86.7784 70.7647 86.989Z" fill="#C5A042"/>
<path d="M87.6576 49.0798C87.2534 48.2535 86.256 47.9114 85.4297 48.3155C84.6035 48.7197 84.2613 49.7172 84.6655 50.5434C85.0696 51.3697 86.0671 51.7118 86.8934 51.3077C87.7196 50.9035 88.0618 49.906 87.6576 49.0798Z" fill="#C5A042"/>
</g>
</g>
<defs>
<clipPath id="clip0_174_1015">
<rect width="89.9349" height="89.9349" fill="white" transform="translate(0 85.4014) rotate(-71.0662)"/>
</clipPath>
</defs>
</svg>
