<svg width="110" height="109" viewBox="0 0 110 109" fill="none" xmlns="http://www.w3.org/2000/svg">
<path d="M99.4894 57.0846C98.4128 56.2117 97.2022 54.722 96.1674 52.9974C94.578 50.3502 93.7629 47.793 94.0917 46.4827C94.2228 45.9598 94.5092 45.695 94.7254 45.5646C95.3787 45.1721 96.2384 45.4014 97.2797 46.2456C98.3571 47.1192 99.5676 48.6088 100.603 50.3353C101.523 51.8679 102.212 53.4256 102.542 54.7218C102.945 56.303 102.778 57.3274 102.047 57.7658C101.393 58.1591 100.532 57.9295 99.4894 57.0846ZM96.4649 47.2504C95.8093 46.7189 95.4549 46.6585 95.3809 46.6774C95.1403 46.9379 95.3283 49.0873 97.2761 52.3318C98.2364 53.9315 99.3402 55.2983 100.304 56.0796C100.96 56.6118 101.316 56.6725 101.389 56.6522C101.631 56.3929 101.441 54.2437 99.4938 51.0005C98.5323 49.3983 97.4285 48.0316 96.4649 47.2504ZM91.4341 60.621C91.4126 60.6033 91.392 60.5845 91.3725 60.5645C90.5421 59.6929 89.707 58.5726 88.9571 57.3231C88.2097 56.0804 87.6131 54.8184 87.235 53.6759C87.1228 53.3369 87.3077 52.9721 87.6467 52.8591C87.9861 52.7457 88.3499 52.9284 88.4643 53.2708C88.8119 54.3226 89.3653 55.4934 90.0654 56.6561C90.7674 57.8263 91.5437 58.8686 92.3084 59.6708C92.4268 59.795 92.4911 59.9612 92.4871 60.1328C92.483 60.3044 92.411 60.4674 92.2869 60.5859C92.1733 60.6944 92.0241 60.7578 91.8671 60.7643C91.7102 60.7708 91.5562 60.7198 91.4341 60.621Z" fill="#C5A042"/>
<path d="M74 59.0141C73.9431 58.9679 73.8931 58.9112 73.8529 58.8444C73.8091 58.7716 73.7801 58.6909 73.7675 58.6069C73.755 58.5229 73.7591 58.4373 73.7797 58.3549C73.8003 58.2724 73.8369 58.1949 73.8875 58.1267C73.9381 58.0584 74.0017 58.0009 74.0745 57.9572L94.7251 45.5652C94.8721 45.477 95.0482 45.4508 95.2146 45.4923C95.381 45.5339 95.524 45.6398 95.6124 45.7867C95.6561 45.8595 95.6851 45.9402 95.6977 46.0242C95.7102 46.1082 95.7061 46.1939 95.6855 46.2763C95.6649 46.3587 95.6283 46.4362 95.5777 46.5045C95.5271 46.5727 95.4636 46.6303 95.3907 46.6739L74.74 59.0658C74.6263 59.1342 74.4942 59.1658 74.3618 59.1566C74.2295 59.1473 74.1031 59.0976 74 59.0141ZM84.6926 67.6847C84.6356 67.6386 84.5847 67.581 84.5455 67.5151C84.5017 67.4423 84.4727 67.3616 84.4601 67.2776C84.4475 67.1935 84.4517 67.1079 84.4722 67.0255C84.4928 66.9431 84.5294 66.8655 84.58 66.7973C84.6306 66.729 84.6941 66.6714 84.767 66.6278L101.381 56.6571C101.687 56.4724 102.085 56.5736 102.268 56.8786C102.312 56.9514 102.341 57.0321 102.354 57.1161C102.366 57.2001 102.362 57.2857 102.341 57.3681C102.321 57.4505 102.284 57.5281 102.234 57.5963C102.183 57.6645 102.12 57.7221 102.047 57.7658L85.4328 67.7366C85.319 67.805 85.1869 67.8368 85.0545 67.8275C84.922 67.8182 84.7956 67.7684 84.6926 67.6847ZM76.3161 60.6526C76.2352 60.5872 76.1714 60.5033 76.1299 60.4079C76.0884 60.3125 76.0706 60.2085 76.0779 60.1048C76.0852 60.001 76.1175 59.9006 76.1719 59.812C76.2264 59.7234 76.3014 59.6492 76.3907 59.5958L87.5163 52.9182C87.6634 52.8305 87.8393 52.8046 88.0056 52.8461C88.1718 52.8876 88.3148 52.9932 88.4034 53.1399C88.4472 53.2127 88.4763 53.2934 88.4888 53.3774C88.5014 53.4614 88.4973 53.5471 88.4767 53.6295C88.4561 53.7119 88.4195 53.7894 88.3689 53.8577C88.3183 53.9259 88.2548 53.9835 88.1819 54.0272L77.0562 60.7046C76.9424 60.773 76.8104 60.8047 76.678 60.7954C76.5455 60.7861 76.4192 60.7363 76.3161 60.6526ZM82.5524 65.9495C82.4955 65.9034 82.4455 65.8467 82.4053 65.7799C82.3615 65.7071 82.3324 65.6264 82.3199 65.5424C82.3073 65.4584 82.3114 65.3727 82.332 65.2903C82.3526 65.2079 82.3892 65.1303 82.4398 65.0621C82.4904 64.9939 82.5539 64.9363 82.6268 64.8926L91.5077 59.5634C91.8132 59.3793 92.211 59.4804 92.3949 59.7849C92.4387 59.8576 92.4677 59.9383 92.4803 60.0224C92.4928 60.1064 92.4887 60.192 92.4681 60.2744C92.4476 60.3568 92.4109 60.4344 92.3604 60.5026C92.3098 60.5709 92.2462 60.6285 92.1734 60.6721L83.2926 66.0014C83.1787 66.0697 83.0467 66.1013 82.9143 66.092C82.7819 66.0828 82.6555 66.033 82.5524 65.9495ZM83.7856 75.2745L24.4984 27.2076C24.2206 26.9824 24.178 26.5756 24.4032 26.2978L26.8473 23.2832C26.9008 23.2172 26.9667 23.1623 27.0414 23.1218C27.1161 23.0813 27.198 23.0559 27.2825 23.0471C27.367 23.0383 27.4525 23.0462 27.5339 23.0704C27.6153 23.0946 27.6912 23.1346 27.7572 23.1882L53.8838 44.3703C54.1614 44.5954 54.2041 45.0025 53.979 45.2801C53.9255 45.3461 53.8596 45.401 53.7849 45.4415C53.7102 45.482 53.6283 45.5074 53.5438 45.5162C53.4592 45.525 53.3738 45.5171 53.2924 45.4929C53.211 45.4687 53.1351 45.4286 53.0691 45.3751L27.4449 24.6004L25.8155 26.6101L84.0978 73.8623L85.7273 71.8525L60.103 51.0778C60.037 51.0243 59.9822 50.9584 59.9417 50.8837C59.9012 50.8091 59.8758 50.7271 59.867 50.6427C59.8582 50.5582 59.8661 50.4728 59.8903 50.3914C59.9145 50.31 59.9545 50.2341 60.0081 50.1682C60.0615 50.1021 60.1275 50.0473 60.2021 50.0068C60.2768 49.9663 60.3587 49.9409 60.4432 49.932C60.5276 49.9232 60.613 49.9311 60.6945 49.9553C60.7759 49.9794 60.8517 50.0194 60.9177 50.073L87.0443 71.255C87.3221 71.4802 87.3646 71.8872 87.1395 72.1649L84.6955 75.1795C84.642 75.2455 84.576 75.3003 84.5013 75.3409C84.4267 75.3814 84.3447 75.4068 84.2602 75.4156C84.1757 75.4244 84.0903 75.4165 84.0089 75.3923C83.9274 75.3681 83.8515 75.328 83.7856 75.2745Z" fill="#C5A042"/>
<path d="M52.1207 97.898L8.91142 62.8662C8.79575 62.7726 8.71591 62.642 8.6854 62.4963C8.65489 62.3507 8.67556 62.199 8.74392 62.0668L26.3413 28.0369C26.4203 27.8847 26.5565 27.77 26.7199 27.7181C26.8834 27.6661 27.0608 27.6812 27.2132 27.7599C27.5285 27.9195 27.6546 28.3136 27.4904 28.6317L10.1355 62.1931L52.5263 96.5613L81.7733 72.6413C82.0508 72.4151 82.4587 72.4539 82.6845 72.733C82.7925 72.866 82.8436 73.0363 82.8266 73.2069C82.8095 73.3774 82.7258 73.5343 82.5936 73.6433L52.9378 97.8969C52.8225 97.991 52.6783 98.0424 52.5295 98.0427C52.3806 98.0429 52.2363 97.9918 52.1207 97.898Z" fill="#C5A042"/>
<path d="M52.1206 97.8979C52.0378 97.8309 51.9728 97.7445 51.9315 97.6464C51.8902 97.5482 51.8739 97.4414 51.884 97.3353C51.8917 97.2507 51.9161 97.1685 51.9558 97.0933C51.9954 97.0182 52.0495 96.9515 52.1149 96.8973C52.1803 96.8431 52.2557 96.8023 52.3369 96.7772C52.4181 96.7522 52.5035 96.7434 52.5881 96.7514L56.9684 97.1622L84.9047 74.3753C85.1805 74.1494 85.586 74.1812 85.8148 74.4683C85.8684 74.5341 85.9085 74.6099 85.9328 74.6912C85.9572 74.7725 85.9652 74.8578 85.9566 74.9422C85.9479 75.0266 85.9228 75.1085 85.8825 75.1832C85.8422 75.2579 85.7875 75.3239 85.7217 75.3775L57.5801 98.3313C57.4489 98.4388 57.2805 98.49 57.1117 98.4738L52.4679 98.0395C52.3407 98.0274 52.2199 97.9782 52.1206 97.8979ZM35.404 74.3529C34.2957 73.4543 34.1247 71.8225 35.0237 70.7137L46.4295 56.6454C47.3277 55.5375 48.9601 55.3664 50.0686 56.2651C51.1771 57.1638 51.3473 58.7964 50.4491 59.9042L39.0432 73.9725C38.1442 75.0814 36.5125 75.2516 35.404 74.3529ZM49.254 57.27C48.7 56.8209 47.8829 56.9067 47.4343 57.46L36.0285 71.5283C35.579 72.0828 35.6648 72.8987 36.2188 73.3479C36.7729 73.7971 37.5889 73.7123 38.0384 73.1579L49.4443 59.0895C49.8927 58.5361 49.8079 57.719 49.254 57.27ZM24.3504 65.3912C23.2421 64.4926 23.0711 62.8609 23.9701 61.752L34.3429 46.9066C35.269 45.7612 36.9016 45.5902 38.01 46.4888C39.1183 47.3874 39.2886 49.0201 38.3904 50.1279L28.0168 64.9743C27.0906 66.1197 25.4588 66.2898 24.3504 65.3912ZM37.1955 47.4936C36.6416 47.0445 35.8245 47.1304 35.3759 47.6837L25.0023 62.5301C24.5256 63.1211 24.6114 63.9371 25.1653 64.3861C25.7192 64.8352 26.5354 64.7505 26.9849 64.1961L37.3578 49.3507C37.8343 48.7598 37.7495 47.9427 37.1955 47.4936ZM46.4575 83.3144C45.3487 82.4154 45.1782 80.7841 46.0772 79.6752L58.5186 66.388C59.3861 65.3138 61.0181 65.1423 62.1269 66.0413C63.2358 66.9403 63.4056 68.5726 62.5074 69.6804L50.0651 82.9687C49.1976 84.0428 47.5665 84.2135 46.4575 83.3144ZM61.3123 67.0462C60.7588 66.5975 59.9414 66.683 59.4928 67.2363L47.0507 80.5247C46.6326 81.0444 46.7187 81.8607 47.2723 82.3095C47.8258 82.7583 48.6423 82.6737 49.0918 82.1193L61.5331 68.832C61.951 68.3124 61.8658 67.495 61.3123 67.0462ZM26.9431 24.1931C26.8349 24.1058 26.7577 23.9861 26.7229 23.8515C26.6881 23.7169 26.6977 23.5748 26.7501 23.446C26.8025 23.3173 26.895 23.2089 27.0138 23.1369C27.1327 23.0649 27.2716 23.0331 27.41 23.0462L32.054 23.4805C32.1386 23.4883 32.2209 23.5128 32.296 23.5524C32.3712 23.592 32.4378 23.6461 32.492 23.7115C32.5463 23.7769 32.5871 23.8524 32.6121 23.9336C32.6371 24.0148 32.6458 24.1002 32.6378 24.1848C32.63 24.2694 32.6055 24.3516 32.5658 24.4267C32.5262 24.5019 32.4721 24.5684 32.4067 24.6227C32.3413 24.6769 32.2658 24.7177 32.1847 24.7427C32.1035 24.7678 32.0182 24.7765 31.9336 24.7686L27.2896 24.3343C27.1627 24.3223 27.0422 24.2732 26.9431 24.1931ZM86.2297 72.2595C86.1469 72.1926 86.0819 72.1062 86.0406 72.008C85.9993 71.9099 85.9829 71.803 85.993 71.697C86.0008 71.6124 86.0253 71.5301 86.0649 71.455C86.1045 71.3798 86.1586 71.3132 86.224 71.259C86.2894 71.2047 86.3649 71.1639 86.4461 71.1389C86.5273 71.1139 86.6127 71.1052 86.6973 71.1132L91.3413 71.5475C91.4259 71.5553 91.5081 71.5797 91.5833 71.6194C91.6584 71.659 91.725 71.7131 91.7793 71.7785C91.8335 71.8439 91.8743 71.9194 91.8993 72.0006C91.9243 72.0818 91.9331 72.1671 91.9251 72.2517C91.9173 72.3363 91.8929 72.4186 91.8532 72.4937C91.8136 72.5689 91.7595 72.6355 91.6941 72.6897C91.6287 72.7439 91.5532 72.7847 91.472 72.8097C91.3908 72.8348 91.3055 72.8435 91.2209 72.8355L86.5768 72.4012C86.4497 72.3891 86.329 72.3398 86.2297 72.2595Z" fill="#C5A042"/>
<path d="M83.7857 75.2741C83.7029 75.2072 83.6379 75.1208 83.5967 75.0226C83.5554 74.9245 83.539 74.8176 83.549 74.7116C83.5568 74.627 83.5813 74.5447 83.6209 74.4696C83.6605 74.3944 83.7146 74.3278 83.78 74.2736C83.8454 74.2193 83.9209 74.1785 84.0021 74.1535C84.0833 74.1285 84.1687 74.1198 84.2533 74.1278L88.8973 74.5621C89.0656 74.5811 89.2198 74.6654 89.3267 74.7969C89.4335 74.9284 89.4845 75.0965 89.4688 75.2652C89.453 75.4338 89.3717 75.5896 89.2423 75.699C89.1129 75.8084 88.9458 75.8626 88.7769 75.8501L84.133 75.4157C84.0058 75.4037 83.885 75.3545 83.7857 75.2741ZM90.8737 72.6939L89.8689 71.8793C89.8029 71.8258 89.7481 71.7599 89.7076 71.6852C89.667 71.6105 89.6416 71.5286 89.6328 71.4441C89.624 71.3596 89.6319 71.2742 89.6561 71.1928C89.6803 71.1114 89.7203 71.0355 89.7738 70.9695C89.8273 70.9035 89.8932 70.8487 89.9679 70.8082C90.0426 70.7677 90.1245 70.7423 90.209 70.7334C90.2935 70.7246 90.3789 70.7325 90.4603 70.7567C90.5417 70.7809 90.6176 70.8209 90.6836 70.8744L91.6884 71.6891C91.7544 71.7426 91.8093 71.8085 91.8498 71.8832C91.8903 71.9578 91.9157 72.0398 91.9245 72.1243C91.9334 72.2088 91.9255 72.2942 91.9013 72.3756C91.877 72.457 91.837 72.5329 91.7835 72.5988C91.73 72.6649 91.6641 72.7197 91.5894 72.7602C91.5147 72.8007 91.4328 72.8261 91.3483 72.8349C91.2638 72.8438 91.1784 72.8359 91.097 72.8117C91.0156 72.7875 90.9397 72.7475 90.8737 72.6939ZM32.5914 25.4418L31.5864 24.627C31.5204 24.5735 31.4656 24.5076 31.4251 24.4329C31.3846 24.3582 31.3592 24.2763 31.3503 24.1918C31.3415 24.1073 31.3494 24.0219 31.3736 23.9405C31.3978 23.8591 31.4378 23.7832 31.4914 23.7173C31.5448 23.6512 31.6108 23.5964 31.6854 23.5559C31.7601 23.5154 31.842 23.49 31.9265 23.4812C32.011 23.4723 32.0964 23.4802 32.1778 23.5044C32.2593 23.5286 32.3351 23.5686 32.4011 23.6222L33.406 24.4369C33.4721 24.4904 33.5269 24.5564 33.5674 24.631C33.6079 24.7057 33.6333 24.7876 33.6421 24.8721C33.651 24.9566 33.6431 25.042 33.6189 25.1234C33.5947 25.2049 33.5547 25.2807 33.5011 25.3467C33.4477 25.4127 33.3817 25.4675 33.307 25.508C33.2324 25.5485 33.1505 25.5739 33.066 25.5828C32.9815 25.5916 32.8961 25.5837 32.8146 25.5595C32.7332 25.5353 32.6573 25.4953 32.5914 25.4418Z" fill="#C5A042"/>
<path d="M88.4296 75.7087C88.3636 75.6552 88.3088 75.5893 88.2683 75.5146C88.2278 75.4399 88.2024 75.358 88.1935 75.2735C88.1847 75.189 88.1926 75.1036 88.2168 75.0222C88.241 74.9408 88.281 74.8649 88.3345 74.799L90.7786 71.7844C90.8321 71.7183 90.898 71.6635 90.9727 71.623C91.0474 71.5825 91.1293 71.5571 91.2138 71.5483C91.2983 71.5394 91.3837 71.5473 91.4651 71.5715C91.5465 71.5957 91.6224 71.6357 91.6884 71.6893C91.7544 71.7427 91.8092 71.8087 91.8498 71.8833C91.8903 71.958 91.9157 72.0399 91.9245 72.1244C91.9333 72.2089 91.9254 72.2943 91.9012 72.3758C91.877 72.4572 91.837 72.5331 91.7834 72.599L89.3394 75.6136C89.2859 75.6796 89.2199 75.7345 89.1453 75.775C89.0706 75.8155 88.9887 75.8409 88.9042 75.8497C88.8197 75.8585 88.7343 75.8506 88.6529 75.8264C88.5714 75.8022 88.4956 75.7622 88.4296 75.7087ZM56.8714 50.9557C56.8054 50.9022 56.7506 50.8362 56.7101 50.7616C56.6695 50.6869 56.6441 50.605 56.6353 50.5205C56.6265 50.436 56.6344 50.3506 56.6586 50.2692C56.6828 50.1877 56.7228 50.1119 56.7763 50.0459L73.885 28.9435L71.8752 27.3141L54.7665 48.4165C54.5414 48.6941 54.1345 48.7367 53.8568 48.5116C53.5791 48.2865 53.5366 47.8795 53.7617 47.6018L71.2777 25.9971C71.3312 25.931 71.3971 25.8762 71.4718 25.8357C71.5465 25.7952 71.6284 25.7698 71.7129 25.761C71.7974 25.7521 71.8828 25.76 71.9642 25.7842C72.0456 25.8084 72.1215 25.8484 72.1874 25.902L75.2021 28.3461C75.2681 28.3995 75.3229 28.4655 75.3634 28.5401C75.4039 28.6148 75.4293 28.6967 75.4381 28.7812C75.447 28.8657 75.4391 28.9511 75.4149 29.0325C75.3907 29.114 75.3507 29.1898 75.2971 29.2558L57.7811 50.8606C57.7277 50.9266 57.6617 50.9815 57.5871 51.022C57.5124 51.0625 57.4305 51.0879 57.346 51.0967C57.2615 51.1056 57.1761 51.0976 57.0947 51.0734C57.0132 51.0492 56.9374 51.0092 56.8714 50.9557ZM64.3668 47.8729C64.3008 47.8195 64.246 47.7535 64.2054 47.6789C64.1649 47.6042 64.1395 47.5223 64.1307 47.4378C64.1219 47.3533 64.1298 47.2679 64.154 47.1864C64.1782 47.105 64.2182 47.0291 64.2718 46.9632L78.9362 28.8756C79.1614 28.5978 79.5683 28.5551 79.8461 28.7804C79.9121 28.8338 79.9669 28.8998 80.0074 28.9745C80.048 29.0492 80.0734 29.1311 80.0822 29.2156C80.091 29.3001 80.0831 29.3855 80.0589 29.467C80.0346 29.5484 79.9946 29.6243 79.9411 29.6902L65.2766 47.7779C65.2231 47.8439 65.1572 47.8987 65.0825 47.9392C65.0078 47.9797 64.9259 48.0051 64.8414 48.0139C64.7569 48.0228 64.6715 48.0149 64.5901 47.9907C64.5087 47.9665 64.4328 47.9265 64.3668 47.8729Z" fill="#C5A042"/>
<path d="M74.3878 29.3512C74.3049 29.2842 74.2398 29.1978 74.1984 29.0996C74.157 29.0013 74.1406 28.8944 74.1506 28.7883C74.1585 28.7037 74.1829 28.6214 74.2226 28.5463C74.2622 28.4711 74.3163 28.4046 74.3817 28.3503C74.4471 28.2961 74.5226 28.2553 74.6037 28.2303C74.6849 28.2052 74.7703 28.1965 74.8549 28.2044L79.4988 28.6386C79.8556 28.6721 80.1157 28.9869 80.0826 29.3429C80.0494 29.6989 79.7349 29.9603 79.3783 29.9267L74.7344 29.4925C74.6075 29.4805 74.4869 29.4314 74.3878 29.3512ZM71.3732 26.9071C71.2902 26.8401 71.2252 26.7537 71.1838 26.6555C71.1424 26.5572 71.126 26.4503 71.136 26.3442C71.1439 26.2596 71.1683 26.1773 71.2079 26.1022C71.2476 26.0271 71.3017 25.9605 71.3671 25.9062C71.4325 25.852 71.5079 25.8112 71.5891 25.7862C71.6703 25.7612 71.7557 25.7524 71.8402 25.7604L76.4843 26.1947C76.5689 26.2025 76.6511 26.2269 76.7262 26.2665C76.8014 26.3062 76.868 26.3602 76.9222 26.4256C76.9764 26.4911 77.0172 26.5665 77.0422 26.6477C77.0672 26.7289 77.076 26.8142 77.068 26.8988C77.0601 26.9834 77.0357 27.0656 76.996 27.1408C76.9564 27.2159 76.9023 27.2825 76.8369 27.3367C76.7715 27.3909 76.696 27.4317 76.6148 27.4568C76.5336 27.4818 76.4483 27.4906 76.3637 27.4826L71.7197 27.0483C71.5928 27.0364 71.4723 26.9873 71.3732 26.9071ZM63.7422 50.6973L61.7324 49.0678C61.6664 49.0144 61.6115 48.9484 61.571 48.8738C61.5305 48.7991 61.5052 48.7172 61.4963 48.6327C61.4875 48.5482 61.4954 48.4628 61.5197 48.3814C61.5439 48.3 61.5839 48.2241 61.6374 48.1582C61.6909 48.0922 61.7568 48.0373 61.8315 47.9968C61.9061 47.9563 61.988 47.9309 62.0725 47.9221C62.157 47.9132 62.2424 47.9211 62.3238 47.9453C62.4052 47.9695 62.4811 48.0095 62.547 48.063L64.5568 49.6924C64.6229 49.7459 64.6777 49.8118 64.7182 49.8865C64.7587 49.9612 64.7841 50.0431 64.793 50.1276C64.8018 50.2121 64.7939 50.2975 64.7697 50.3789C64.7455 50.4604 64.7055 50.5362 64.6519 50.6022C64.5984 50.6682 64.5325 50.723 64.4578 50.7635C64.3831 50.804 64.3012 50.8294 64.2167 50.8383C64.1322 50.8471 64.0468 50.8392 63.9654 50.815C63.884 50.7908 63.8081 50.7508 63.7422 50.6973ZM87.859 70.2499C87.7599 70.1694 87.6868 70.0614 87.6488 69.9395C87.6234 69.8584 87.6143 69.7731 87.622 69.6885C87.6297 69.6039 87.654 69.5216 87.6935 69.4463C87.733 69.3711 87.787 69.3044 87.8524 69.2501C87.9178 69.1958 87.9932 69.1549 88.0744 69.1298L96.982 66.3593C97.3228 66.252 97.684 66.4424 97.7916 66.785C97.817 66.8661 97.8261 66.9514 97.8185 67.0361C97.8109 67.1207 97.7866 67.203 97.747 67.2782C97.7075 67.3535 97.6535 67.4201 97.5881 67.4744C97.5228 67.5287 97.4473 67.5696 97.3661 67.5946L88.4585 70.3651C88.3569 70.3969 88.2489 70.4031 88.1443 70.383C88.0396 70.3629 87.9416 70.3171 87.859 70.2499Z" fill="#C5A042"/>
<path d="M96.7669 67.4796L93.7523 65.0355C93.6863 64.982 93.6314 64.9161 93.5909 64.8414C93.5504 64.7668 93.525 64.6848 93.5162 64.6003C93.5073 64.5159 93.5153 64.4305 93.5394 64.349C93.5636 64.2676 93.6036 64.1917 93.6572 64.1258C93.7106 64.0597 93.7766 64.0049 93.8512 63.9644C93.9259 63.9238 94.0078 63.8984 94.0923 63.8896C94.1768 63.8808 94.2622 63.8887 94.3437 63.9129C94.4251 63.9371 94.501 63.9771 94.5669 64.0307L97.5815 66.4748C97.6475 66.5282 97.7024 66.5942 97.7429 66.6688C97.7834 66.7435 97.8088 66.8254 97.8176 66.9099C97.8264 66.9944 97.8185 67.0798 97.7943 67.1612C97.7702 67.2427 97.7301 67.3185 97.6766 67.3845C97.6231 67.4505 97.5572 67.5053 97.4825 67.5459C97.4079 67.5864 97.3259 67.6118 97.2414 67.6206C97.157 67.6294 97.0716 67.6215 96.9901 67.5973C96.9087 67.5731 96.8328 67.5331 96.7669 67.4796ZM48.6685 38.4782C48.3907 38.253 48.3482 37.846 48.5733 37.5683L53.0549 32.0405L44.0112 24.7084L39.5296 30.2362C39.4761 30.3022 39.4102 30.357 39.3355 30.3975C39.2608 30.4381 39.1789 30.4634 39.0944 30.4723C39.0099 30.4811 38.9245 30.4732 38.8431 30.449C38.7617 30.4248 38.6858 30.3848 38.6198 30.3313C38.3421 30.1061 38.2995 29.6991 38.5246 29.4214L43.4136 23.3912C43.4671 23.3252 43.5331 23.2703 43.6077 23.2298C43.6824 23.1893 43.7644 23.1639 43.8489 23.1551C43.9334 23.1463 44.0188 23.1542 44.1002 23.1784C44.1817 23.2026 44.2575 23.2427 44.3235 23.2962L54.3721 31.4431C54.4381 31.4966 54.493 31.5625 54.5335 31.6372C54.574 31.7119 54.5994 31.7938 54.6082 31.8783C54.617 31.9628 54.6091 32.0482 54.5849 32.1296C54.5607 32.211 54.5207 32.2869 54.4672 32.3529L49.5782 38.3831C49.5248 38.4491 49.4588 38.5039 49.3841 38.5444C49.3095 38.5849 49.2275 38.6103 49.1431 38.6191C49.0586 38.6279 48.9732 38.62 48.8918 38.5959C48.8103 38.5717 48.7345 38.5317 48.6685 38.4782ZM54.6985 43.3653L50.679 40.1065C50.6129 40.053 50.5581 39.9871 50.5176 39.9124C50.4771 39.8377 50.4517 39.7558 50.4429 39.6713C50.434 39.5868 50.4419 39.5014 50.4661 39.42C50.4903 39.3386 50.5303 39.2627 50.5839 39.1967C50.6373 39.1307 50.7033 39.0759 50.778 39.0354C50.8526 38.9949 50.9346 38.9695 51.019 38.9606C51.1035 38.9518 51.1889 38.9597 51.2704 38.9839C51.3518 39.0081 51.4277 39.0481 51.4936 39.1017L55.5132 42.3605C55.6464 42.4685 55.7313 42.6251 55.7491 42.7957C55.767 42.9663 55.7163 43.137 55.6083 43.2702C55.5002 43.4035 55.3437 43.4884 55.1731 43.5062C55.0025 43.524 54.8318 43.4734 54.6985 43.3653Z" fill="#C5A042"/>
<path d="M53.5581 32.448C53.4752 32.3809 53.4101 32.2945 53.3687 32.1962C53.3273 32.0979 53.3109 31.991 53.3209 31.8848L53.7552 27.2408C53.763 27.1562 53.7875 27.074 53.8271 26.9989C53.8668 26.9237 53.9208 26.8571 53.9862 26.8029C54.0516 26.7487 54.1271 26.7079 54.2083 26.6829C54.2894 26.6579 54.3748 26.6491 54.4593 26.6571C54.5439 26.665 54.6261 26.6894 54.7012 26.7291C54.7763 26.7687 54.8429 26.8228 54.8971 26.8881C54.9513 26.9535 54.9921 27.0289 55.0172 27.1101C55.0422 27.1912 55.051 27.2765 55.0431 27.3611L54.6088 32.0051C54.5981 32.1217 54.5559 32.2332 54.4868 32.3277C54.4176 32.4222 54.3241 32.4961 54.2162 32.5416C54.1083 32.587 53.9901 32.6024 53.8742 32.5859C53.7583 32.5694 53.649 32.5217 53.5581 32.448Z" fill="#C5A042"/>
<path d="M53.9918 27.8037L43.9431 19.6568C43.8771 19.6033 43.8223 19.5374 43.7818 19.4627C43.7413 19.388 43.7159 19.3061 43.707 19.2216C43.6982 19.1371 43.7061 19.0517 43.7303 18.9703C43.7545 18.8889 43.7945 18.813 43.848 18.747C43.9015 18.681 43.9675 18.6262 44.0421 18.5857C44.1168 18.5452 44.1987 18.5198 44.2832 18.511C44.3677 18.5021 44.4531 18.51 44.5345 18.5342C44.616 18.5584 44.6918 18.5984 44.7578 18.652L54.8064 26.7989C54.8724 26.8523 54.9273 26.9183 54.9678 26.9929C55.0083 27.0676 55.0337 27.1495 55.0425 27.234C55.0513 27.3185 55.0434 27.4039 55.0192 27.4853C54.9951 27.5668 54.955 27.6426 54.9015 27.7086C54.848 27.7746 54.7821 27.8294 54.7074 27.87C54.6328 27.9105 54.5508 27.9359 54.4663 27.9447C54.3819 27.9535 54.2965 27.9456 54.215 27.9214C54.1336 27.8972 54.0577 27.8572 53.9918 27.8037Z" fill="black"/>
<path d="M43.5096 24.301C43.4266 24.234 43.3616 24.1475 43.3202 24.0492C43.2788 23.951 43.2624 23.844 43.2724 23.7378L43.7068 19.0939C43.7146 19.0093 43.7391 18.9271 43.7787 18.852C43.8183 18.7768 43.8724 18.7103 43.9378 18.6561C44.0032 18.6018 44.0787 18.5611 44.1598 18.536C44.241 18.511 44.3263 18.5022 44.4109 18.5102C44.4955 18.518 44.5777 18.5425 44.6528 18.5821C44.728 18.6217 44.7946 18.6758 44.8488 18.7412C44.903 18.8066 44.9438 18.882 44.9688 18.9632C44.9939 19.0443 45.0027 19.1297 44.9947 19.2142L44.5604 23.8583C44.5497 23.9749 44.5075 24.0864 44.4383 24.1809C44.3692 24.2753 44.2756 24.3493 44.1677 24.3947C44.0598 24.4402 43.9416 24.4555 43.8257 24.439C43.7097 24.4225 43.6005 24.3748 43.5096 24.301Z" fill="#C5A042"/>
<path d="M39.4889 21.0417C39.3979 20.968 39.3286 20.8709 39.2885 20.7609C39.2484 20.6509 39.2389 20.5321 39.2611 20.4171C39.2832 20.3021 39.3362 20.1953 39.4144 20.1081C39.4925 20.0209 39.5929 19.9566 39.7047 19.922L44.1586 18.5368C44.2397 18.5115 44.325 18.5024 44.4096 18.5101C44.4942 18.5177 44.5765 18.5421 44.6517 18.5816C44.7269 18.6211 44.7936 18.6751 44.8479 18.7405C44.9022 18.8058 44.943 18.8812 44.9681 18.9624C44.9934 19.0435 45.0024 19.1288 44.9947 19.2134C44.987 19.298 44.9627 19.3802 44.9232 19.4554C44.8837 19.5306 44.8297 19.5973 44.7644 19.6516C44.6991 19.7059 44.6238 19.7469 44.5426 19.772L40.0889 21.1573C39.9871 21.189 39.8791 21.1951 39.7744 21.1749C39.6697 21.1547 39.5716 21.109 39.4889 21.0417Z" fill="#C5A042"/>
<path d="M34.6012 27.0713C34.3235 26.8462 34.2808 26.4391 34.5059 26.1615L39.3941 20.1323C39.6193 19.8545 40.0262 19.8121 40.304 20.0373C40.5818 20.2625 40.6243 20.6692 40.3991 20.947L35.5109 26.9762C35.4574 27.0423 35.3915 27.0971 35.3168 27.1376C35.2421 27.1781 35.1602 27.2035 35.0757 27.2123C34.9912 27.2212 34.9058 27.2132 34.8244 27.1891C34.743 27.1649 34.6671 27.1249 34.6012 27.0713ZM36.6109 28.7007C36.5449 28.6473 36.4901 28.5813 36.4496 28.5067C36.4091 28.432 36.3837 28.3501 36.3748 28.2656C36.366 28.1811 36.3739 28.0957 36.3981 28.0143C36.4223 27.9328 36.4623 27.857 36.5159 27.791L40.5894 22.7666C40.8145 22.489 41.2214 22.4464 41.4991 22.6715C41.7767 22.8966 41.8193 23.3036 41.5942 23.5813L37.5207 28.6057C37.4672 28.6717 37.4013 28.7265 37.3266 28.767C37.2519 28.8075 37.17 28.8329 37.0855 28.8417C37.001 28.8506 36.9156 28.8427 36.8342 28.8185C36.7528 28.7943 36.6769 28.7543 36.6109 28.7007ZM53.9919 27.8037L43.9433 19.6568C43.8773 19.6033 43.8224 19.5374 43.7819 19.4627C43.7414 19.388 43.716 19.3061 43.7072 19.2216C43.6984 19.1371 43.7063 19.0517 43.7305 18.9703C43.7547 18.8889 43.7947 18.813 43.8482 18.7471L45.4776 16.7373C45.5311 16.6713 45.597 16.6164 45.6717 16.5759C45.7464 16.5354 45.8283 16.51 45.9128 16.5012C45.9973 16.4924 46.0827 16.5003 46.1641 16.5245C46.2455 16.5487 46.3214 16.5887 46.3874 16.6422L56.436 24.7891C56.502 24.8426 56.5568 24.9085 56.5974 24.9832C56.6379 25.0578 56.6633 25.1398 56.6721 25.2243C56.6809 25.3087 56.673 25.3941 56.6488 25.4756C56.6246 25.557 56.5846 25.6329 56.5311 25.6988L54.9017 27.7086C54.8482 27.7746 54.7822 27.8295 54.7076 27.87C54.6329 27.9105 54.551 27.9359 54.4665 27.9447C54.382 27.9535 54.2966 27.9456 54.2152 27.9214C54.1337 27.8972 54.0579 27.8572 53.9919 27.8037ZM45.2603 19.0593L54.3042 26.3915L55.1189 25.3866L46.0751 18.0543L45.2603 19.0593ZM79.0313 29.7853L76.0167 27.3412C75.9507 27.2877 75.8959 27.2218 75.8554 27.1471C75.8149 27.0724 75.7895 26.9905 75.7806 26.906C75.7718 26.8215 75.7797 26.7361 75.8039 26.6547C75.8281 26.5733 75.8681 26.4974 75.9216 26.4315C76.1469 26.1537 76.5538 26.1111 76.8315 26.3362L79.8461 28.7803C79.9121 28.8338 79.967 28.8998 80.0075 28.9744C80.048 29.0491 80.0734 29.1311 80.0822 29.2156C80.091 29.3001 80.0831 29.3855 80.0589 29.4669C80.0347 29.5484 79.9946 29.6242 79.9411 29.6902C79.8876 29.7562 79.8217 29.811 79.747 29.8515C79.6723 29.8921 79.5904 29.9175 79.5059 29.9263C79.4214 29.9351 79.336 29.9272 79.2546 29.903C79.1732 29.8788 79.0973 29.8388 79.0313 29.7853ZM71.7813 57.2149C71.5035 56.9897 71.4609 56.5827 71.686 56.3051C72.809 54.92 72.5962 52.8795 71.2107 51.7562C69.8251 50.6329 67.7848 50.8466 66.6618 52.2317C66.6083 52.2977 66.5424 52.3525 66.4677 52.393C66.393 52.4335 66.3111 52.4589 66.2266 52.4678C66.1421 52.4766 66.0567 52.4687 65.9753 52.4445C65.8939 52.4203 65.818 52.3803 65.752 52.3268C65.686 52.2733 65.6312 52.2074 65.5907 52.1327C65.5502 52.058 65.5248 51.9761 65.516 51.8916C65.5071 51.8071 65.515 51.7217 65.5392 51.6403C65.5634 51.5589 65.6034 51.483 65.657 51.417C67.2291 49.4779 70.0863 49.1793 72.0254 50.7514C73.9644 52.3235 74.2631 55.1808 72.691 57.1198C72.6375 57.1859 72.5716 57.2407 72.4969 57.2812C72.4222 57.3217 72.3403 57.3471 72.2558 57.3559C72.1713 57.3648 72.0859 57.3569 72.0045 57.3327C71.9231 57.3085 71.8472 57.2685 71.7813 57.2149ZM73.845 50.5611L71.8352 48.9317C71.7692 48.8782 71.7144 48.8123 71.6738 48.7376C71.6333 48.663 71.6079 48.581 71.5991 48.4965C71.5903 48.4121 71.5982 48.3266 71.6224 48.2452C71.6466 48.1638 71.6866 48.0879 71.7401 48.022C71.7936 47.9559 71.8595 47.9011 71.9342 47.8606C72.0089 47.8201 72.0908 47.7947 72.1753 47.7859C72.2598 47.777 72.3452 47.785 72.4266 47.8091C72.508 47.8333 72.5839 47.8733 72.6499 47.9269L74.6596 49.5563C74.7256 49.6098 74.7805 49.6757 74.821 49.7504C74.8615 49.8251 74.8869 49.907 74.8957 49.9915C74.9046 50.076 74.8966 50.1614 74.8725 50.2428C74.8483 50.3242 74.8082 50.4001 74.7547 50.466C74.7012 50.5321 74.6353 50.5869 74.5606 50.6274C74.486 50.6679 74.404 50.6933 74.3196 50.7021C74.2351 50.711 74.1497 50.7031 74.0682 50.6789C73.9868 50.6547 73.9109 50.6147 73.845 50.5611Z" fill="#C5A042"/>
<path d="M71.0205 49.9366C70.9544 49.8832 70.8996 49.8172 70.8591 49.7425C70.8186 49.6678 70.7932 49.5859 70.7844 49.5014C70.7755 49.4169 70.7835 49.3315 70.8077 49.25C70.8319 49.1686 70.8719 49.0927 70.9255 49.0268L71.7401 48.0219C71.7936 47.9559 71.8595 47.9011 71.9342 47.8606C72.0089 47.8201 72.0908 47.7947 72.1753 47.7859C72.2598 47.777 72.3452 47.7849 72.4266 47.8091C72.5081 47.8333 72.5839 47.8733 72.6499 47.9269C72.9277 48.1521 72.9702 48.5591 72.7451 48.8367L71.9304 49.8415C71.7053 50.1192 71.2982 50.1618 71.0205 49.9366Z" fill="#C5A042"/>
<path d="M73.03 51.566C72.9639 51.5126 72.9091 51.4466 72.8686 51.3719C72.8281 51.2972 72.8027 51.2153 72.7939 51.1308C72.7851 51.0463 72.793 50.9609 72.8172 50.8794C72.8414 50.798 72.8814 50.7221 72.935 50.6562L73.7497 49.6513C73.9748 49.3737 74.3817 49.3311 74.6594 49.5563C74.937 49.7814 74.9796 50.1883 74.7545 50.466L73.9398 51.4708C73.7147 51.7485 73.3076 51.7911 73.03 51.566Z" fill="#C5A042"/>
<path d="M76.6694 51.1857C76.638 51.1603 76.6069 51.1303 76.5792 51.0964L72.3695 46.018C72.3151 45.9527 72.2742 45.8773 72.249 45.7961C72.2238 45.7149 72.2149 45.6295 72.2228 45.5449C72.2307 45.4603 72.2552 45.378 72.2949 45.3029C72.3347 45.2277 72.3888 45.1611 72.4544 45.107C72.7302 44.8792 73.1391 44.9121 73.3646 45.1918L77.5742 50.2702C77.6286 50.3356 77.6696 50.411 77.6947 50.4922C77.7199 50.5734 77.7288 50.6588 77.7209 50.7434C77.7131 50.828 77.6885 50.9103 77.6488 50.9854C77.6091 51.0606 77.5549 51.1271 77.4894 51.1813C77.3744 51.2769 77.2297 51.3295 77.0802 51.3304C76.9306 51.3312 76.7855 51.28 76.6694 51.1857Z" fill="#C5A042"/>
<path d="M70.8303 48.1172C70.7643 48.0638 70.7094 47.9978 70.6689 47.9232C70.6284 47.8485 70.603 47.7666 70.5941 47.6821C70.5853 47.5976 70.5932 47.5122 70.6174 47.4308C70.6416 47.3493 70.6817 47.2735 70.7352 47.2075L72.3645 45.1979C72.5897 44.9201 72.9966 44.8774 73.2744 45.1026C73.5522 45.3278 73.5946 45.7347 73.3694 46.0125L71.74 48.0222C71.6866 48.0882 71.6206 48.143 71.546 48.1835C71.4713 48.224 71.3894 48.2494 71.3049 48.2583C71.2204 48.2671 71.135 48.2592 71.0536 48.235C70.9721 48.2108 70.8963 48.1708 70.8303 48.1172Z" fill="#C5A042"/>
<path d="M75.8547 52.1907L70.8303 48.1172C70.7643 48.0638 70.7095 47.9978 70.6689 47.9232C70.6284 47.8485 70.603 47.7666 70.5942 47.6821C70.5853 47.5976 70.5933 47.5122 70.6175 47.4307C70.6417 47.3493 70.6817 47.2734 70.7352 47.2075C70.7887 47.1415 70.8547 47.0866 70.9293 47.0461C71.004 47.0056 71.0859 46.9802 71.1704 46.9714C71.2549 46.9626 71.3403 46.9705 71.4217 46.9947C71.5032 47.0189 71.579 47.0589 71.645 47.1124L76.6694 51.1859C76.7354 51.2394 76.7902 51.3053 76.8307 51.38C76.8712 51.4547 76.8966 51.5366 76.9055 51.6211C76.9143 51.7056 76.9064 51.791 76.8822 51.8724C76.858 51.9538 76.818 52.0297 76.7645 52.0957C76.711 52.1617 76.645 52.2165 76.5704 52.257C76.4957 52.2975 76.4138 52.3229 76.3293 52.3317C76.2448 52.3406 76.1594 52.3327 76.078 52.3085C75.9965 52.2843 75.9207 52.2443 75.8547 52.1907Z" fill="#C5A042"/>
<path d="M75.8547 52.1905C75.5769 51.9653 75.5342 51.5585 75.7595 51.2807L76.5741 50.2759C76.6276 50.2098 76.6936 50.155 76.7682 50.1145C76.8429 50.074 76.9249 50.0486 77.0094 50.0398C77.0939 50.0309 77.1793 50.0389 77.2607 50.0631C77.3422 50.0873 77.418 50.1273 77.484 50.1809C77.55 50.2343 77.6048 50.3003 77.6453 50.375C77.6858 50.4496 77.7112 50.5315 77.7201 50.616C77.7289 50.7005 77.721 50.7859 77.6968 50.8674C77.6726 50.9488 77.6326 51.0247 77.5791 51.0906L76.7644 52.0954C76.7109 52.1615 76.645 52.2163 76.5703 52.2568C76.4957 52.2973 76.4137 52.3227 76.3292 52.3315C76.2448 52.3404 76.1593 52.3324 76.0779 52.3083C75.9965 52.2841 75.9206 52.2441 75.8547 52.1905Z" fill="#C5A042"/>
<path d="M45.8926 36.224C45.8219 36.1669 45.764 36.0954 45.7229 36.0142C45.6818 35.9331 45.6583 35.8441 45.654 35.7533C45.5639 33.9206 43.7285 32.4284 41.9111 32.7179C41.8273 32.7315 41.7415 32.7283 41.6588 32.7087C41.5761 32.689 41.4982 32.6532 41.4293 32.6033C41.3605 32.5534 41.3023 32.4905 41.2579 32.418C41.2135 32.3455 41.1838 32.265 41.1706 32.181C41.1572 32.0972 41.1605 32.0115 41.1802 31.9288C41.2 31.8462 41.2358 31.7683 41.2856 31.6995C41.3355 31.6308 41.3984 31.5725 41.4708 31.5281C41.5432 31.4836 41.6236 31.4539 41.7075 31.4405C42.3357 31.3404 42.9779 31.3735 43.5924 31.5377C44.2069 31.7019 44.78 31.9936 45.2745 32.3937C45.7689 32.795 46.1733 33.2959 46.4613 33.8639C46.7493 34.4318 46.9145 35.054 46.9461 35.69C46.952 35.8147 46.9218 35.9384 46.859 36.0463C46.7962 36.1541 46.7036 36.2416 46.5922 36.298C46.4809 36.3544 46.3556 36.3775 46.2315 36.3644C46.1074 36.3513 45.9897 36.3025 45.8926 36.224Z" fill="#C5A042"/>
<path d="M56.8713 50.9558L53.8567 48.5118C53.7907 48.4583 53.7359 48.3923 53.6953 48.3177C53.6548 48.243 53.6294 48.1611 53.6206 48.0766C53.6118 47.9921 53.6197 47.9067 53.6439 47.8253C53.6681 47.7438 53.7081 47.668 53.7616 47.602C53.8151 47.536 53.881 47.4812 53.9557 47.4407C54.0304 47.4002 54.1123 47.3748 54.1968 47.3659C54.2813 47.3571 54.3667 47.365 54.4481 47.3892C54.5295 47.4134 54.6054 47.4534 54.6714 47.5069L57.686 49.951C57.752 50.0045 57.8068 50.0704 57.8473 50.1451C57.8878 50.2198 57.9132 50.3017 57.9221 50.3862C57.9309 50.4707 57.923 50.5561 57.8988 50.6375C57.8746 50.7189 57.8346 50.7948 57.781 50.8608C57.7276 50.9268 57.6616 50.9816 57.587 51.0222C57.5123 51.0627 57.4304 51.0881 57.3459 51.0969C57.2614 51.1057 57.176 51.0978 57.0946 51.0736C57.0131 51.0494 56.9373 51.0094 56.8713 50.9558Z" fill="#C5A042"/>
</svg>
