<svg width="175" height="175" viewBox="0 0 175 175" fill="none" xmlns="http://www.w3.org/2000/svg">
<g opacity="0.78" clip-path="url(#clip0_174_946)">
<path d="M158.934 87.055C157.638 85.9623 155.864 85.6914 154.301 86.3439L151.943 87.328C139.984 61.4848 111.778 47.808 84.649 53.416C84.541 53.054 84.4531 52.6861 84.3102 52.3437C81.8325 46.4069 74.9867 43.5928 69.0499 46.0705C63.1131 48.5483 60.2989 55.3941 62.7767 61.3309C62.9196 61.6733 63.1181 61.9975 63.3007 62.3258C40.2313 77.6657 30.1172 107.338 40.0779 134.015L39.8733 134.101C38.31 134.753 37.2547 136.205 37.1204 137.894C36.986 139.584 37.7959 141.185 39.2358 142.079L46.9459 146.861C51.1973 149.498 56.4912 149.921 61.1059 147.995L149.247 111.209C153.862 109.283 157.285 105.222 158.399 100.345L160.425 91.4998C160.8 89.8488 160.228 88.1456 158.934 87.055ZM67.2509 59.8984C67.1902 59.7771 67.1337 59.654 67.0834 59.5334C65.5969 55.9718 67.2857 51.8637 70.8473 50.3772C74.409 48.8908 78.5171 50.5795 80.0035 54.1412C80.0548 54.2639 80.1017 54.3884 80.1452 54.5169C80.0395 54.5484 79.9365 54.5863 79.8329 54.6169C79.058 54.8442 78.2887 55.097 77.5178 55.3581C77.2341 55.4538 76.9489 55.5399 76.667 55.6399C75.6177 56.0095 74.5771 56.4059 73.5435 56.8373C72.5099 57.2687 71.494 57.7306 70.4967 58.2125C70.2274 58.3427 69.9656 58.4848 69.698 58.6192C68.9702 58.9836 68.2503 59.3549 67.5428 59.7437C67.447 59.7989 67.3467 59.8433 67.2509 59.8984ZM67.8435 64.9532C68.9236 64.3002 70.0343 63.69 71.1576 63.1099C71.3864 62.9917 71.616 62.8756 71.8466 62.7617C74.1445 61.6155 76.5197 60.6242 78.9506 59.7968C79.1946 59.7152 79.4387 59.6335 79.6827 59.5519C80.8851 59.1613 82.0979 58.8018 83.324 58.4924C108.985 52.0582 136.23 64.6495 147.647 89.1209L44.3738 132.222C35.0092 106.894 45.2176 78.6719 67.8435 64.9532ZM153.848 99.3037C153.067 102.714 150.675 105.556 147.447 106.903L59.3084 143.688C56.0805 145.036 52.3784 144.738 49.4051 142.896L41.9679 138.283L153.796 91.6113L155.801 90.7746L153.848 99.3037Z" fill="#C5A042"/>
<path d="M77.1082 65.4632C73.5702 66.9398 70.2121 68.799 67.1255 70.9873C66.0736 71.7323 65.8265 73.1881 66.5715 74.24C67.2155 75.147 68.3879 75.4541 69.372 75.0434C69.5292 74.9778 69.6814 74.8941 69.8263 74.7931C72.6317 72.8031 75.6863 71.1135 78.9056 69.7699C78.9142 69.7663 78.9228 69.7627 78.9336 69.7582C80.1222 69.2622 80.6852 67.897 80.1891 66.7083C79.6907 65.508 78.3185 64.91 77.1082 65.4632Z" fill="#C5A042"/>
<path d="M56.3797 81.4446C47.9444 92.7603 44.8005 108.176 47.9674 122.682C48.2431 123.943 49.4856 124.739 50.746 124.463C50.886 124.435 51.0197 124.392 51.1489 124.338C52.1696 123.912 52.7724 122.806 52.5287 121.689C49.6452 108.485 52.4833 94.4817 60.1229 84.2338C60.8932 83.2019 60.6794 81.7386 59.6474 80.9683C58.6112 80.1998 57.1522 80.4117 56.3797 81.4446Z" fill="#C5A042"/>
</g>
<defs>
<clipPath id="clip0_174_946">
<rect width="133" height="133" fill="white" transform="translate(0.66748 51.8545) rotate(-22.6535)"/>
</clipPath>
</defs>
</svg>
